<?xml version="1.0" encoding="utf-8"?>
<!-- Generator: Adobe Illustrator 18.1.1, SVG Export Plug-In . SVG Version: 6.00 Build 0)  -->
<!DOCTYPE svg PUBLIC "-//W3C//DTD SVG 1.1//EN" "http://www.w3.org/Graphics/SVG/1.1/DTD/svg11.dtd">
<svg version="1.1" id="Laag_1" xmlns="http://www.w3.org/2000/svg" xmlns:xlink="http://www.w3.org/1999/xlink" x="0px" y="0px"
	 viewBox="0 0 300 300" enable-background="new 0 0 300 300" xml:space="preserve">
<g>
	<path fill="#FFFFFF" d="M296.4,126.9c0.3,2.1,0.4,3.9,0.2,3.1c0.7,4.2,0.5,4.3,1,4.8c0.4,2.7,0.4,5.7,0,2.6c0,0,0.2,2,0.4,3.9
		c0.1,1,0.1,2,0.2,2.7c0,0.7,0.1,1.2,0.1,1.2s0-1.2,0-2.4c0-0.6,0-1.2-0.1-1.6c0-0.4,0-0.7,0-0.7c0.1,0.3,0.2,0.9,0.2,1.7
		c0,0.8,0,1.7,0.1,2.7c0,1.9,0.1,3.9,0.3,4.6c0,0-0.1-2.1-0.1-4.3c0-1.1-0.1-2.1-0.1-3c0-0.8-0.1-1.3-0.1-1.3l0.1,0.4
		c-0.3-1.9-0.5-5.7-0.6-7.1c0.1,0.2,0.1,0.1,0.3,1.6c-0.1-1.3-0.2-2.3-0.3-3.1c-0.1-0.8-0.2-1.4-0.3-1.8c-0.2-0.9-0.3-1.2-0.4-1.4
		c-0.1-0.2-0.2-0.4-0.4-1c-0.1-0.3-0.2-0.8-0.3-1.4c-0.1-0.6-0.3-1.4-0.5-2.5C296.1,125.4,296.3,126,296.4,126.9z"/>
	<path fill="#FFFFFF" d="M295.5,118.1l-1.2-3.4c0,0-0.1-0.4-0.2-0.9c-0.1-0.6-0.3-1.3-0.5-2c-0.4-1.5-0.8-2.9-0.8-2.9
		c-0.2,0-1.5-4.2-0.8-1.3c0.2,0.6,0.5,1.7,0.8,2.6c-0.2-0.3-0.8-2.2-1.3-3.8c-0.5-1.6-1.1-2.9-0.9-2c0.8,2.2,1.1,3.6,1.5,4.7
		c0.3,1.1,0.6,2,1.2,3.4c0.5,2.1,0.9,4,1.2,5.6c0.2,0.8,0.3,1.5,0.4,2.1c0.1,0.6,0.2,1.2,0.2,1.7c0.3,1.3,0.5,1.4,0.8,3
		c-0.1-0.4-0.1-0.7-0.2-1.1l0.4-0.3c-0.4-1.3-0.5-2.7-0.8-4.1c0,0,0.2,0.4,0.3,1.1c0.2,0.6,0.4,1.5,0.6,2.4c0.4,1.7,0.9,3.5,0.9,3.5
		c0-1.2-0.4-3.5-0.8-5.8c-0.5-2.3-1.1-4.7-1.3-6.1C295.5,117.6,294.3,111.5,295.5,118.1z"/>
	<path fill="#FFFFFF" d="M296,124.7c0,0,0,0.1,0,0.2C296,124.8,296,124.7,296,124.7z"/>
	<path fill="#FFFFFF" d="M31.9,233.3c0.9,1.2,1.2,1.5,1.4,1.6c0,0-0.6-0.8-1.5-2.1c-0.5-0.6-1-1.4-1.5-2.2c-0.5-0.8-1.1-1.7-1.7-2.6
		c-1.1-1.8-2.3-3.5-3-4.9c-0.8-1.4-1.3-2.3-1.3-2.3c0.2,0.5,2.4,4.7,0.8,2c0.5,1.3,3,5,3.5,5.4l-0.8-0.9c1.1,1.6,2,3,2.3,3.7
		c0.4,0.7,0.3,0.8-0.5-0.2c0,0,0.2,0.3,0.2,0.3c0,0,1.7,2,3.5,4.1c0.8,1,1.8,2,2.4,2.7c0.7,0.7,1.1,1.2,1.1,1.2
		C34.4,236.2,34.6,237.1,31.9,233.3z"/>
	<path fill="#FFFFFF" d="M293.9,174c-0.3,2.1-0.3,2.4-0.3,2.2C293.8,175.4,293.8,174.7,293.9,174z"/>
	<path fill="#FFFFFF" d="M38.4,241.1c0,0,0.6,0.6,1.2,1.2c0.6,0.6,1.2,1.2,1.2,1.2C39.9,242.5,39,241.7,38.4,241.1z"/>
	<path fill="#FFFFFF" d="M21.7,224.4C21.7,224.4,21.6,224.3,21.7,224.4l0.9,1.3c0,0,0,0,0,0C22.2,225.2,21.9,224.7,21.7,224.4z"/>
	<path fill="#FFFFFF" d="M99.2,283.7c0.3,0.1,0.6,0.2,1,0.4C99.9,284,99.5,283.9,99.2,283.7z"/>
	<path fill="#FFFFFF" d="M3.4,181.7c0,0,0.5,1.9,1,3.7c0.5,1.9,1.1,3.7,1.1,3.7c-0.4-1,0.6,2.6,0.1,1.1c0.2,0.6,1,3.2,0.8,2.4
		L6,191.1c1.5,3.8,0.8,1.4,3.3,7.7c-0.6-2-1-3.4-1.5-4.6C7.4,193,7,192.1,6.6,191c-0.2-0.7-0.4-1.3-0.6-1.9c0,0-0.1-0.4-0.4-0.9
		c-0.2-0.6-0.5-1.3-0.7-2.1c-0.5-1.5-1-3-1-3L3.4,181.7z"/>
	<path fill="#FFFFFF" d="M244.6,263.5L244.6,263.5C244.6,263.5,244.6,263.5,244.6,263.5z"/>
	<path fill="#FFFFFF" d="M244.3,263.9c0,0,0.2-0.3,0.2-0.3C244.2,263.9,243,264.9,244.3,263.9z"/>
	<path fill="#FFFFFF" d="M37.5,240.3c0.1,0,0.4,0.3,0.9,0.8l-1.7-1.8C37,239.6,37.2,239.9,37.5,240.3z"/>
	<path fill="#FFFFFF" d="M33.4,236.3l-3.7-5.1l-1.4-1.8C29.6,231.4,31.4,233.6,33.4,236.3z"/>
	<path fill="#FFFFFF" d="M90.3,279.8c11.7,5.2-3-0.9,2.3,1.6c1.6,0.7,2.8,1.1,3.8,1.4c1,0.3,1.8,0.6,2.9,0.9c-4.8-1.8-4.4-1.8-4-1.9
		c0.4-0.1,0.7,0-3.9-2.1c0.7,0.1,2.4,0.8,4.4,1.6c2,0.7,4.1,1.6,5.7,2.3c1.8,0.8,1,0.6-0.4,0.2c-1.4-0.5-3.3-1.2-3.8-1.2
		c3.8,1.4,3.2,1.2,4.9,1.5c3,1.1,6.2,2.1,9.1,2.8c1.4,0.4,2.8,0.8,4,1.1c1.2,0.3,2.3,0.6,3.3,1c4.5,1,4.3,0.6,7,1
		c0.3-0.1-1.4-0.5-3.4-0.9c-1.9-0.5-4.2-1-5-1.4c0.3,0.1,1,0.3,0.8,0.3c0,0-1-0.2-1.9-0.5c-1-0.2-1.9-0.5-1.9-0.5
		c1.8,0.6,1.7,0.6,0.8,0.5c-0.8-0.2-2.4-0.5-3.4-0.8c-1.4-0.4-4.3-1.2-3.8-1.2c0,0,0.5,0.2,1.1,0.3c0.5,0.1,1.1,0.3,1.1,0.3
		c-1.4-0.4-2.9-0.9-4.4-1.3c-1.5-0.5-3.1-0.9-4.5-1.6c-0.1-0.1,1,0.2,1.2,0.2c-1.6-0.5-3.2-1-5-1.7c-1.8-0.6-3.7-1.4-6-2.4l2.8,0.9
		c-1.9-0.7-5-1.8-8.1-3.6c-3.2-1.6-6.5-3.7-9.2-5.3c0.6,0.4,1.6,1.1,0.9,0.8c-3.2-1.8-5.4-3.6-3.9-2.9c-0.8-0.4-1.9-1.1-3.2-2
		c-1.2-0.9-2.7-2-4.1-3c-1.5-1.1-2.9-2.3-4.2-3.3c-1.4-1-2.6-2-3.6-2.7c0,0-1.2-0.8-2.9-2.1c-1.8-1.2-3.9-3.1-6.2-4.9
		c-2.2-1.9-4.3-3.8-5.9-5.3c-1.6-1.5-2.6-2.5-2.6-2.5c0.6,0.6,1.2,1.3,1.9,2c0.6,0.9,1,1.6,1,1.7c0,0.1-0.5-0.3-1.8-1.6
		c1.2,1.3,1.7,1.7,2.3,2.1c0.6,0.5,1.4,1.2,3.2,3.1c-1.6-1.4-2.3-1.5,1.4,2.2c1.2,1.1,2.4,2.1,3.5,3.1c1.1,1,2.3,1.9,3.4,2.7
		c1.1,0.9,2.2,1.7,3.3,2.5c1.1,0.8,2.2,1.5,3.3,2.3c2.1,1.5,4.4,2.8,6.7,4.3c1.1,0.7,2.4,1.4,3.6,2.1c1.2,0.7,2.5,1.4,3.8,2.2
		c0.1,0.2,2.2,1.5,4.8,3c1.3,0.8,2.8,1.5,4.1,2.2c1.4,0.7,2.6,1.4,3.7,1.9c-0.9-0.2-2-0.8-3.4-1.4c-1.4-0.7-3-1.4-4.5-2.2
		c0.9,0.6,2.3,1.2,3.7,2c1.4,0.7,2.9,1.5,4.2,2.1L90.3,279.8z"/>
	<path fill="#FFFFFF" d="M64.1,265.2c0.2,0.2,0.5,0.4,0.8,0.6C64.8,265.7,64.6,265.5,64.1,265.2z"/>
	<path fill="#FFFFFF" d="M80.2,275.1C80.1,275.1,80.2,275.1,80.2,275.1c0.3,0.2,0.6,0.4,0.9,0.5C80.8,275.5,80.4,275.3,80.2,275.1z"
		/>
	<path fill="#FFFFFF" d="M39,243c-0.6-0.5-1-1-1.5-1.5c0.3,0.4,0.7,0.8,1.1,1.2C39,243.1,39.2,243.3,39,243z"/>
	<path fill="#FFFFFF" d="M37.7,240.7L38,241c-0.2-0.3-0.3-0.5-0.5-0.7C37.4,240.3,37.4,240.4,37.7,240.7z"/>
	<path fill="#FFFFFF" d="M137,294.7l1.2,0C137.5,294.7,137.2,294.7,137,294.7z"/>
	<path fill="#FFFFFF" d="M103.4,285.5c-4.2-1.4-0.7,0.3-6.5-2l1.7,0.7c-4.3-1.4-11.5-4.8-16.3-7.4c0.6,0.2-2.8-1.8-2.1-1.7
		c-1.6-0.9-3.2-1.8-4.6-2.5c-1.4-0.8-2.6-1.5-3.5-1.9c-1.9-1.2-4.8-3.1-7.1-4.9c0.9,0.8-3.7-2,2.2,2c-0.5-0.3-0.2-0.1-0.7-0.4
		c3.6,2.9,5.4,3.5,8.7,5.6c1.9,1.4-3.4-1.9-1.5-0.6c0.5,0.3,1.1,0.7,1.8,1.1c0.7,0.4,1.4,0.8,2.1,1.2c1.5,0.8,3,1.7,4.4,2.5
		c2.9,1.5,5.1,2.6,5.1,2.2c3.2,1.5,3.7,1.8,4.6,2.3c0.7,0.2,1.5,0.5,2.4,0.9c0.9,0.3,1.9,0.7,2.9,1.1c2.1,0.8,4.3,1.8,6.5,2.4
		c4.2,1.6,7.9,2.5,8,2.2c-1-0.3-2.3-0.6-3.7-1c-1.4-0.5-2.9-0.9-4.4-1.3L103.4,285.5z"/>
	<path fill="#FFFFFF" d="M44,248.7c0.2,0.2,0.4,0.5,0.6,0.6C44.4,249.1,44.2,248.9,44,248.7z"/>
	<path fill="#FFFFFF" d="M16.3,199.9l1.1,1.6c0.5,1.2,0.9,2.3,1.4,3.4c0.4,1,0.9,2,1.3,2.9c0.8,1.8,1.5,3.4,2.3,4.9
		c0.8,1.5,1.5,3,2.3,4.6c0.9,1.6,1.9,3.3,3,5.3c0.3,0.6-0.3-0.3-0.6-0.8c3.3,5.6,8.7,13.6,12,17.1c0.3,0.4,0.8,1,1.2,1.6
		c0.5,0.6,1,1.2,1.4,1.7c0.8,1.1,1.3,1.7,0.6,1c0.7,0.7,1.5,1.6,2.2,2.5c0.1,0.3-1.7-1.9-1.9-1.9c0.6,0.7,0.8,1,1,1.1
		c-1.1-1.1,0.6,1.6-4.1-3.9c-0.7-1.2,0.1-0.2,1,0.8c0.9,1,1.9,2.2,1.6,1.4c-1.6-1.8-1.5-1.5-1.7-1.6c-2-2.3-1.8-2.4-1.6-2.3
		c-0.4-0.4-1.2-1.4-2-2.4c-0.4-0.5-0.8-1-1.2-1.5c-0.4-0.5-0.7-0.9-1-1.2c-3.5-4.8,0.5,0.1-1.8-3.1c0,0-0.4-0.4-0.8-0.8
		c-0.4-0.4-0.8-0.8-0.8-0.8l-3.4-5.5c-2.4-4-2.4-3.6-2.5-3.4c0,0.1-0.1,0.2-0.5-0.3c-0.4-0.5-1.2-1.6-2.4-4c0.4,0.6,0.2-0.1-0.3-1.6
		c-0.3-0.7-0.7-1.6-1.1-2.6c-0.4-1-0.9-2.1-1.4-3.2c0.3,0.7,0.7,1.5,1.1,2.4c0.4,0.9,1,1.8,1.5,2.8c1.1,2,2.2,4,3.1,5.7
		c-2.4-4.8,3.7,6.4,2.7,3.8c-1.5-2.2-3.8-6-5.2-9.2l0.6,1c-0.8-1.7-1.7-3-2.5-4.6c-0.8-1.6-1.7-3.4-2.7-5.7c-0.9-2.3-0.6-2-0.4-1.6
		C17,201.7,16.2,199.9,16.3,199.9z M18.4,205c0,0,0.1,0.2,0.2,0.5c0.1,0.3,0.3,0.7,0.5,1.1c0.3,0.8,0.7,1.5,0.7,1.5
		C19.5,207.3,18.9,206.2,18.4,205z"/>
	<path fill="#FFFFFF" d="M277.4,72.8c0.2,0.3,0.4,0.7,0.5,0.9C277.8,73.6,277.7,73.2,277.4,72.8z"/>
	<path fill="#FFFFFF" d="M20.3,77.9l1-1.8C20.9,76.8,20.6,77.4,20.3,77.9z"/>
	<path fill="#FFFFFF" d="M47,40.9l2.1-2.1C48.3,39.6,47.6,40.3,47,40.9z"/>
	<path fill="#FFFFFF" d="M263.3,53.3L263.3,53.3c-0.2-0.2-0.3-0.3-0.4-0.4L263.3,53.3z"/>
	<path fill="#FFFFFF" d="M128.9,2.2c0.5,0,1,0,1.7-0.1C130.4,2.1,129.8,2.1,128.9,2.2z"/>
	<path fill="#FFFFFF" d="M46.6,41.3c0.1-0.1,0.1-0.1,0.1-0.1c0.1-0.1,0.2-0.2,0.2-0.3L46.6,41.3z"/>
	<path fill="#FFFFFF" d="M10.6,95.6c-0.1,0.4-0.3,0.8-0.4,1.2C10.4,96.3,10.5,95.9,10.6,95.6z"/>
	<path fill="#FFFFFF" d="M12.8,93.4c-0.2,0.4-0.3,0.9-0.4,1.2L12.8,93.4z"/>
	<path fill="#FFFFFF" d="M1.5,162.2l0.3,2.7C1.6,163.6,1.5,162.8,1.5,162.2z"/>
	<path fill="#FFFFFF" d="M10,100.1c0,0.2-0.1,0.3-0.1,0.4C10,100.1,10,99.9,10,100.1z"/>
	<path fill="#FFFFFF" d="M284.3,88.7c0-0.1-0.1-0.1-0.1-0.1l-0.1,0L284.3,88.7z"/>
	<path fill="#FFFFFF" d="M287.5,94.5c0.3,0.7,0.6,1.5,0.9,2.2C288.1,95.9,287.8,95.1,287.5,94.5z"/>
	<path fill="#FFFFFF" d="M168.5,2.5c0.7,0.2,2.4,0.4,1.6,0.4C171.4,3,171.4,2.8,168.5,2.5z"/>
	<path fill="#FFFFFF" d="M275.8,78.4c0.3,0.3,0.6,0.8,0.9,1.2C276.1,78.8,275.7,78.1,275.8,78.4z"/>
	<path fill="#FFFFFF" d="M276.7,79.6c0.3,0.4,0.6,0.8,0.8,1.2C277.2,80.4,276.9,80,276.7,79.6z"/>
	<path fill="#FFFFFF" d="M150.2,5.1c-0.2,0-0.4,0-0.8,0C149.5,5.2,149.7,5.2,150.2,5.1z"/>
	<path fill="#FFFFFF" d="M289,98.6c0.3,0.3,3.8,10.1,1.1,1.8c0.2,0.1,0.7,1.4,1.2,3c0.3,0.8,0.6,1.6,0.8,2.4
		c0.2,0.8,0.4,1.5,0.6,2.1c-0.4-1.7,0.4,0.8,0.4,0.2c-0.4-1.1-0.8-2.4-1.4-4.2c-0.1-0.9,0.9,1.8,1.5,4.1c-0.6-2.8,1.2,3.4,0.3-0.5
		c-2.6-8.1-4.9-13.7-7.8-18.9c0.5,1.1,1,2.2,1.6,3.3c0.5,1.2,0.9,2.3,1.4,3.4c0.4,1.1,0.9,2.3,1.3,3.3c0.4,1.1,0.7,2.1,1,3.1
		l-0.8-1.5c-0.2-0.5-0.3-1.1-0.4-1.5c-0.2-0.5-0.3-0.9-0.5-1.4c-0.3-0.9-0.7-1.7-1-2.6c-0.3-0.8-0.7-1.7-1-2.5
		c-0.4-0.9-0.8-1.8-1.3-2.8c0,0,0.2,0.6,0.6,1.4c0.4,0.8,0.8,2,1.3,3.2c0.9,2.3,1.7,4.6,1.7,4.6c0.6,2.2,0.7,2.6,0.4,2
		c-0.1-0.3-0.3-0.8-0.6-1.5c-0.3-0.7-0.6-1.5-1-2.3C288.7,97.6,289,98.3,289,98.6z"/>
	<path fill="#FFFFFF" d="M284.3,93.4l0.1,0.2c0.1,0.1,0.1,0.3,0.2,0.4L284.3,93.4z"/>
	<path fill="#FFFFFF" d="M7.3,161.3l0.2,0.8C7.3,161.4,7.3,161.2,7.3,161.3z"/>
	<path fill="#FFFFFF" d="M283.2,87.5L283.2,87.5C283.1,87.5,283.1,87.5,283.2,87.5z"/>
	<path fill="#FFFFFF" d="M7.1,140.8c0,0,0,0.1,0,0.1C7.1,140.9,7.1,140.9,7.1,140.8z"/>
	<path fill="#FFFFFF" d="M1.3,134.8c0,0,0,0-0.1,0.1C1.2,135.4,1.2,135.2,1.3,134.8z"/>
	<path fill="#FFFFFF" d="M7.1,140.8C7.1,140.8,7.1,140.8,7.1,140.8C7.1,140.8,7.1,140.8,7.1,140.8z"/>
	<path fill="#FFFFFF" d="M44.9,50.7c0,0-0.3,0.2-0.6,0.5C44.2,51.3,44.4,51.2,44.9,50.7z"/>
	<path fill="#FFFFFF" d="M32.1,65.7C32,65.8,32,65.9,31.8,66L32.1,65.7z"/>
	<path fill="#FFFFFF" d="M163.8,0.7c-1-0.1-1.8-0.1-2.4-0.2C162.2,0.6,163,0.7,163.8,0.7z"/>
	<path fill="#FFFFFF" d="M7.1,141c0,0.2,0,0.5,0,1C7.1,141.4,7.1,141.1,7.1,141z"/>
	<path fill="#FFFFFF" d="M66.9,29.8c-0.2,0.1-0.3,0.3-0.5,0.4l0.3-0.2L66.9,29.8z"/>
	<path fill="#FFFFFF" d="M75.7,24.3c-0.3,0.2-0.4,0.3-0.6,0.4c1.6-1,3.9-2.3,5.8-3.4c2-1.1,3.7-2,4-2.3c-0.6,0.3-2.3,1.1-3.8,1.8
		c-1.5,0.7-2.7,1.4-2.3,1c-1.1,0.7-2.5,1.5-3.8,2.1c-1.3,0.7-2.4,1.4-3,1.8c3.7-2.2,0.5,0-1.8,1.6c-2.3,1.3,0.3-0.5-1.7,0.7
		l-4.9,3.5l4.3-3l-1.1,1.2c0.2-0.1,0.3-0.2,0.4-0.3c1.8-1.3,2.8-1.9,3.3-2.2c0.5-0.3,0.7-0.3,0.8-0.3C71.7,26.9,71.9,26.7,75.7,24.3
		z"/>
	<path fill="#FFFFFF" d="M75.1,24.7c-0.5,0.3-0.9,0.6-1.2,0.8C74.7,25.1,74.9,24.9,75.1,24.7z"/>
	<path fill="#FFFFFF" d="M108.4,10.5c0.4-0.1,0.9-0.3,1.5-0.5C109.6,10.1,109,10.3,108.4,10.5z"/>
	<path fill="#FFFFFF" d="M25.9,225.6c0-0.2-2.4-4.8-2.6-4.6c0.7,1.3,1.5,2.7,2.3,4.1c0,0,0.1,0.1,0.2,0.3
		C25.8,225.5,25.9,225.6,25.9,225.6z"/>
	<path fill="#FFFFFF" d="M205.6,13.7l-1.6-0.6c-0.1,0-0.2-0.1-0.3-0.1C204,13.2,205,13.6,205.6,13.7z"/>
	<path fill="#FFFFFF" d="M80.2,20.9c-0.8,0.5-1.2,0.8-1.3,0.9C79.4,21.5,79.9,21.2,80.2,20.9z"/>
	<path fill="#FFFFFF" d="M205.7,14.4c0.7,0.3,1.6,0.8,1.7,1c1.4,0.6,2.4,0.9,3.8,1.5c-0.8-0.3-1.6-0.7-2.6-1.2
		c-0.5-0.2-0.9-0.4-1.4-0.7C206.7,14.8,206.2,14.6,205.7,14.4z"/>
	<path fill="#FFFFFF" d="M211.3,16.9c0,0-0.1,0-0.1,0L211.3,16.9z"/>
	<path fill="#FFFFFF" d="M27.5,228.3c0.3,0.4,0.5,0.7,0.8,1.1l-0.4-0.6c0.6,1,1.2,2,1.9,3c0.3,0.3,0.5,0.7,0.9,1.2
		c-0.1-0.2-0.3-0.3-0.3-0.4c0.2,0.3,0.4,0.6,0.6,0.9c1.8,2.2,6.3,7.7,7.7,9.1c0.9,1,1.9,2.1,2.9,3.1c0.5,0.5,0.9,1,1.4,1.5
		c0.4,0.5,0.8,0.9,1.2,1.3c-1.4-1.4-3-3.3-2.6-2.6c1.2,1.5,2.1,2.6,3.3,4c0.6,0.7,1.3,1.4,2.1,2.3c0.8,0.9,1.9,1.7,3.1,2.9
		c0,0-0.7-0.7-1.4-1.4c-0.4-0.3-0.7-0.7-1-0.9c-0.3-0.3-0.4-0.4-0.4-0.4c0,0,0.4,0.4,1,0.9c0.6,0.5,1.5,1.3,2.3,2
		c0.8,0.7,1.7,1.4,2.3,2c0.7,0.5,1.1,0.8,1.1,0.8c1.1,1.1,0.2,0.4-1.1-0.6c-1.2-1.1-2.9-2.6-3.4-2.9c2.5,2.3,4.9,4.5,6.8,6.3
		c0.5,0.5,1,0.9,1.4,1.3c0.5,0.4,0.9,0.7,1.4,1.1c0.9,0.7,1.6,1.2,2.3,1.6c0.2,0.5,0.5,1.4,4.2,4c-2.5-2.1,2.3,1.4,0.3-0.4
		c0.7,0.4,1.7,1.1,2.6,1.8c0.9,0.6,1.7,1.1,1.8,1.1l-0.4-0.1c1.6,1.1,2.9,2,4.1,2.8c1.2,0.8,2.2,1.2,3.1,1.7
		c1.8,0.9,3.2,1.5,4.7,2.1c2.1,1,3.8,1.9,5.5,2.8c1.6,0.8,3.1,1.4,4.6,2.1c0.7,0.3,1.4,0.7,2.1,1c0.7,0.3,1.4,0.6,2.2,0.9
		c1.5,0.6,3,1.2,4.8,1.9c0.2,0.3,2,1.4,4.9,2.3c0.7,0.2,2.7,0.6,4.6,1.1c1.9,0.4,3.7,0.9,4.1,0.8c-5.2-1.6-4.3-0.9-7.4-1.8
		c-2.5-1.2-0.1-0.4-3.6-1.7c2.7,1.3,12.8,3.7,16,4.6l-1.1-0.2c1.3,0.3,2.2,0.7,3.2,0.9c0.9,0.3,1.8,0.5,2.7,0.8c1,0.2,2,0.5,3.4,0.8
		c1.4,0.2,3.1,0.4,5.2,0.5c0,0,1,0.1,2.1,0.2c0.5,0.1,1,0.1,1.4,0.1c0.4,0,0.6,0,0.6,0c-0.2,0-0.2,0-0.3,0.1
		c3.4,0.3,4.6,0.5,5.9,0.6c1.3,0.1,2.7,0.2,6.5,0.1c-0.6,0-0.2,0-0.8,0.1c2.1,0.2,4.3,0,6.3-0.1c2-0.1,3.9-0.3,5.5-0.5
		c2,0.1-0.4,0.3-1.7,0.6c7.5-0.3,15.5-1.9,19.9-3.1c0,0,0.3,0,0.7-0.1c0.4-0.1,1-0.2,1.6-0.3c1.2-0.2,2.4-0.5,2.4-0.5
		c-2.7,0.8-6.1,1.6-5.3,1.6c2.6-0.5,2.1-0.5,5.7-1.3c-0.6,0.3-2.1,0.8-3.8,1.4c7.7-1.5,1.6-0.9,7-1.7c2.4-0.6,3.7-1.3,3.9-1.5
		c0,0,1.1-0.2,2.2-0.5c1.1-0.2,2.2-0.5,2.2-0.5c0.2-0.2,1.6-0.7,3.3-1.4c0.9-0.3,1.9-0.6,2.8-1c0.9-0.4,1.9-0.8,2.7-1.1
		c0.4-0.3-2.8,0.8-4,1.4c0.2-0.2,3.7-1.7,6-2.6c0.5,0.1,4.2-1.5,7.4-3c3.2-1.6,5.9-3,4.7-2c2.5-1.2,5-2.9,7.7-4.4
		c1.3-0.8,2.6-1.7,3.9-2.5c1.3-0.9,2.6-1.7,3.9-2.6c1.2-0.9,2.5-1.8,3.6-2.6c1.2-0.8,2.2-1.8,3.3-2.6c1-0.8,2-1.6,2.9-2.3
		c0.8-0.8,1.6-1.5,2.3-2.1c0.9-0.7,2.4-1.9,3.2-2.6c0.9-0.8,1.3-1,0.3,0.1c1.6-1.5,3-2.9,4.3-4.2c1.3-1.3,2.3-2.6,3.5-3.8
		c0.6-0.6,1.1-1.2,1.7-1.9c0.5-0.7,1.1-1.3,1.7-2c0.6-0.7,1.2-1.4,1.8-2.1c0.3-0.4,0.7-0.7,1-1.1c0.3-0.4,0.7-0.8,1-1.2
		c0.2-0.3-0.4,0.5-1,1.3c-0.7,0.8-1.4,1.6-1.2,1.6c0.5-0.6,0.9-1.1,1.3-1.6c0.4-0.5,0.9-1.1,1.3-1.6c0.9-1.1,1.8-2.2,2.7-3.3
		c0.9-1.2,1.9-2.5,2.9-3.9c0.5-0.7,1.1-1.5,1.6-2.3c0.5-0.8,1.1-1.7,1.7-2.7c-0.8,1.3-0.9,1.7-1,1.9c-0.2,0.1,1.8-3.2,3-5.2
		c0.7-1.1-0.9,1.5-0.4,0.9c4.6-7.3,7.9-14.2,10.6-21.2c0.7-1.8,1.3-3.5,2-5.3c0.6-1.8,1.2-3.6,1.8-5.5c0.6-1.8,1.1-3.8,1.6-5.7
		c0.3-1,0.6-2,0.8-3c0.2-1,0.5-2,0.7-3.1c-0.5,2.4-0.8,4-1.1,5.1c-0.2,1.1-0.2,1.6-0.1,1.6c0,0,0.3-1.2,0.7-2.3
		c0.2-0.6,0.3-1.2,0.4-1.6c0.1-0.4,0.2-0.7,0.2-0.7c0.2-1.8,1.1-5.3,1.5-8.3c0.1-0.4,0.5-1.8,0.3-0.3c0.5-2.3,0.9-4.4,1.1-6.4
		c0.2-2,0.4-3.9,0.5-5.9c0.1-2,0.1-4,0.2-6.3c0-2.3,0-4.8,0.2-7.6c0,0,0.1,3.5,0.2,7c0,1.8-0.1,3.5-0.1,4.8c0,1.3-0.1,2.2-0.1,2.2
		l0.5-3.4c0,0,0,1.6-0.1,3.1c0,0.8,0,1.6-0.1,2.1c0,0.6-0.1,1-0.1,1c0.4-1.8,0.4-3.6,0.4-4.9c0-1.3,0.1-2.2,0.2-2.5
		c0,0.8-0.2,2.7,0,2.7c0.3-3.5,0.3-3.8,0.3-6.5c0.1,1.8,0,4-0.1,6.4c-0.1,1.2-0.1,2.5-0.2,3.7c-0.1,1.3-0.3,2.6-0.4,3.9
		c-0.2,2.6-0.7,5.2-1.1,7.7c-0.4,2.4-0.9,4.6-1.3,6.5c-0.2,1.2,0.1-1,0.1-1.2c-0.3,1.5-0.6,2.7-1,3.9c-0.4,1.3-0.8,2.6-1.3,4.5
		c-0.4,2.4,0.7-1.7,1.2-3.5c0.1,0.3-0.2,1.2-0.7,3.2c-0.3,0.4-3.5,11-5,13.4c-0.5,1.3-0.9,2.3-1.1,3c-0.3,0.7-0.4,1.1-0.5,1.4
		c-0.2,0.5,0,0.3,0.2,0.1c0.3-0.4,0.7-0.8-1.7,4.2c0,0-0.4,0.7-0.8,1.4c-0.4,0.7-0.9,1.4-0.9,1.4c-2.5,5.9-6.7,13.1-10.8,19l0.9-1.2
		c0.5-0.9-0.6,0.4-1,1c-1.6,2.2-3.1,4.3-4.5,6.2c-1.4,1.8-2.6,3.5-3.9,4.6c-3.7,5.1-10.8,12.6-16.2,17.3c-0.9,0.5,0.9-1.1,3-3.1
		c2.1-2.1,4.6-4.5,5.6-5.7c0,0-0.3,0.3-0.7,0.7c-0.4,0.4-1,1-1.6,1.5c-1.2,1.1-2.3,2.2-2.3,2.2c2.9-2.8,4-3.9,5.4-5.9
		c-1.9,2.1-3.3,3.3-4.6,4.7c-0.6,0.7-1.3,1.3-2,2.1c-0.7,0.7-1.6,1.5-2.6,2.4c0.2-0.4-0.3,0.1-2.2,1.7l-0.4,0.7c0,0-0.3,0.2-0.9,0.6
		c0,0-1.9,1.5-3.7,3c-0.9,0.8-1.9,1.5-2.6,2c-0.7,0.5-1.2,0.9-1.2,0.9c1.7-1.1,2-0.9,3.9-2.5c-0.8,0.4,0.8-0.9,2.8-2.4
		c-1.6,1.5,2-1.4,2-1.3c-2,1.5-4.1,3.3-6.2,4.8c-2.1,1.5-4,2.9-5.3,3.9l-1,0.4c-2,1.2-4,2.6-6,3.8c-1.9,1.1-3.7,2.2-5.1,2.9l0.8-0.6
		c-1.2,0.7-2.5,1.3-3.8,2c-1.2,0.6-2.5,1.3-3.7,1.9c-2.5,1.1-4.9,2.2-7.3,3.1c-1.2,0.5-2.4,1.1-3.6,1.7c-1.3,0.6-2.5,1.2-3.8,1.6
		c-1.3,0.5-2.5,1-3.7,1.5c-0.6,0.2-1.2,0.5-1.7,0.7c-0.5,0.2-1.1,0.4-1.6,0.6c-0.5,0.2-1.7,0.6-3.2,1c-0.8,0.2-1.6,0.5-2.6,0.7
		c-0.9,0.2-1.9,0.4-3,0.6c-4.1,1-8.6,1.6-11.4,2.3c-0.4,0.1,3.9-0.9,5.8-1.4c-1.9,0.3-3.6,0.7-4.9,1c-1.4,0.3-2.4,0.4-3,0.3
		c1.1-0.1,1.9-0.2,2.4-0.3c0.6-0.1,0.9-0.2,1.1-0.2c0.4-0.1,0.2-0.1-0.2-0.1c-0.7,0-2,0.1-0.1-0.2c-2,0.3-4,0.6-5.8,0.8
		c-0.9,0.1-1.7,0.3-2.4,0.4c-0.7,0.1-1.4,0.2-1.8,0.2c1.6-0.1,2.3-0.2,2.5-0.2c0.2,0-0.1,0.1-0.4,0.2c-0.6,0.2-1.1,0.3,2.2-0.2
		c-2.5,0.5-5.5,0.8-8.6,1.1c-1.6,0.2-3.2,0.2-4.8,0.2c-1.6,0-3.2,0.1-4.7,0.1c0.1-0.1-0.7-0.2-2.9-0.3l-1.8,0.2
		c-2.8-0.1,5.5-0.1-0.2-0.3c-0.7,0-1.6,0-2.5,0c-0.9-0.1-1.8-0.1-2.8-0.2c-2-0.2-4.1-0.2-6.1-0.6c-2-0.3-3.9-0.5-5.4-0.6
		c-1.6-0.2-2.8-0.3-3.4-0.3c-2.2-0.5-0.1-0.2,1.8,0c0.9,0.1,1.8,0.2,2,0.2c0.2,0-0.2-0.1-1.9-0.5c2,0.2,4.3,0.5,6.3,0.7
		c1,0.1,1.9,0.2,2.7,0.3c0.8,0,1.3,0,1.7,0c-1.9-0.1-2.3-0.2-2.4-0.3c-0.2-0.1-0.2-0.2-1.4-0.4l-4.3-0.3l0.9,0.1
		c-1.8-0.1-3.8-0.4-6-0.8c-1.1-0.2-2.2-0.4-3.4-0.6c-1.2-0.3-2.3-0.5-3.5-0.8c-1.2-0.3-2.4-0.6-3.6-0.8c-1.2-0.3-2.4-0.7-3.6-1
		c-1.2-0.3-2.4-0.7-3.5-1c-1.1-0.4-2.3-0.8-3.4-1.1c-7.5-2.2-12.7-3.8-21-8.1c1.3,0.5-0.4-0.4-1.8-1.1c-0.7-0.4-1.2-0.8-1.3-0.9
		c-0.1-0.1,0.3,0.1,1.7,0.7c-1.9-1.1-3.7-2.2-5.1-2.9c-1.4-0.8-2.4-1.2-2.5-1.2c3.2,2,1.1,0.7,3.9,2.4c-1-0.5-2.6-1.3-4.1-2.2
		c-1.5-1-3-1.9-3.8-2.5c0.8,0.5,0.5,0.3,0.7,0.4c-3.8-2.6-1.9-1-4.7-2.9c-0.4-0.4-1.8-1.5-3.5-2.7c-1.6-1.3-3.4-2.7-4.6-3.7
		c0,0-0.2-0.2-0.6-0.4c-0.3-0.2-0.8-0.5-1.2-0.9c-0.9-0.6-1.8-1.3-1.8-1.3c2,1.4-3.1-2.8-3.5-3.4c-2.3-2.1-4.5-3.6-7.7-7.1
		c1.4,1.3-2.9-3.3-2.7-3.5c-1.3-1.6-2.5-3-3.7-4.3c-1.1-1.3-2.2-2.6-3.3-3.9c-1.1-1.2-2.1-2.6-3.1-3.9c-1-1.4-2.1-2.8-3.1-4.5
		c0.2,0.2,1.1,1.4,0-0.5c-1-1.5-2.7-4.1-3.7-5.7l0,0c0,0,0-0.1-0.1-0.1c-0.5-0.8-0.8-1.3-0.9-1.3c-0.9-1.4-1.6-2.4-2.5-3.7
		c-0.8-1.4-1.9-3.2-3.4-6c0,0.5,2.5,5.4,3.8,7.4l1.2,1.6c0.3,0.9,1.1,2.2,1.8,3.4c0.8,1.2,1.6,2.2,1.9,2.9c-0.6-0.8-1.5-1.9-2.4-3.3
		c-0.9-1.4-1.9-3.1-3-4.9c-2-3.6-4.1-7.5-5.5-10.6c1.2,3.9,5.3,11.9,9.5,18.5c0,0-0.4-0.7-0.9-1.5c-0.2-0.4-0.4-0.7-0.6-1
		c-0.1-0.3-0.2-0.5-0.2-0.5s0.1,0.2,0.3,0.5c0.2,0.3,0.5,0.8,0.7,1.2c0.5,0.9,1.1,1.7,1.1,1.7s-0.5-0.9-0.9-1.7
		c-0.5-0.9-0.9-1.7-0.9-1.8c0.9,1.7,2,3.1,2.9,4.6c0.5,0.7,0.9,1.5,1.4,2.2c0.5,0.7,1,1.4,1.5,2.1c-0.6-0.8-1.1-1.5-1.4-2.1
		c-0.3-0.6-0.6-1-0.7-1.3c-0.3-0.6-0.1-0.5,0.5,0.5c2.3,3.9,2.8,3.8,4.8,6.6c-1.1-1.6-2.5-3.6-1.5-2.4c1.8,2.9,3.2,4.5,4.4,6.2
		c1.2,1.7,2.5,3.2,4.4,5.7c-0.1-0.5,1.1,1.1,2.6,2.6c1.5,1.6,3.1,3.3,3.5,3.5l-2-2.1c0,0,1.1,1.1,2.2,2.1c0.5,0.5,1.1,1,1.6,1.4
		c0.4,0.4,0.7,0.6,0.7,0.6c3.8,4.1-3.9-3.2,2.2,2.9c5.9,5.3,6,4.8,10.9,8.6c-0.9-0.5-2.3-1.5-4-2.7c-1.7-1.3-3.6-2.9-5.5-4.5
		l2.2,2.1c-0.3-0.2-0.9-0.7-1.6-1.3c-0.7-0.6-1.6-1.3-2.4-2.2c-1.7-1.6-3.6-3.4-4.8-4.7c0.5,0.5,0.9,0.8,1.1,1
		c0.2,0.2,0.3,0.3,0.4,0.3c0,0-0.4-0.4-1-1.1c-1.2-1.2-3.1-3.2-3.9-4.3c-0.5-0.2,2,2.5-1.1-0.6c1.4,1.5,2.2,2.3,3.1,3.3
		c0.9,0.9,1.8,2,3.7,3.8c-2-1.9-3.4-3.4-4.6-4.5c-1.2-1.1-2.1-1.9-2.9-2.7c-0.8-0.8-1.7-1.6-2.7-2.7c-0.5-0.5-1-1.1-1.7-1.8
		c-0.6-0.7-1.2-1.6-2-2.5c2.9,3.5-0.7-1.5-0.9-2c-0.3-0.4-0.8-0.9-1.2-1.5c-0.4-0.6-0.9-1.2-1.4-1.9c-0.9-1.3-1.8-2.5-2.4-3.2
		l0.6,1.5c-1.8-2.3-2.6-4-3.6-5.8c-0.5-0.9-1-1.8-1.6-2.8c-0.6-1-1.3-2.2-2.2-3.6c-0.6-0.6,2.8,5.1,2.2,4.1c-2.4-3.8-3.9-6.5-5-9.2
		c-0.6-1.3-1.2-2.7-1.8-4.1c-0.6-1.5-1.2-3.1-1.9-4.9c-0.3-0.4-0.5-0.2-1.7-2.7c0.5,0.7-0.2-1.2,1.2,1.6c-0.9-2.5-2.2-5.4-3.2-7.6
		c0.9,2.6,0.7,2.1,0.1,0.8c-0.6-1.3-1.3-3.4-1.6-3.8c-0.9-2.7,0.5,0.8,1.1,2.4c-0.7-2.2-1.3-4.9-2-6.1c0.1-0.1,0.8,1.4,1.6,3.4
		c0.4,1,0.8,2.1,1.3,3.3c0.5,1.1,0.9,2.2,1.4,3.2l-1-2.7c0.8,1.8,0.9,2.2,2,4.8c-0.9-2.7-0.6-2.5-0.2-1.9c0.1,0.4-0.1-0.2,0,0.2
		c0.8,2.2,1.5,3.8,1.4,3.2c0.6,0.9,0.2,0.1-0.2-1c-0.4-1.2-1-2.7-1.3-3.5c-0.4-1.1-0.9-2.2-1.3-3.2c0,0-1.2-2.7-2.4-5.5
		c-0.6-1.4-1.1-2.8-1.5-3.8c-0.4-1.1-0.7-1.8-0.7-1.8c-0.8-2.4-1.1-4.3-1.4-5.9c-0.3-1.7-0.6-3.2-0.8-5.1l-0.4-1
		c-0.4-2.2-0.8-4.3-0.8-5.6c-0.1-1.2,0-1.6,0.3-0.2c-0.1,0.2,0,0.8,0.2,1.7c0.1,0.1,0.1,0.3,0.2,0.6c0,0.1,0.1,0.1,0.1,0.2
		c-0.2-1.2-0.4-2.2-0.5-3.2c-0.1-0.9-0.3-1.8-0.4-2.4C2.1,166.9,2,166.1,2,166c1.4,7.9,0.5,0.3,1.2,1.6c0,0-0.1-0.5-0.2-1.3
		c-0.1-0.8-0.3-1.8-0.3-2.8c-0.2-2-0.4-4-0.4-4c0.2,4.9-0.2,0.1-0.4-1.6c0.1-0.2,0.1-1.9,0-3.8c-0.1-1.9-0.2-4.2-0.1-5.6l0,0.2
		c0.2-2.6,0.2-7.2,0.5-10.5c-0.1,0.1-0.3-4.1-0.2-6.2c-0.4,2.8-0.5,3.4-0.5,3.3c-0.1-0.1-0.1-0.8-0.2-0.6c0-0.6,0.2-1.6,0.2-1.8
		c0-0.8-0.2,1.1-0.3,1.2c-0.2,3-0.4,6.1-0.4,8.7c0,2.6,0,4.8,0.2,6c0.2-1.8-0.1-3.2,0.1-5.2c0.1,1.5,0.1,3.2,0.1,5.2
		c0,2,0.1,4.2,0.1,6.7L1,157.2l0.5,5c-0.2-2.1-0.5-0.8-0.8-6.1c-0.3,0.7,0.4,5.2,0.6,8.5c0,0,0.1,0.4,0.2,0.8
		c0.1,0.4,0.2,0.8,0.2,0.8c-0.2-0.6,0.6,6.3-0.2,1.4c0,0-0.1-0.5-0.2-1.2c-0.1-0.7-0.3-1.7-0.4-2.7c-0.2-2-0.4-4-0.4-4l0,2.2
		c0,0-0.1-1.7-0.3-3.4c-0.1-0.8-0.1-1.7-0.1-2.3c0-0.6,0-1.1,0-1.1l0.2,1.6c-0.4-10.9,0.3-3.2,0.2-14.2c-0.1-1.7,0-3.5,0.1-5.7
		c0.1-2.2,0.5-4.8,0.9-8.1c-0.5,4.9,0.2,0.5,0.2,2.4c0.7-4.9,0.8-6.6,1.1-9.2c0.4-1.2,0.7-2.1-0.1,2.3c0.3,0.6,0.9-5.8,1.5-6.1
		c0.8-3.6,1.3-6.1,1.8-8.1c0.5-2,0.7-3.5,1.1-5.2c0.4-1.6,0.8-3.2,1.6-5.5c0.3-1.1,0.8-2.4,1.4-3.9c0.6-1.5,1.3-3.2,2.2-5.1
		l-0.1,0.7c1.1-2.5,2-4.8,3-6.8c1-2,2-3.9,3-5.8c1-1.8,2.1-3.6,3.2-5.5c1.1-1.9,2.4-3.8,3.7-6c0,0,0.3-0.4,0.7-1
		c0.5-0.6,1.1-1.4,1.7-2.2c1.2-1.6,2.5-3.1,2.5-3.1c-1,1.5-3.5,5.6-2,3.9c-1.3,1.4-2.4,3.1-3.6,4.8c-0.6,0.8-1.1,1.7-1.7,2.6
		c-0.6,0.9-1.1,1.7-1.7,2.6c-0.1,0.4,0.8-1,1.2-1.6c-1.2,2.2-2.1,3.2-3.6,6.1c0.1-0.1,2-3.2,0.7-0.8c0,0-0.2,0.2-0.4,0.6
		c-0.2,0.4-0.5,0.9-0.8,1.3c-0.6,1-1.1,2-1.1,2c-0.7,1.4-1,2.2-1.3,2.8c-0.2,0.6-0.3,1-0.5,1.5c-0.2,0.8-0.6,1.8-2.1,5
		c0.3-1.3,1.1-3.9,2.2-6.4c-0.7,1.5-0.3,0.5,0.2-0.6c0.5-1,0.9-2.1,0.2-0.8c-0.9,2.2-1.5,3.8-2.4,5.5c-0.4,0.9-0.8,1.8-1.3,2.9
		c-0.4,1.1-0.9,2.3-1.4,3.8c0.2-0.7,0.2-0.9,0.8-2.3c0,0-0.9,2.1-1.7,4.2c-0.4,1-0.8,2.1-1.1,2.9c-0.3,0.8-0.5,1.3-0.5,1.3
		c0.5-1-0.1,0.8-0.7,2.7c-0.6,2-1,4.1-0.8,3.8c0.3-1.2,0.6-2.1,0.9-2.9c0.3-0.8,0.5-1.5,0.7-2.1c0.4-1.2,0.7-2,1-2.9
		c0.5-1.8,1.3-3.7,3.4-8.7c-0.5,1.5-1.1,3.1-1.6,4.7c-0.2,0.8-0.5,1.5-0.6,2.2c-0.2,0.7-0.3,1.3-0.4,1.7c0,0.1-0.1,0.2-0.2,0.5
		c-0.3,1.7,0.4,0.1,0.8,0.3c0.6-2.4,1.4-4.3,2.2-6.3c0.4-1,0.8-2.1,1.3-3.2c0.5-1.1,1-2.3,1.6-3.6c0.1-0.6-0.3,0.2-0.9,1.4
		c-0.6,1.2-1.4,2.9-1.8,4.3c0,0,0.1-0.3,0.3-0.8c0.2-0.5,0.4-1.1,0.6-1.7c0.5-1.2,1-2.4,1-2.4l-0.3,1c0,0,0.3-0.7,0.9-1.9
		c0.5-1.1,1.2-2.6,2-4c0.8-1.4,1.5-2.9,2.1-4c0.3-0.5,0.5-1,0.7-1.3c0.2-0.3,0.3-0.5,0.3-0.5c-1.2,2.2-1.4,3-1.9,4.2
		c0.8-1.5,1.6-3,2.5-4.4c-0.4,0.2-0.5-0.1,0.4-1.5c4.2-7.3,7.2-10.9,9.3-13.2c0.2-0.3,0.4-0.6,0.5-0.8c-0.5,0.5,0.2-0.8,1.4-2.4
		c1.1-1.6,2.6-3.7,3.3-4.8c0.1,0.3,3-3.2,4.7-4.9c0.6-1.2-0.9-0.2-3,1.9c-3.5,4.5-1.9,2.6-3.2,5c0,0-1.4,1.8-2.7,3.7
		c-1.3,1.9-2.5,3.8-2.5,3.8l1-1.8c-1.3,1.8-2.7,3.6-3.5,5c-0.9,1.4-1.4,2.2-1.4,2c0.6-1.1,1.4-2.5,2.3-3.8c0.9-1.3,1.8-2.6,2.4-3.7
		l-1.9,2.4c2.9-4.5,1.7-2.1,5.6-7.3c-1.7,1.7,0.3-0.5,1.9-2.8c-0.8,0.8-2.5,3.1-4,4.9c-1.5,1.8-2.5,3.3-2.1,2.4
		c0.8-1.5,2.8-3.6,4.7-5.9c0.9-1.2,2-2.3,2.9-3.3c0.9-1.1,1.8-2.1,2.4-3l-0.1,0.2c2.2-2.4,3.8-4,4.9-5.3c1.1-1.3,1.9-2.2,2.8-3.1
		c1.1-0.9,2.2-2.1,3.5-3.2c1.3-1.1,2.5-2.3,3.7-3.3l0,0.2c0,0,0.2-0.2,0.5-0.4c0.3-0.3,0.7-0.6,1.1-1c0.8-0.7,1.7-1.3,1.7-1.3
		c-0.7,0.7-1.7,1.5-2.9,2.4c-1.1,0.9-2.4,2-3.8,3.2l0.5-0.1c-1.7,1.2-2.9,2.5-4.1,3.7c-1.1,1.2-2.1,2.4-3.2,3.6
		c0.8-0.9,1.8-1.9,2.9-3c1.1-1,2.2-2.1,3.3-3.1c2.2-1.9,4-3.6,4.3-4.1c0,0,0.2-0.1,0.4-0.3c0.2-0.2,0.5-0.4,0.8-0.6
		c0.6-0.4,1.2-0.8,1.2-0.8l1.1-0.9c1.9-1.2,0.2,0.4-3,3.1c-0.6,0.4-0.9,0.7-0.8,0.5c-0.7,0.7-1.4,1.4-2.3,2.3
		c-0.5,0.4-1,0.9-1.7,1.5c-0.6,0.6-1.4,1.3-2.2,2.1l1.8-1.9c-1.1,1-2.1,2-3.1,3c-0.5,0.5-1,0.9-1.4,1.4c-0.4,0.5-0.9,0.9-1.3,1.4
		c-1.6,1.7-2.8,3.2-3.4,4c5.9-6.3,12.1-11.9,18.5-16.9c0.8-1,1.6-2,2.4-2.8c0.8-0.9,1.5-1.6,1.8-2.2c4.3-3.4,10.7-7.2,14.9-9.4
		l-0.3,0.3c1-0.6,2-1.1,2.9-1.5c0.9-0.5,1.8-0.9,2.6-1.4c2.2-1-1.4,1,0.2,0.3c0,0,0.4-0.2,1.1-0.6c0.6-0.4,1.5-0.8,2.4-1.2
		c1.8-0.8,3.5-1.7,3.5-1.7c-0.2,0.2-1.7,1-3.6,1.9c-1.9,0.9-4,2.1-5.4,2.7c0.5-0.3,1.5-0.9,1.2-0.7c-0.8,0.4-1.8,0.9-2.8,1.4
		c-1,0.5-2.1,1.2-3.1,1.8c-2,1.2-3.8,2.2-4.6,2.5c-1.5,1,2.9-2.2-2.2,1c-1.7,1-2.8,1.8-3.5,2.3c-0.7,0.6-1,0.9-1.1,1.1
		c0,0.1,1.3-0.8,2.4-1.5c1.1-0.7,2-1.2,1.1-0.5c2.6-1.7,3.5-2.6,7.1-4.4c-2.7,1.5-6,4-7.5,4.7c-1.3,0.9-2.1,1.6-2.6,2.1
		c-0.5,0.5-0.8,0.8-0.8,0.9c0,0.3,0.8-0.1,2-0.9c-0.7,0.2,9.2-6.2,2.3-2.1c1.4-1.1,3.5-2.6,5.8-3.9c1.1-0.7,2.3-1.4,3.5-2.1
		c1.1-0.7,2.3-1.3,3.3-1.9l-0.2,0.1c0,0,1.3-0.7,2.6-1.4c1.3-0.7,2.6-1.3,2.6-1.3c-0.7,0.4-2.3,1.2-2.3,1.4c0,0,0.4-0.3,1.1-0.6
		c0.7-0.3,1.6-0.8,2.5-1.3c1.8-0.9,3.6-1.8,3.6-1.8c-2,1.1-1.4,0.8,0,0.2c1.4-0.6,3.6-1.4,4.6-1.7c0.7-0.5,3.6-1.8,0.7-0.8
		c-3.2,1.1-1.8,0.8-4.7,2l4-1.9l0.4-0.1c0,0,0.6-0.3,1.2-0.6c0.3-0.2,0.6-0.3,0.8-0.4c0.2-0.1,0.4-0.2,0.4-0.2
		c5.7-1.9-2.3,1.4,4.9-1.3l-1.1,0c1.1-0.3,2.1-0.7,3.3-1c1.1-0.3,2.3-0.6,3.5-0.9c1.2-0.3,2.3-0.6,3.5-0.9c1.2-0.2,2.4-0.5,3.5-0.7
		c1.2-0.2,2.3-0.5,3.4-0.7c1.1-0.2,2.2-0.4,3.2-0.5c2.1-0.3,3.9-0.7,5.5-0.9c-0.8,0.2-1.4,0.4-1.5,0.6c-0.1,0.2,0.3,0.2,1.5,0.2
		c-1.3,0.1-3.3,0.5-5.5,0.9c-1.1,0.2-2.2,0.4-3.2,0.6c-1.1,0.3-2.1,0.5-3,0.7c-0.4,0.1,0.8-0.3,2.5-0.8c1.8-0.5,4.2-0.9,6.2-1.3
		c-1.1-0.1-3.6,0.4-6,1c-2.4,0.6-4.5,1.2-4.9,1c-10.4,2.5-7.6,2.6-16.3,5.2c0,0.3-2.4,1.1-2.7,1.5c2.6-0.7,11.4-4.1,17.1-5.4
		c-0.5,0.2-1.7,0.5-1.9,0.6c2-0.6,3.5-0.8,4.8-1.2c1.3-0.3,2.4-0.6,3.8-1L119.5,4c5-1.3,3.2-0.4,6.1-0.8c1.1-0.3,5.3-0.8,4.6-0.9
		c0,0,1.4-0.1,2.7-0.2c0.7-0.1,1.4-0.1,1.9-0.1c0.5,0,0.9,0,0.9,0l-0.3-0.3c3.1-0.3,3.8-0.1,6.5-0.5l0.1-0.3c0,0-1.9,0.1-3.8,0.2
		c-1,0.1-1.9,0.1-2.6,0.2c-0.4,0-0.7,0.1-0.9,0.1c-0.2,0-0.3,0-0.3,0c3.9-0.5,1.1-0.4,5.3-0.8c-4.7,0.7,3.4-0.1,3.9,0.2l3.1-0.2
		l-0.8,0.1c2.5,0.1,2.9-0.2,5.8-0.1c-1.7-0.2-3.1-0.1-4.6-0.2c-1.5,0-3.2,0-5.3,0.2c1.6-0.2,3.9-0.3,6.1-0.4c1.1-0.1,2.1-0.1,3-0.1
		c0.9,0,1.5,0,1.9,0c3.3,0,5.6,0.2,8.7,0.5c-3-0.2-2.5,0.1-2.7,0.2c-0.2,0.1-1.2,0.2-7.1,0c0.2,0,1.2,0,1.6,0
		c-1.6-0.5-7.1,0.1-9.7,0.3c0.7,0.2-2,0.3,2.5,0.3c-0.7,0,0.2-0.2,1.9-0.3c0.8-0.1,1.9-0.1,3-0.1c1.1,0,2.2,0.1,3.3,0.1l-0.8,0.4
		c0,0,1.6,0.1,3.1,0.1c1.6,0,3.1,0.2,3.1,0.2l-0.6,0c2.3,0.5,6.7,0.4,11,1.2C173.2,3,184.9,5.5,180,4c3.7,1.1,7.2,1.5,11.3,2.6
		c0,0-1.3-0.4-2.5-0.8c-0.6-0.2-1.3-0.4-1.7-0.5c-0.5-0.1-0.8-0.2-0.8-0.2c1.6,0.3,2.6,0.5,3.4,0.7c0.8,0.2,1.3,0.3,1.7,0.4
		c0.9,0.2,1.7,0.3,4.2,0.8c0.4,0.3,1.5,0.7,0.5,0.5c2,0.7,4.2,1.4,6.5,2.3c2.2,0.9,4.5,1.8,6.7,2.7c2.1,0.9,4.2,1.8,6,2.6
		c1.8,0.9,3.3,1.6,4.4,2.1c2.7,1.3,4.1,2.4,5.8,3.5c0.9,0.5,1.8,1.1,2.9,1.8c1.1,0.7,2.5,1.6,4.3,2.7c0.8,0.4,0.5,0.2,0.7,0.2
		c0.2,0,0.7,0.3,2.9,1.9c0.3,0.2-4.5-2.8,0.5,0.7c0.9,0.6,1.9,1.2,3,2c1,0.8,2,1.6,3.1,2.5c1,0.9,2.2,1.7,3.2,2.7
		c1.1,0.9,2.2,1.9,3.3,2.7c1.1,1,2.6,2.4,3.7,3.5c1.1,1.1,1.8,1.8,1.3,1.6c-3.3-3.4-8.5-7.7-9.4-8.3c0.6,0.3-2.6-2.2,0.3-0.1
		c-2.8-2.3-3.7-3-4.6-3.6c-0.9-0.6-1.7-1.2-4.3-3.1c-0.4-0.2,2.5,2.1,3.7,2.9c-0.1,0.1-2.7-1.7-4.7-3.1c-2-1.4-3.5-2.3-1.3-0.5
		c5.6,4,7.7,4.6,12.1,8.7c-1-0.7-2.2-1.6-3.5-2.6c-1.3-1-2.6-2-4-2.7c0,0,0.2,0.2,0.6,0.5c0.4,0.3,0.8,0.7,1.3,1.1
		c0.9,0.8,1.9,1.6,1.9,1.6s0.7,0.5,1.5,1c0.7,0.5,1.5,1,1.5,1l-0.2-0.1c3.1,3,4.8,4.1,6.2,5.4c0.7,0.6,1.5,1.2,2.4,1.9
		c0.9,0.7,2,1.6,3.4,3c-2.9-3.4,1.2,0.3-1.1-2.2c1.8,1.8,3.4,3.5,4.5,4.7c1.1,1.2,1.6,2,1.5,2.2c-0.8-0.9-1.5-1.6-2-2
		c-0.5-0.5-0.9-0.8-1.1-1c-0.5-0.4-0.6-0.4-0.6-0.4c-0.1,0.1-0.1,0.1-3.4-2.9c0.5,0.6,0,0.3-0.1,0.3c-0.1,0.1,0.1,0.4,1.9,2.4
		c4.3,4.2-1-1.5,3.2,2.7c0.2,0.3,0.4,0.6,0.3,0.5c2,2,2.1,2.5,4.4,4.9l-0.6-0.6c1.3,1.6,2,2.5,2.7,3.3c0.7,0.8,1.4,1.5,2.3,3
		c-0.3-0.6,0.1-0.2,0.7,0.6c0.6,0.8,1.5,2,2.2,2.9c-2-3-2.8-4.8-7.3-10.3c-0.7-0.5-0.5,0-2.5-2.2l3,3.5c-0.7-0.7-1.2-1.3-1.8-1.9
		l-2.8-3.4c3.8,4.1,2.3,2,4,3.7c0.8,1,1.4,1.7,1.8,2.2c0.4,0.5,0.7,0.9,1,1.2c0.5,0.6,0.9,1.1,1.9,2.4c-0.3-0.1,5.4,8.3,8.3,13.5
		c-0.5-0.8-1.1-1.8-1.5-2.3c-2.5-3.5,1.4,2.6,1.4,2.8L279,76c-0.3-0.5-0.8-1.2-0.2,0c2.2,3.6,2.3,3.3,4.3,7c0,0.4-1.9-2.7-0.8-0.3
		c0.1,0.4,0.4,1.3,1.1,2.7c0.6,1.4,1.4,3.4,2.6,5.9c0.2,0.3,0.8,1.7,1.5,3.2c-0.1-0.2-0.2-0.5-0.3-0.6l1.2,3.5
		c-0.7-1.4-1.3-2.9-1.8-4.4c-0.6-1.5-1.2-3-2-4.3l-0.4-0.1c-1-2.3-2.6-5.2-3.5-6.5c0.8,1.7,1.4,2.7,1.9,3.7c0.5,1.1,1.1,2.2,2,4.1
		c0.1,0.6-1.3-2-1.5-2.4l0.4,0.5c-0.9-2.3-1.9-3.9-2.9-5.7c-0.5-0.9-1-1.8-1.6-2.8c-0.6-1-1.3-2.1-2.1-3.5c-0.5-0.8-0.2-0.3,0-0.2
		c-2.8-4.2-5.2-8.5-8.3-12.3l1,1.2c-0.5-0.7-1.1-1.5-1.9-2.4c-0.7-0.9-1.6-1.9-2.5-3c-1.8-2.2-4.1-4.6-6.3-6.9l-0.1,0
		c0.2,0.3-0.1,0-0.5-0.5c-0.5-0.5-1.1-1.2-1.5-1.7l0,0c-1.2-1.1-2.3-2.2-3.4-3.3c-1.1-1-2.2-1.9-3.1-2.8c0.5,0.6,1.3,1.4,2.1,2.2
		c0.8,0.6,4.8,5,4.5,4.2c0.9,1,2.1,2.4,3.2,3.6c1.1,1.3,2.2,2.4,2.8,3.3c-1.1-1.5-0.6-1,0.2-0.2c0.8,0.9,1.9,2.2,2.2,2.4
		c0.3,0.5,1.2,1.6,1.9,2.5c0.7,0.9,1.2,1.7,1,1.6c0.4,0.6-0.9-1.6-2-2.7c-1.3-1.4-0.2,0,0.7,1.3c0.9,1.4,1.8,2.6,0.3,0.7
		c3.8,4.8,8,11.6,11.3,17l-1.7-3.1c1.5,2.4,4.5,8.3,4.6,8.8c-1-1.8-2-4-3.4-6.3c-0.2,0,2.9,5.7,2.9,6c0,0,0.2,0.4,0.6,1
		c0.3,0.6,0.8,1.5,1.2,2.3c0.9,1.7,1.8,3.4,1.8,3.4l-1.4-3.1c1.1,1.9,3.7,8.4,5.3,13.5c-0.7-1.4-1.3-3.2-2.1-5.4
		c-0.8-2.1-1.7-4.6-2.9-7.1c-1.8-3.6,0.7,2.4-1-1c0.3,0.9,1.4,3.2,1.9,4.2l0.5,1.4c-0.7-1.5-2-4-3.2-6.6c-0.6-1.3-1.3-2.7-2-3.9
		c-0.7-1.3-1.4-2.5-2-3.6c0.2,0.4,0.4,0.7,0.5,0.8c-0.8-1.7-1.8-3.4-2.8-5.1c-0.9-1.7-2-3.3-3.1-4.8c1,1.7,1.5,2.3,2.1,3.3
		c0,0.1-1.9-2.8-2.7-3.9c1.8,3,0.2,0.7,1.3,2.5c-0.6-0.9-1.2-1.8-1.8-2.7c-0.6-0.9-1.2-1.9-2-3c-0.7-1.2,0.8,0.9,0.8,0.5
		c-0.9-1.1-1.4-2-2.1-3c-0.7-1-1.4-2.2-2.8-3.8c3.4,4.4-1.2-0.9-2.5-2.4l0.6,0.7c-0.6-0.6-1.2-1.2-1.6-1.8c-0.5-0.6-0.9-1.1-1.2-1.6
		c1.6,1.6,2.8,3.5,2.6,2.8c-0.9-1.2-1.9-2.3-3.1-3.6l1.1,1.1c0,0-1.2-1.4-2.5-2.8c-1.2-1.4-2.5-2.7-2.5-2.7c-0.9-0.7-2.5-2-3.4-2.5
		c-1.1-1.4-3.1-3-4.3-4.1l0.6,0.5c-0.6-0.6-1.3-1.4-2.2-2.1c-0.9-0.8-1.8-1.6-2.7-2.3c-0.9-0.7-1.7-1.4-2.4-1.9
		c-0.7-0.5-1.1-0.8-1.3-0.9c-0.4-0.4,0.2,0,1.2,0.7c1,0.7,2.3,1.7,3.2,2.4c1,0.7,1.6,1.1,1.2,0.7c-0.2-0.2-0.7-0.7-1.5-1.4
		c-0.8-0.7-1.9-1.8-3.6-3c-5-3.9-3.4-2.1-6.4-4c0,0,0.2,0.1-0.1-0.2c-2.2-1.6-2.5-1.7-4.5-2.8c1.3,1,3.3,2.4,3.9,2.8
		c-0.4-0.2-1.6-1-2.9-1.9c-1.3-0.9-2.8-1.8-3.7-2.3c2.5,1.2-4.4-3-2.5-2c-2.3-1.4-4.8-2.9-7-4c-2.3-1.1-4.3-2-5.6-2.5
		c-1.6-1-3.1-1.6-4.9-2.4c-1.8-0.8-3.9-1.4-6.6-2.7c0.9,0.4,2.4,0.9,3.6,1.4c3.3,1-5.8-2.4-0.7-0.7c-1.1-0.4-0.1,0.1,1,0.5
		c1.9,0.7,3.7,1.4,3.3,1.1c0,0-0.3-0.1-0.7-0.4c-0.4-0.2-1-0.5-1.5-0.7c-1.1-0.5-2.3-1-2.3-1L205,16c0,0-1.7-0.8-3.4-1.5
		c-0.9-0.4-1.7-0.8-2.4-1c-0.7-0.3-1.1-0.4-1.1-0.4c-0.2,0,0.4,0.3,0.8,0.4c-8.1-3.1-17.9-5.4-25.4-6.5c-0.2,0.1-0.6,0.1-1.2,0
		c-0.6,0-1.4-0.1-2.4-0.2c-1.9-0.1-4.4-0.5-7-0.6c-2.6-0.2-5.4-0.4-7.9-0.4c-2.5,0-4.7-0.1-6.3,0.1c1.6-0.3,2.5-0.6,1.5-0.8
		c1.4,0,4.2-0.2,7.3-0.1c0.5,0.1,4.3,0.6,1.8,0.5c8.6,0.6-1.1-0.4,1.4-0.5c-1.2-0.1-2.3-0.2-3.4-0.2c-1.1,0-2.1,0-3.1,0
		c-2,0-3.8,0-5.4,0.1c-1.7,0.1-3.2,0.2-4.8,0.3c-1.5,0.1-3,0.3-4.5,0.5l-0.2-0.1c0,0-1.1,0.1-2.3,0.3c-0.6,0.1-1.1,0.1-1.6,0.2
		c-0.4,0.1-0.7,0.1-0.7,0.1c1.8-0.2,2.7-0.1,2.6,0c-0.2,0.1-1.4,0.2-3.8,0.5l0.6-0.1c-1.4,0.1-3.4,0.4-5.7,0.7
		c-2.2,0.4-4.7,0.9-6.8,1.3c0,0-0.2,0-0.4,0.1c-0.3,0.1-0.6,0.2-0.9,0.3c-0.7,0.2-1.4,0.4-1.4,0.4c-4.1,0.9-4.4,0.5-5.8,0.6
		c-3.2,0.9-5.8,1.6-8,2.6c-2.2,0.9-4.2,1.7-6.4,2.7c-0.5,0.2-1.5,0.5-2.6,0.9c-1.1,0.4-2.3,0.8-3.3,1.3c-1.9,0.8-3.1,1.2-0.7,0
		c-2.7,1.3-3.7,2.1-5.1,3.1c-0.7,0.5-1.6,1-2.8,1.7c-0.6,0.3-1.4,0.7-2.2,1.1c-0.9,0.4-1.8,0.9-3,1.5l2.2-1.5
		c-4.3,2.4-9.4,5.6-13.6,8.8c-1.1,0.8-2.1,1.5-3.1,2.3c-1,0.8-1.9,1.5-2.7,2.1c-1.7,1.3-3,2.3-3.9,3.1c1.2-1.5-1.3,0.4-4.3,2.8
		c-2.9,2.4-6.2,5.4-7,5.8c0.4-0.2-2.1,2.5-2.4,2.9c-0.3,0.3-0.7,0.6-1.2,1.1c-0.4,0.5-0.9,1-1.3,1.6c1.3-1.4,1-0.8,0.9-0.5
		c0,0.3,0.1,0.1,2.5-2.6c-1.1,1.5-2.4,3.2-4,5.4c-1.7,2.1-3.6,4.7-6.1,7.9l-0.2-0.3l4-5c-0.6,0.4,1.6-2.2,2.4-3.2
		c-1,1.1-1.7,1.9-2.3,2.5c-0.5,0.6-0.9,1-1.1,1.2c-0.4,0.4-0.4,0.2-0.3,0.1c0.1-0.4,0.2-0.7-3.6,4.2c-0.5,1.1-0.2,0.4-2,3.1
		c0.9-1.2,0.9-1.6-0.5,0.4l-1.2,2c-1.3,1.7-0.5,0.1,0.6-1.4c1-1.6,2.1-3.2,0.9-1.8c0.7-1,1.4-2.2,2.2-3.4c0.8-1.2,1.7-2.3,2.4-3.3
		c1.4-2,2.5-3.4,1.8-2.9c-2.6,3-3.5,4.5-4.5,6c-1,1.5-1.9,3.2-4.3,6.4l-0.6,0.6c-1.5,2.5-1.5,3-2.2,4.4c-0.1,0.1-0.6,0.6-1.5,2.2
		c-1,2.2-2,4-2.8,5.8c-0.8,1.8-1.6,3.6-2.4,5.6c1.3-2.7,2.2-4.6,3-6.1c0.8-1.5,1.5-2.6,2.2-3.7c1.3-2.2,2.8-4.4,6-9.6
		c-1,1.6-5.5,8.9-5.4,9.6l-0.2-0.2c-1.9,3.5-3.6,7.1-5.8,11.5c0,0,0.3-0.7,0.6-1.4c0.3-0.7,0.6-1.4,0.6-1.4
		c-0.7,1.5-1.3,2.9-1.9,4.1c-0.6,1.3-1.2,2.5-1.7,3.6c-1,2.4-2,4.6-2.6,7.1c0.6-1.7,1.2-3.1,1.6-4.2c-1.2,3.2-2.5,7.2-3.7,10.7
		c0,0-0.4,1.9-0.8,3.7c-0.2,0.9-0.4,1.9-0.6,2.6c-0.1,0.7-0.2,1.2-0.2,1.2c-0.1-0.1-1.2,4.6-0.9,2.3c-0.4,1.3-0.6,2.5-0.9,3.5
		c-0.2,1-0.3,2-0.4,2.8c-0.2,1.7-0.4,3.2-0.6,4.7c-0.5,2.8-0.4,1.6-0.2-0.4c0.3-2,0.7-4.7,0.6-5c-0.4,1.9-0.8,3.8-1,5.7
		c-0.2,1.9-0.5,3.8-0.7,5.6c-0.2,1.8-0.2,3.5-0.3,5c-0.1,1.5-0.2,2.8-0.1,3.9c0.1-1.6,0.3-2.3,0.3-2.3c0,0.1-0.2,0.9-0.2,2
		c0,1-0.1,2.2-0.1,3.1l0.2,1.2c-0.2,2.9-0.3,2.5-0.4,0c-0.2,2.8,0.4,6.1,0.1,8.9c-0.1-2.4-0.3-5.1-0.2-7.5c0.1-2.4,0.1-4.5,0.1-5.8
		c0,2.5-0.1,4.3-0.2,5.9c-0.1,1.6-0.1,2.9-0.1,4.3c0,1.4-0.1,2.9,0,4.8c0.1,1.9,0.2,4.3,0.6,7.4c-0.1,0.2-0.5-1.9-0.2,0.5
		c0.8,5.6,0.6,1.4,1,3.1c-0.3-2.1-0.6-3.7-0.6-5c-0.1-1.4-0.1-2.5,0-3.7l0.2,1.1c-0.1,0.2,0.1,2.9,0.2,3.7l0.4,0.7
		c-0.2-0.1-0.2,0.9-0.1,2.3c0.1,1.5,0.2,3.4,0.7,5.1c-0.2-1.7-0.2-2.3-0.2-2.7c0-0.3,0.1-0.3,0.3-0.8c0.4,2.3,0.7,3.7,0.8,5.1
		c0.1,0.7,0.2,1.4,0.3,2.3c0.1,0.9,0.3,1.9,0.8,3.2c-0.2-0.4-1.2-4.9-0.5-1c0.7,3.3,0.9,2.8,1.5,4.9c-0.8-2.4-0.9-1.7-1.8-4.3
		c-1.2-5.8-0.5-2.4-1.6-8.1l0.6,4.9c-0.9-5-1-3.6-1.1-4c1.2,8.6,1.6,6.3,2.7,11.8c0.8,2.6-1.1-5.1,0-1c0.6,2.5,0.7,2.8,0.9,3.2
		c0.2,0.3,0.4,0.8,1.2,3.5l-0.4-0.9c0.3,1.8,1,3.4,1.7,5.3c0.4,1.1,0.4,0.4,0.7,0.5c0.1,0.1,0.4,0.4,0.7,1.2
		c0.2,0.4,0.4,0.9,0.7,1.7c0.3,0.7,0.6,1.6,1,2.7c-0.2-0.4-0.3-0.5-0.4-0.5c0,0-0.4-0.5-0.8-1.2c-0.5-0.7-1.1-1.7-1.8-2.7
		c-0.6-1-1.3-2-1.8-2.7c-0.2-0.4-0.4-0.7-0.6-0.9c-0.1-0.2-0.2-0.3-0.2-0.3c0.7,2.3,1.5,4.6,2.3,7c0.9,2.4,1.9,4.8,2.8,7.3
		c1.1,2.4,2.1,4.9,3.3,7.4c0.6,1.2,1.2,2.4,1.8,3.7l0.9,1.8l1,1.8c0.5,1.2-0.6-0.4-1.7-2.3c-1.1-1.9-2.2-4.1-2.2-3.8
		c0,0-0.1-0.3-0.3-0.7c-0.2-0.4-0.5-1-0.7-1.6c-0.5-1.2-1-2.3-1-2.3c0.2,0.1,1.2,2.5,2.2,4.3c1,1.8,1.7,3,0.8,0.9
		c-4.1-7.9-5.4-11.7-8.5-19.6c0.2,1.3,1.1,4,2.3,6.9c0.6,1.5,1.2,3,1.8,4.5c0.7,1.5,1.3,2.9,1.8,4.2c-0.9-2.1-1.8-3.9-2.6-5.6
		c1,2.4,2.1,4.8,3.2,7.4c0.6,1.2,1.2,2.5,1.9,3.8c0.6,1.3,1.3,2.6,2,3.9l0.8,1.1c-0.5-0.9-0.9-1.7-1.3-2.4c-0.4-0.7-0.7-1.4-1-1.9
		c-0.5-1.1-0.9-1.8-1-2c0.6,1.2,1.2,2.3,1.7,3.3c0.6,1,1.2,1.9,1.6,2.7c1,1.5,1.7,2.5,1.9,2.5l-0.5-0.8l1,1.6
		C26.2,226.2,26.9,227.2,27.5,228.3z M292.2,184.7c0,0.3-0.1,0.6-0.1,0.8C292.1,185.2,292,185.4,292.2,184.7z M4.8,129.9
		c-1.1,7-1.4,14.1-1.5,20.9c0.1-3.1,0.4-5.9,0.6-8.1c0.3-2.2,0.5-3.8,0.7-4.3c0.1-0.6,0.2-0.1,0.1,1.8c-0.1,1.9-0.2,5.1-0.2,10.2
		l0.1,1.3c0-0.7,0-1.4,0-2.3c0-0.9,0.1-1.8,0.1-2.8c0.1-2,0-4.2,0.2-6.4c0-1.7-0.1-5.4,0.2-8.7c0.1-1.6,0.1-3.1,0.2-4.2
		c0.1-1.1,0.2-1.8,0.1-1.8c-0.2,0.6-0.4,1.3-0.4,2.2c-0.1,0.9-0.2,1.9-0.4,3L4.8,129.9z M6.6,125.1c0.8-3.9,0.5-3,0.4-3.7
		c-0.2,1.4-0.5,2.8-0.7,4.1C6.5,125,6.6,124.8,6.6,125.1z M6.9,121.6c-0.1,0.4-0.2,0.8-0.2,1L6.9,121.6z M12.2,197.9
		c-0.1-0.2-0.1-0.2-0.1-0.4c0.3,0.9,0.6,1.8,0.9,2.7C12.8,199.9,12.6,199.2,12.2,197.9z M10,190.1l-0.5-0.8c0.2,0.8,0.5,1.7,0.7,2.6
		C10.3,191.6,10.3,191.2,10,190.1z M5.9,164.7c-0.4-1.6-0.8-7-1.2-7.3c-0.1-0.3-0.1,0.8,0,2.1c0.1,1.4,0.2,3,0.3,4.6
		c0.1,0.1,0.1,0.4,0.2,0.9c-0.1-1.6-0.1-2.7,0.2-2.1c-0.1,2.1,0.2,3,0.4,3.9c0.2,0.9,0.5,1.9,0.8,4.1C7,172.3,6.2,166,5.9,164.7z
		 M242.5,36.2c0.1,0.1,0.4,0.4,0.8,0.9l-2.6-1.8c-1.1-0.9-2.1-1.7-3.1-2.6c-1-0.8-2-1.5-3-2.3c-1-0.7-1.9-1.5-3-2.1
		c-1-0.7-2.1-1.3-3.2-1.9c-1-0.7-1.7-1.2-2.3-1.7c-0.6-0.5-1.1-0.9-1.6-1.2c1,0.6,1.9,1.1,2.7,1.7c6.2,3.5,7.5,4.9,8.7,5.9
		c0.6,0.5,1.1,1,2,1.7C238.8,33.4,240.2,34.5,242.5,36.2z M185.1,7.1c0.6,0.1,0.8,0.1,0.8,0.1c-12.4-2.4-22.8-3.1-29.5-3.4
		c0.3,0.1,0.9,0.1,1.7,0.2c0.8,0.1,1.8,0.2,2.8,0.4c2,0.3,4.3,0.4,5.7,0.7c0,0-0.6,0-1.3,0c-0.6,0-1.3,0-1.3,0l-1.6-0.3L158,4.7
		c1.2,0.3,4.8,0.5,7.1,0.8c0.1,0,2.1,0.1,4.2,0.3c1.1,0.1,2.3,0.2,3.3,0.3c1,0.1,1.9,0.2,2.4,0.3c0,0-0.4-0.1-0.9-0.2
		c-0.6-0.1-1.3-0.3-2.1-0.4c-1.5-0.2-3-0.5-3-0.5c1.6,0.2,9.7,1.4,12.8,2.2c0,0-1.3-0.5-2.7-0.8c-1.4-0.3-3-0.5-3.4-0.5
		c-0.6-0.3,5.7,0.8,1.7-0.1c2.4,0.2,5.4,1,8.3,1.7c2.9,0.7,5.5,1.6,7.2,2.1l0.5,0.5c3.6,1.4,2.6,0.4,6.9,2.1
		c-5.4-1.8,0.8,0.7-3.5-0.8c1.3,0.6-0.1,0.3,4.2,1.8c1.8,0.5,2.9,1,4,1.5c1.1,0.5,2.1,1,3.8,1.6c2.1,1.1-2.4-0.8,1.8,1.2
		c1.2,0.5,2.2,0.8,2.8,1.1c0.7,0.3,1.1,0.4,1.4,0.5c0.6,0.2,0.7,0.1,0.9,0c-2.2-1.2-3.5-1.7-4.8-2.1c-1.2-0.4-2.3-0.8-4.2-1.7
		c0,0,0.5,0.2,1.2,0.4c0.7,0.3,1.7,0.6,2.6,1c1,0.4,1.9,0.7,2.6,1c0.7,0.3,1.2,0.5,1.2,0.5c-1.3-0.8-2.3-1.2-3.2-1.6
		c1.5,0.6,2.8,1.1,3.9,1.6c0.6,0.3,1.2,0.5,1.8,0.7c-1-0.5-2-1-3-1.5c-1-0.4-1.8-0.9-2.6-1.2c-1.5-0.7-2.6-1.3-2.9-1.5l0.7,0.1
		c-1.4-0.9-4-1.7-5.2-2c-1-0.4-1.9-0.7-2.9-1.1c-0.9-0.3-1.8-0.6-2.6-0.8c-1.6-0.5-2.8-0.9-3.2-1.2l1.5,0.4c-1.2-0.4-2.2-0.7-3-1
		c-0.8-0.2-1.6-0.4-2.3-0.6c-0.8-0.2-1.6-0.4-2.6-0.7c-0.5-0.1-1-0.3-1.7-0.5C186.6,7.4,185.9,7.3,185.1,7.1z M34.7,58.9
		c1.2-1,2.4-2.2,4.5-4.3c2.1-2.2,5.1-5.5,10.3-10.5l-0.8,0.8c5.4-4.8,10.2-9.9,17.7-14.7c-1.7,1.3-2.5,2-3.3,2.7
		c-0.8,0.7-1.6,1.5-3.3,3.2l3.5-3c-0.8,1,2.8-1.8,5.5-3.7l-2.2,2c-0.8,0.5-2.4,1.5-3.6,2.5c-1.2,0.9-2.2,1.7-2.1,1.7
		c0.4-0.4-1,0.6-3,2c-1.9,1.5-4.3,3.5-5.9,5c0.5-0.2,7.4-6.2,4.6-3.2c0.7-0.6,1.2-1.1,1.6-1.5c0.5-0.4,0.9-0.7,1.3-1
		c0.8-0.6,1.7-1.2,3.2-2.4c-2.7,2.4-0.5,0.8-2.5,2.7c0,0,1.2-1,2.4-1.9c1.2-1,2.4-1.9,2.4-1.9c0.1-0.1-7,5.7-2.8,2.8
		c0.5-0.4,1.1-1,1.9-1.6c0.8-0.6,1.6-1.2,2.4-1.8c1.6-1.2,3-2.1,2.9-2.3l0.2,0c3.9-2.4,1.5-1.5,6.4-4.4c0-0.2-1,0.3-2.7,1.4
		c-1.4,1-1.6,1.2-4.5,3.3c-0.7,0.4,0.2-0.3,0.9-0.8c0.8-0.5,1.5-1,0.4-0.5c-1.1,0.5-7.6,5.6-5.7,3.7l3.8-2.6c0-0.1,0.6-0.7,1.3-1.2
		c0.7-0.5,1.3-1,1.2-1.1c1.2-0.8,2.4-1.5,3.6-2.2c1.2-0.7,2.4-1.4,3.6-2.2c1-0.8-1.1,0,3.2-2.3c0.9-0.3,2.2-0.9,3.6-1.6
		c0.7-0.4,1.5-0.7,2.3-1.1c0.8-0.4,1.7-0.7,2.5-1.1c1.7-0.7,3.4-1.6,5-2.2c1.6-0.6,2.9-1.2,3.9-1.6c0,0,0.8-0.4,1.7-0.8
		c0.8-0.3,1.7-0.7,1.7-0.7c-0.4-0.2-6.5,2.5-4.4,1.4c0,0,1.3-0.5,2.6-1.1c1.3-0.5,2.7-0.9,2.7-0.9l-0.4,0.2c1.8-0.6,3.6-1.3,5.2-1.9
		c-1.6,0.7-5.5,2-4.7,2c2.5-0.8,2.9-0.9,5.3-1.6c-0.5,0.2-0.9,0.3-0.9,0.3c5.2-1.3,4.9-1.7,6.2-2.2c2.6-0.8,1.2-0.6-0.7-0.2
		c-1.9,0.5-4.4,1.1-4.1,0.9c0,0,1-0.3,2.4-0.7c0.7-0.2,1.6-0.5,2.4-0.7c0.9-0.2,1.9-0.5,2.8-0.7c1.9-0.4,3.9-1,5.3-1.2
		c1.5-0.3,2.4-0.5,2.4-0.5c-1.3,0.3-2.7,0.7-2.1,0.7c3.9-0.6,0.1,0.2,5.5-0.8c-0.2-0.2,1.5-0.5,3.7-0.8c1.1-0.2,2.4-0.3,3.6-0.5
		c1.2-0.2,2.4-0.3,3.4-0.4c1.8,0,2.2,0-1.8,0.3c0.2,0.1,1.7,0,3.3-0.1c1.6-0.1,3.4-0.3,4.3-0.3c1.1-0.1,2.9-0.2,4.1-0.3
		c-1.6-0.1-0.9-0.3,2.5-0.4l0.2,0c-1.4-0.1-3,0-4.7,0c-1.7,0-3.4,0-5.1,0.1c-3.3,0.2-6.4,0.4-8.1,0.8l1-0.3c-1.6,0.1-3.3,0.4-5,0.6
		c-1.7,0.2-3.3,0.6-4.8,0.9c-1.5,0.3-2.9,0.6-4.2,0.8c-1.2,0.3-2.2,0.5-3,0.5c0.2-0.3-1.3,0.3-1.2,0c0,0-1.2,0.3-2.3,0.6
		c-1.1,0.4-2.3,0.8-2.3,0.8l0.9-0.4c0,0-2,0.6-3.9,1.1c-1,0.3-2,0.6-2.7,0.8c-0.7,0.3-1.2,0.4-1.2,0.4l0.2-0.1
		c-1.8,0.7-3.4,1.4-4.8,2c-1.4,0.7-2.6,1.3-3.7,1.8c0,0.1,0.3,0.1-0.9,0.6c-1.2,0.5-2.1,0.9-2.9,1.3c0,0,0,0,0,0l0,0
		c-1.8,0.8-3.1,1.2-5.4,2.1c0,0,1.7-0.8,3.5-1.6c0.9-0.4,1.7-0.8,2.4-1.1c0.6-0.3,1.1-0.5,1.1-0.5c0.5-0.4-0.2-0.4-3.7,1
		c1.4-0.6,1.9-1,0.2-0.3c-0.2,0.1-4.5,2.2-2.8,1.6c-3.2,1.6-7.5,3.6-12,6.2c-1.2,0.6-2.3,1.3-3.4,2c-1.1,0.7-2.3,1.5-3.5,2.2
		c-2.3,1.6-4.5,3.2-6.7,4.9c3.1-2.4,1.8-1.5,0.6-0.7c-0.6,0.4-1.2,0.8-1.2,0.8c0,0,0.2-0.1,0.5-0.4c0.4-0.3,1-0.7,1.8-1.4
		c-0.6,0.4-1.2,0.8-1.7,1.1c-0.5,0.3-0.9,0.6-1.2,0.9c-0.7,0.6-1.2,1-1.7,1.5c-1,0.9-2,1.8-4.3,3.9c-0.5,0.3,2.6-2.2,3.6-3.2
		c-2.1,1.5-3.8,3.2-5.6,4.7c-1.7,1.5-3.2,3.1-4.7,4.6c-1.5,1.5-3,3.1-4.5,4.8c-0.7,0.8-1.5,1.7-2.3,2.5C40.6,52,39.8,53,39,53.9
		l-0.5,0.2c-0.6,0.7-1.3,1.5-1.9,2.3C36,57.2,35.3,58,34.7,58.9z M23.8,75.5c-0.9,1.7-1.9,3.4-2.8,5.1c0.1-0.2,0.2-0.3,0.3-0.5
		l-2.4,5.2c1.7-3.1,3-5.1,0.9-0.6c0.1-0.4-0.7,0.8,0-0.8c-0.4,0.7-1,1.7-1.5,2.7c-0.5,1-1,2.1-1.4,3c-0.8,1.8-1.3,3.1-0.8,2.3
		c2.3-6,1.1-1.2,2.9-5.8c-0.9,2.5-2.1,4.9-3,7.3c0.4-1.3,0.2-1.2-0.2-0.3c-0.5,0.9-1.2,2.5-2,4.4c-0.7,1.6-2.1,6.1-3,8.8
		c0.6-0.9-0.1,1.5,1.4-2.9c-0.2,0.8-0.6,1.9-1,3c-0.3,1.2-0.7,2.5-1.2,4c0.3-1.1,0.8-3.1,0.7-3c-0.7,1.8-1.3,4-1.8,5.1
		c-0.3,1-0.4,1.9-0.7,2.9c0.1-0.3,0.2-0.5,0.2-0.7L8,117.9c0.9-4.3,0.6-1.9,0.7-1.9c-0.2-0.2-0.7,2.7-1,4.2l1-3.1
		c-0.1,0.8-0.5,2.1-0.7,3.2c-0.2,1.1-0.4,1.8-0.2,1.5c0.3-1.7,0.7-3.1,1-4.4c0.3-1.3,0.6-2.4,0.8-3.5c0.6-2.2,1.2-4.4,2-7.4
		l-0.9,2.4c0.8-3.4,1.4-4.4,1.9-5.5c0.2-0.5,0.5-1.1,0.9-2c0.2-0.5,0.4-1,0.6-1.6c0.3-0.6,0.6-1.4,0.9-2.3
		c0.9-3.2,4.6-10.9,4.4-11.2C19,87.2,21.9,82,23,79.6c0.6-1.4,1.9-4.1,3.1-6.1c1.2-2,2-3.3,1.2-2.2c-0.6,1-1.4,2.2-2.1,3.5
		c-0.7,1.2-1.3,2.3-1.9,3.1c0,0,0.6-1,1.1-2.1c0.3-0.5,0.6-1,0.8-1.4c0.2-0.4,0.4-0.6,0.4-0.6s-0.4,0.6-0.9,1.3
		c-0.4,0.7-0.9,1.3-0.9,1.3C24.7,74.9,24.4,75,23.8,75.5z M4.1,179c0,0.1,0,0.1,0,0.2C4.1,179.1,4.1,179,4.1,179L4.1,179z"/>
	<path fill="#FFFFFF" d="M285.4,91.3c0.7,1.2,1.9,4.4,1.8,3.7c-0.1,0.1-0.7-1.3-1.1-2.5C285.6,91.3,285.1,90.4,285.4,91.3z"/>
	<path fill="#FFFFFF" d="M286.8,95.2c0.1,0.2,0.2,0,0.7,1.4l-1.6-3.9L286.8,95.2z"/>
	<path fill="#FFFFFF" d="M286.9,99.7c0.9,2,1.4,3.2,2.4,6.4c-0.1,1.4-1.9-5.2-2.9-6.4c1,2.9,1.7,4.8,2.4,6.5c0.7,1.8,1.2,3.4,2,5.8
		c-0.1-0.6-0.4-1.7-0.7-3c-0.3-1.3-0.7-2.8-1.2-4.1C288,102.1,287.1,99.7,286.9,99.7z"/>
	<path fill="#FFFFFF" d="M285.2,97.4c0,0,0.3,0.8,0.7,1.6c0.2,0.4,0.3,0.8,0.5,1.1c0.1,0.3,0.2,0.5,0.2,0.5l-0.1-0.3
		c0,0-0.1-0.2-0.2-0.5c-0.1-0.3-0.3-0.7-0.5-1.1c-0.3-0.8-0.7-1.6-0.7-1.6L285.2,97.4z"/>
	<path fill="#FFFFFF" d="M245.5,34.5c-0.1-0.3-2-1.6-2.9-2.3C243.3,32.8,244.4,33.7,245.5,34.5z"/>
	<path fill="#FFFFFF" d="M257.6,254c0,0,1.2-1.2,2.9-3.1c0.9-0.9,1.8-2.1,2.8-3.2c1-1.2,2.2-2.4,3.2-3.8c1-1.3,2.1-2.7,3-3.9
		c1-1.2,1.8-2.5,2.5-3.5c0.7-1,1.3-1.9,1.7-2.5c0.4-0.6,0.7-1,0.7-1c-2.2,3.2-4.3,6.2-7,9.6c-0.7,0.8-1.3,1.7-2,2.6
		c-0.7,0.9-1.5,1.8-2.3,2.7c-0.8,0.9-1.6,2-2.6,2.9C259.6,251.8,258.6,252.9,257.6,254z"/>
	<path fill="#FFFFFF" d="M164.3,2.1c1.8,0.1,3.3,0.3,4.7,0.4c1.4,0.1,2.7,0.2,4,0.3c1.3,0.2,2.6,0.4,4,0.6c1.4,0.2,3,0.4,4.8,0.8
		c-1.2-0.3-2.2-0.5-3.2-0.7c-1-0.2-1.9-0.4-2.8-0.5c-0.9-0.1-1.7-0.3-2.5-0.4c-0.8-0.1-1.5-0.1-2.3-0.2c-1.5-0.1-2.9-0.2-4.5-0.4
		c-1.6-0.2-3.3-0.3-5.3-0.5L164.3,2.1z"/>
	<path fill="#FFFFFF" d="M166.9,1c0.6,0.3-0.8,0.1-2.2,0.1c-1.4,0-2.8-0.1-2.3,0.1c4.8,0.3,2.3-0.2,6.7,0.4L166.9,1z"/>
	<polygon fill="#FFFFFF" points="197.1,13.2 195,12.7 196.6,13.2 	"/>
	<polygon fill="#FFFFFF" points="134.1,1.2 134.9,1.1 131.3,1.4 	"/>
	<path fill="#FFFFFF" d="M135.7,0.9c0,0-0.2,0-0.4,0.1c-0.2,0-0.4,0.1-0.4,0.1s0.2-0.1,0.4-0.1C135.5,1,135.7,0.9,135.7,0.9z"/>
	<polygon fill="#FFFFFF" points="194.3,13 197.2,14.1 198.7,14.4 	"/>
	<path fill="#FFFFFF" d="M167.6,5.4l2.8,0.3C169.8,5.6,166,5,167.6,5.4z"/>
	<polygon fill="#FFFFFF" points="112.4,5.1 109,6.2 109.4,6.1 112.7,5 	"/>
	<path fill="#FFFFFF" d="M145.5,5.4c1.9,0.2-5.6,0.2-1.6,0.3C147.5,5.6,146,5.5,145.5,5.4z"/>
	<path fill="#FFFFFF" d="M104.5,11c-0.4,0.1-0.9,0.3-1.3,0.5C103.7,11.3,104.1,11.1,104.5,11z"/>
	<path fill="#FFFFFF" d="M104.5,11c1.4-0.5,2.9-0.9,3.9-1.2C106.5,10.2,105.9,10.5,104.5,11z"/>
	<path fill="#FFFFFF" d="M88.5,17.4l1.3-0.5c-1.2,0.7-0.6,0.4,0.5-0.2c1.3-0.6,1.2-0.6,1.3-0.8c0.3-0.1,0.5-0.3,0.8-0.5
		c-0.4,0.2-0.7,0.4-1,0.6C89.3,16.9,88,17.5,88.5,17.4z"/>
	<path fill="#FFFFFF" d="M34.9,53.6c3.5-3.9,4.4-4.8,4.3-4.5c3.4-3.5,2.7-3.2,4.7-5.4c-1.9,2-3.1,3.2-4.3,4.5
		C38.3,49.5,37.1,51,34.9,53.6z"/>
	<path fill="#FFFFFF" d="M43.9,43.7c0.4-0.5,0.9-0.9,1.4-1.4C44.7,42.9,44.3,43.3,43.9,43.7z"/>
	<path fill="#FFFFFF" d="M107.9,12.2c0,0-0.2,0.1-0.4,0.2c-0.3,0.1-0.6,0.3-1,0.4c-0.7,0.3-1.4,0.6-1.4,0.6l1.1-0.4
		c0,0,0.4-0.2,0.9-0.4C107.5,12.4,107.9,12.2,107.9,12.2z"/>
	<path fill="#FFFFFF" d="M30.1,59.5c0.6-0.8,1.6-2,2.1-2.5C32.2,56.7,29.5,60.3,30.1,59.5z"/>
	<path fill="#FFFFFF" d="M45.9,47.1c0.4-0.3,2.7-2.6,3.7-3.5C48.2,44.9,46.8,45.6,45.9,47.1z"/>
	<path fill="#FFFFFF" d="M22.4,72.3c0.5-0.8,1.4-2,1.2-1.4C24.3,69.7,25,68,22.4,72.3z"/>
	<path fill="#FFFFFF" d="M39.6,53.8l0.5-0.5c0,0,0.5-0.7,1.1-1.4c0.3-0.3,0.5-0.7,0.8-0.9c0.2-0.2,0.4-0.4,0.4-0.4s-0.2,0.2-0.4,0.5
		c-0.3,0.3-0.6,0.7-0.9,1.1C40.2,53,39.6,53.8,39.6,53.8z"/>
	<path fill="#FFFFFF" d="M50,46.9c2.6-2.8-4.8,3.8-0.2-0.9c-1.6,1.4-2.3,2.2-2.6,2.5c-0.3,0.3-0.1,0.3,0,0.1c0.4-0.2,1-0.7-1.2,1.6
		C48.7,47.6,50.3,46.6,50,46.9z"/>
	<path fill="#FFFFFF" d="M46.1,50.2c-0.4,0.4-0.8,0.8-1.2,1.2C45.4,51,45.8,50.6,46.1,50.2z"/>
	<path fill="#FFFFFF" d="M15.6,94.6c0.2-0.5,0.3-0.9,0.4-1.2C15.8,93.8,15.7,94.2,15.6,94.6z"/>
	<path fill="#FFFFFF" d="M33.5,65.7c0,0,0.8-1.2,1.5-2.4c0.8-1.2,1.6-2.4,1.6-2.4C34.3,64,29,72,29.7,71.8c1.7-2.6,3.9-5.7,4.6-7
		L33.5,65.7z"/>
	<path fill="#FFFFFF" d="M2.2,124.9l0.3-2.6l-0.6,3.2C2.1,124.6,2.1,126.3,2.2,124.9z"/>
	<path fill="#FFFFFF" d="M1.8,126.2l0.1-0.6C1.9,125.7,1.8,125.9,1.8,126.2z"/>
	<path fill="#FFFFFF" d="M20,84.6c0.9-1.7,1.5-3,2.3-4.5C21.9,80.6,19.7,84.7,20,84.6z"/>
	<path fill="#FFFFFF" d="M0.8,143.1c0,0,0-1.1,0.1-2.1c0.1-1.1,0.1-2.1,0.1-2.1s-0.1,1.2-0.2,2.3c0,0.6-0.1,1.2-0.1,1.6
		c0,0.4,0,0.7,0,0.7L0.8,143.1z"/>
	<path fill="#FFFFFF" d="M0.7,162.9l0,0.7c0,0,0.1,0.9,0.2,1.8c0.1,0.9,0.3,1.7,0.3,1.7l0-0.7c0,0-0.2-0.9-0.3-1.7
		C0.8,163.8,0.7,162.9,0.7,162.9z"/>
	<path fill="#FFFFFF" d="M7.4,137.5c0.2-2.8,0.2-4.9,0.1-4.2c0,0,0,0.3-0.1,0.8c-0.1,0.5-0.1,1.2-0.2,1.8c-0.1,1.3-0.2,2.7-0.2,2.7
		c0.4-1.3,0.1-1.5,0.5-4.6c0,0-0.1,0.9,0,1.7C7.4,136.6,7.4,137.5,7.4,137.5z"/>
	<path fill="#FFFFFF" d="M78.7,281.3c-1.2-0.5-6.5-3.6-6.6-3.9c0.7,0.4,3.7,2,1.9,0.8c0,0-1.1-0.5-2.2-1.1c-1.1-0.6-2.2-1.1-2.2-1.1
		c-5.2-3.7,4.4,2.2,7.3,3.5c-1.4-0.8-2.6-1.5-3.6-2.1c-1-0.6-2-1.2-2.9-1.7c-0.9-0.6-1.9-1.1-3-1.8c-1.1-0.7-2.2-1.5-3.7-2.5
		c1.7,1.2,2.6,2.1,3.5,2.7c0,0.2-1.3-0.6-3.1-1.9c-0.9-0.6-1.9-1.4-2.9-2.1c-1-0.7-2-1.6-2.9-2.3c2.2,1.9,0.8,1-0.9-0.3
		c-0.3-0.2-0.5-0.4-0.7-0.5c-0.2-0.1-0.4-0.3-0.6-0.4l0.4,0.3c-0.1,0,0,0.1,0.3,0.4c1.6,1.2,2.9,2.3,4.1,3.2
		c1.2,0.9,2.3,1.8,3.3,2.5c-0.4-0.5-0.2-0.4,0.4,0c0.6,0.4,1.6,1.1,2.8,1.9c2.4,1.6,5.3,3.5,6.8,4.2l3.2,1.8l1.2,0.7
		c0.2,0.2-0.2,0.1-2-0.9c1.5,0.9,6.7,3.5,6.3,3.1c0,0,0.7,0.4,1.8,0.9c1.1,0.5,2.6,1.2,4.1,1.9c1.5,0.7,3,1.4,4.2,1.8
		c1.2,0.5,1.9,0.8,1.9,0.8c0.4,0.2,0.8,0.3,1,0.5c0.4,0.1,0.5,0.1,0.5,0.1c0,0,0.8,0.3,2.3,0.9c1.5,0.5,3.6,1.2,6.2,2.1
		c1.3,0.4,2.7,0.8,4.2,1.2c1.5,0.4,3.1,0.9,4.7,1.3c1.6,0.4,3.4,0.8,5.1,1.2c1.7,0.4,3.5,0.7,5.3,1c0.9,0.2,1.8,0.3,2.7,0.5
		c0.9,0.2,1.8,0.2,2.7,0.4c1.8,0.2,3.5,0.4,5.2,0.7c1.7,0.1,3.3,0.3,4.9,0.4c1.5,0.1,3,0.3,4.4,0.3c2.7,0.1,5,0.1,6.5,0.1
		c1.6,0,2.5-0.1,2.5-0.1c-2.8,0.1-5.3-0.2-8.2-0.3c2.2-0.1,1-0.2-0.6-0.2c-1.6,0-3.6-0.2-2.9-0.3c2,0.1,4.9,0.1,6.6,0.2
		c0.6-0.1-1.8-0.4-1.5-0.5c-1.8-0.1-3.2-0.1-4.5-0.1c-1.2-0.1-2.3-0.1-3.3-0.1c-1,0-2.1,0-3.3,0c-1.2-0.1-2.6-0.2-4.4-0.5
		c0.3-0.2,2.5-0.1-2.1-0.6l1.2,0.1c-0.9-0.1-1.7-0.2-2.4-0.3c-0.7-0.1-1.2-0.2-1.7-0.3c-0.9-0.2-1.6-0.3-2.1-0.5
		c-1.1-0.3-1.8-0.4-4.2-0.6l0.2-0.2c-1.7-0.3-4.1-0.8-6.5-1.3c-2.4-0.6-4.9-1.3-6.7-1.8l0.2,0c-9.9-3-5.6-1.6-16.4-5.8
		c0,0,0.3,0.1,0.8,0.3c0.5,0.2,1.1,0.4,1.7,0.6c1.3,0.4,2.5,0.8,2.5,0.8c-3.7-1.6-4.6-1.7-7.2-2.9c0.2,0-0.3-0.4,2.2,0.6
		c0,0-0.8-0.3-2-0.8c-1.2-0.5-2.9-1.1-4.4-1.9c-1.6-0.7-3.2-1.5-4.4-2.1c-0.6-0.3-1.1-0.5-1.4-0.7c-0.3-0.2-0.5-0.3-0.5-0.3
		C74.8,278.9,78.3,281,78.7,281.3z"/>
	<path fill="#FFFFFF" d="M63.8,271.5c-0.6-0.4-1.3-0.9-2.1-1.5C62.5,270.5,63.2,271,63.8,271.5z"/>
	<path fill="#FFFFFF" d="M157.2,299.8l-4.1,0.1C154.4,299.9,155.8,299.9,157.2,299.8z"/>
	<path fill="#FFFFFF" d="M47.8,259.1c1.7,1.8-1.5-1.1-1.9-1.3c0,0,1.6,1.5,3.2,3c1.7,1.4,3.3,2.9,3.3,2.9c0-0.1,0.8,0.4,0.7,0.2
		c0,0-1.4-1.2-2.7-2.3c-0.7-0.6-1.3-1.2-1.8-1.7C48.1,259.4,47.8,259.1,47.8,259.1z"/>
	<path fill="#FFFFFF" d="M54.3,265.5c0.3,0.1,1,0.7,1.9,1.3c0,0-0.2-0.2-0.6-0.5c-0.4-0.3-0.8-0.6-1.3-1c-0.9-0.8-1.8-1.6-1.8-1.6
		C52.4,263.8,52.8,264.2,54.3,265.5z"/>
	<path fill="#FFFFFF" d="M57.3,260.5l1.1,1l1.8,1.3c0,0-0.8-0.6-1.5-1.1c-0.4-0.3-0.7-0.6-1-0.8C57.5,260.7,57.3,260.5,57.3,260.5z"
		/>
	<path fill="#FFFFFF" d="M76.1,274.5c-1.5-1-4.4-2.8-5.4-3.4C74.1,273.2,72.6,272.5,76.1,274.5z"/>
	<polygon fill="#FFFFFF" points="73,270.5 76.2,272.4 75.9,272.2 	"/>
	<path fill="#FFFFFF" d="M186.6,294.5c0.6-0.1,1.2-0.3,1.8-0.5C187.6,294.2,187,294.3,186.6,294.5z"/>
	<path fill="#FFFFFF" d="M153.5,299.1c9.3,0.1-6.1,0.4-3.2,0.7l5.1-0.3l-0.4,0.1c0,0,1.6,0,3.1-0.1c1.5-0.1,3.1-0.3,3.1-0.3
		c-1.3-0.1-2.2,0-2-0.2c4.1-0.3,4.8-0.3,5.2-0.2c0.4,0,0.5,0.2,3.5-0.1c0,0,2.3-0.3,4.6-0.6c1.2-0.1,2.3-0.4,3.1-0.5
		c0.9-0.2,1.4-0.3,1.4-0.3l-0.7,0.2c0.8-0.1,1.1-0.2,1.4-0.3c0,0,0.5-0.1,1.3-0.2c0.4-0.1,0.9-0.2,1.5-0.3c0.6-0.1,1.2-0.3,1.9-0.4
		c1.4-0.3,3.1-0.7,4.9-1.1c1.8-0.4,3.6-1,5.5-1.6c1.9-0.5,3.7-1.2,5.5-1.7c1.7-0.6,3.4-1.1,4.7-1.7c2.7-1.1,4.5-1.8,4.5-1.8
		c1.3-0.5,1.8-0.8,1.8-0.9c0-0.1-0.4,0.1-0.9,0.2c-0.9,0.3-2.1,0.6-0.2-0.3c-6,2.6-15.4,5.4-15.8,5.8c0.2-0.1,0.6-0.3-0.7,0
		l-3.6,1.3l3.5-0.9c-0.9,0.3-2.3,0.8-4,1.3c-1.7,0.4-3.6,0.9-5.5,1.3c-1.9,0.5-3.7,0.7-5.2,1c-1.5,0.2-2.7,0.4-3.2,0.5
		c3.4-0.7,4.3-0.9,5.5-1.2c1.2-0.3,2.7-0.7,7.5-1.7c-0.5,0-2.2,0.2-0.1-0.3C175.5,297.3,165.3,298.5,153.5,299.1z"/>
	<path fill="#FFFFFF" d="M256.2,255.1L256.2,255.1C256.3,255,256.3,254.9,256.2,255.1z"/>
	<path fill="#FFFFFF" d="M253.4,257.7c0,0-0.9,1-1.9,2.1c-0.5,0.5-1,1-1.3,1.4c-0.4,0.4-0.6,0.6-0.6,0.6c0,0,1.7-1.4,3.2-2.9
		c1.6-1.5,3.1-3,3.1-3l0.3-0.6c-0.5,0.6-2.6,2.8-3.5,3.5L253.4,257.7z"/>
	<path fill="#FFFFFF" d="M244.8,266.1c3.4-2.9,3-3.1,1-1.6c3-2.8,1.9-1.2,3.8-3.3c-0.2-0.1-3.9,3.3-4.8,4.1L244.8,266.1z"/>
	<polygon fill="#FFFFFF" points="216.9,283.8 217.9,283.1 215.1,284.5 	"/>
	<path fill="#FFFFFF" d="M217.9,283.1l2.8-1.4c-0.2,0-0.5,0-0.9,0.2L217.9,283.1z"/>
	<path fill="#FFFFFF" d="M227.8,277.9c1.1-0.7,2.3-1.4,3.8-2.4c0,0-1,0.6-1.9,1.2c-0.5,0.3-1,0.6-1.3,0.8
		C228,277.7,227.8,277.9,227.8,277.9z"/>
	<path fill="#FFFFFF" d="M224.7,279.5l0.1,0l3-1.7C226.7,278.5,225.7,279,224.7,279.5z"/>
	<path fill="#FFFFFF" d="M220.7,281.8c0.3,0,0.6,0,1.3-0.3c0.7-0.3,1.8-0.9,3.7-2l-0.9,0.1c0,0-1,0.6-2,1.1
		C221.7,281.3,220.7,281.8,220.7,281.8z"/>
	<polygon fill="#FFFFFF" points="97,283.2 100.2,284.4 99.9,284.2 96.7,283.1 	"/>
	<path fill="#FFFFFF" d="M115.6,289.5c0.8,0.1,1.5,0.2,2,0.3C116.7,289.6,116.1,289.5,115.6,289.5z"/>
	<path fill="#FFFFFF" d="M130.1,290.8c3.9,0.7-5.5-0.4,1.8,0.6c0.6,0.3-2.9,0.2-6.2-0.6c0.3-0.1,3.3,0.5,1.3-0.1
		c-2.3-0.2-3.1-0.5-2.4-0.1c-3.9-0.5-4.3-0.5-6.9-0.8c1.1,0.2,2.6,0.6,4.3,0.9c1.7,0.3,3.5,0.6,5.4,1c0.9,0.2,1.9,0.3,2.8,0.4
		c0.9,0.1,1.9,0.2,2.8,0.3c0.9,0.1,1.8,0.2,2.6,0.3c0.8,0.1,1.7,0.1,2.4,0.1c3.3-0.1,1.3-0.7,1.4-1.2c-0.2-0.1-2.5-0.2-4.7-0.5
		C132.5,290.8,130.3,290.6,130.1,290.8z"/>
	<path fill="#FFFFFF" d="M124,289.2c-1.8-0.3-2.3-0.4-3.4-0.6c0.1,0.1,0.6,0.2,1.3,0.3C122.5,289,123.3,289.1,124,289.2z"/>
	<path fill="#FFFFFF" d="M166.2,294.7c0.3-0.1,3.7-0.6,3-0.7c0,0-1.3,0.2-2.5,0.4c-1.3,0.2-2.5,0.3-2.5,0.3
		C165.3,294.6,165.7,294.7,166.2,294.7z"/>
	<path fill="#FFFFFF" d="M161.8,294.9l2.2-0.2C163.5,294.7,162.8,294.8,161.8,294.9z"/>
	<path fill="#FFFFFF" d="M166.4,294.7c-0.1,0-0.2,0-0.2,0C166.1,294.7,166.1,294.7,166.4,294.7z"/>
	<path fill="#FFFFFF" d="M238.5,270.9c0,0.2,1.9-1.3,2.8-2c-0.4,0.3-0.8,0.6-1.3,1C239.4,270.1,238.9,270.5,238.5,270.9z"/>
	<path fill="#FFFFFF" d="M290.6,201.1l0.8-1.9C291,199.9,290.9,200.2,290.6,201.1z"/>
	<path fill="#FFFFFF" d="M294.5,169.7c0-0.1,0-0.2,0-0.4C294.4,169.5,294.4,169.6,294.5,169.7z"/>
	<path fill="#FFFFFF" d="M294.4,169.3c0.1-1.4,0.8-5.6,0.7-7.1l0,0.2l0.1-2.8c-0.1,1.3-0.3,3.4-0.4,5.3
		C294.6,166.7,294.4,168.5,294.4,169.3z"/>
</g>
<g>
</g>
<g>
</g>
<g>
</g>
<g>
</g>
<g>
</g>
<g>
</g>
<g>
</g>
<g>
</g>
<g>
</g>
<g>
</g>
<g>
</g>
<g>
</g>
<g>
</g>
<g>
</g>
<g>
</g>
</svg>
