<?xml version="1.0" encoding="utf-8"?>
<!-- Generator: Adobe Illustrator 18.1.1, SVG Export Plug-In . SVG Version: 6.00 Build 0)  -->
<!DOCTYPE svg PUBLIC "-//W3C//DTD SVG 1.1//EN" "http://www.w3.org/Graphics/SVG/1.1/DTD/svg11.dtd">
<svg version="1.1" id="Laag_1" xmlns="http://www.w3.org/2000/svg" xmlns:xlink="http://www.w3.org/1999/xlink" x="0px" y="0px"
	 viewBox="0 0 86 54" enable-background="new 0 0 86 54" xml:space="preserve">
<rect x="53.6" y="50.4" width="31.3" height="0.7"/>
<rect x="1.5" y="50.4" width="31.2" height="0.7"/>
<g>
	<path d="M2.2,40.4c0,0-0.5,0-1.2,0c-0.5,0-0.9-0.1-1-0.3v-0.4c0,0,0.1,0,0.2,0c0,0,0.1,0,0.2-0.1c0-1,0-2.5,0-4.4
		c0-0.9,0-1.9,0-3.3c0-1.7,0.1-2.9,0.1-3.4v-3.3c0-0.3,0-0.6,0-1c0-0.6-0.1-1.5-0.1-2.6c0,0-0.1,0-0.1-0.1c0-0.3,0-0.4,0.1-0.6
		c0-3-0.1-5.2-0.1-6.7c0,0,0.2-0.1,0.4-0.2c0.1,0.5,0.2,0.8,0.2,0.8c0.1,0,0.2,0,0.4,0v-0.3c0,0-0.1,0-0.3,0c0-0.6,0.4-0.7,1-0.4
		c0,0,0-0.1,0-0.1c0,0,0.2,0,0.5,0.1c0,0,0.1,0,0.1,0c0.5-0.2,1-0.3,1.4,0c0.5,0,0.9,0,1.5,0c0.1,0,0.3,0,0.4,0.1c0,0,0-0.1,0.1-0.1
		v0.1c0.1-0.1,0.2-0.1,0.3-0.2c0.3,0,0.7,0.2,1.2,0.4c0.1-0.1,0.3,0,0.3,0.1H9c0,0,0,0.1,0,0.1c0,0,0.1,0,0.1-0.1v0.1
		c0.1,0,0.2,0,0.2,0.1c0,0,0-0.1,0.1-0.1c0,0.1,0.5,0.3,0.6,0.2c0,0.1,0.1,0.1,0.2,0c0.1,0.1,0.3,0.2,0.6,0.3v0.1c0,0,0.2,0,0.5,0.1
		v0.1c0,0,0.2,0.1,0.4,0.2c0,0.2,0.5,0.4,0.7,0.6c0.1,0,0.5,0.5,0.6,0.4c0.1,0.2,0.3,0.4,0.5,0.6c0,0.2,0.6,1,0.7,1.2
		c0,0.2,0.2,0.5,0.4,1c0,0,0,0,0.1,0.1l0.1,2.1c-0.1,0.4-0.2,1-0.4,1.8h-0.1c-0.2,0.4-0.6,1.1-1,2c0,0-0.1,0.2-0.3,0.3l-0.9,0.5v0.1
		h-0.3c0,0-0.1,0-0.2,0.1c0,0,0.1,0.2,0.2,0.4H12v0.1c0,0,0.3,0.1,0.7,0.3c0,0,0,0.1,0.1,0.2c0.1-0.1,0.2-0.1,0.3-0.1
		c0.1-0.1,0.2-0.1,0.5-0.1c0,0.2,0.1,0.4,0.2,0.6c0,0.6,0.3,1.2,0.9,1.6c0,0.2,0.1,0.3,0.3,0.3c0,0.4,0.1,0.6,0.3,0.8c0,0,0,0,0,0.1
		c0.1,0.3,0.2,0.8,0.4,1.3v3.4c-0.1,0.2-0.1,0.4-0.1,0.4h-0.1c0,0.1,0,0.2,0,0.4c-0.2,0-0.6,0.7-0.6,0.9c-0.5,0-1.3,1-1.6,1.1v0.1
		c-0.2,0-0.4,0.1-0.6,0.2c0,0,0.1,0.1,0.1,0.3c-0.1,0-0.2,0.1-0.5,0.1c-0.1-0.1-0.2-0.1-0.3,0V39c-0.1,0-0.1,0-0.2,0v0.1
		c-0.2,0-0.4,0-0.5,0.2c-0.2,0-1.2,0.5-1.4,0.4c-0.5,0-0.6,0.2-0.6,0.3c0,0,0-0.1-0.1-0.1c0,0-0.2,0-0.4,0.2c-0.2,0-0.5,0-0.9-0.1
		c0,0,0,0.1,0,0.2C7.8,40,7.7,40,7.5,40c-0.2,0-0.4,0-0.4,0l-0.1,0.2L7,40.1c-0.1,0.1-0.4,0.1-0.8,0.1v0.1c-0.1,0-0.3-0.1-0.5-0.1
		c-0.1,0-0.3,0-0.5,0.1c0,0-0.1,0-0.1,0c-0.1,0-0.2,0.1-0.2,0.1c-0.9,0-1.5,0-1.9,0.1v0.2c-0.2,0-0.4,0-0.6,0
		C2.3,40.6,2.3,40.5,2.2,40.4z M1.4,34.2c-0.1,0-0.2,0-0.5,0.1c0,0.6,0,0.9,0.1,1.1c0,0,0,0.1-0.1,0.1c0,0,0,0.1,0,0.2
		C1.2,35,1.3,34.5,1.4,34.2z M1.1,21.7C1.1,21.7,1,21.7,1.1,21.7c-0.1,0,0,0.1,0,0.2V21.7z M1,32.5c0.1-0.2,0.3-0.6,0.3-1.3
		c0.1,0,0.4-1.1,0.4-1.3c-0.2,0.4-0.4,0.3-0.4,0.4c0,0-0.1-0.1-0.2-0.1L1,32.5z M1.2,37.4l0.5-0.1v-0.4c-0.2,0-0.6,0-0.6,0.2
		c0,0,0,0.1,0,0.3c0,0.1,0,0.3,0,0.3C1.1,37.5,1.2,37.5,1.2,37.4z M1.1,21.6L1.1,21.6L1.1,21.6L1.1,21.6L1.1,21.6z M1.3,39.3
		c0-0.4,0.1-0.7,0.1-0.9l-0.3-0.3v1L1.3,39.3L1.3,39.3z M1.2,27.4C1.2,27.3,1.2,27.3,1.2,27.4c0.1-0.5,0.1-0.9,0.2-1.1H1.2V27.4z
		 M1.2,34.7L1.2,34.7L1.2,34.7L1.2,34.7L1.2,34.7z M1.4,39.4L1.4,39.4c-0.1,0.1-0.1,0.2,0,0.3C1.3,39.6,1.3,39.5,1.4,39.4z
		 M1.6,19.8L1.6,19.8C1.4,19.9,1.4,20,1.4,20C1.4,19.9,1.5,19.8,1.6,19.8z M1.7,14.9v-0.2H1.5C1.5,14.8,1.5,14.8,1.7,14.9L1.7,14.9z
		 M1.6,19.6L1.6,19.6l0-0.1h0V19.6z M2.1,34.9L2.1,34.9c0.3-0.4,0.5-1,0.7-1.7c0,0.1,0,0.2,0,0.2h0.1c0-0.2,0.1-0.4,0.3-0.7v-1.3
		c-0.3,0.3-0.4,0.7-0.4,1.2H2.7c0,0.2-0.3,0.8-0.3,1.1H2.3c-0.4,1-0.6,1.8-0.6,2.3C1.8,36,1.9,35.6,2.1,34.9z M2,15.9v-0.4h0.1
		c0.1-0.1,0.3-0.4,0.5-0.7c-0.2,0-0.3,0-0.3-0.1c0,0,0,0.1-0.1,0.1v-0.1c-0.2,0-0.3,0-0.3,0c0,0.5-0.1,0.9-0.1,1.3
		C1.8,15.9,1.9,15.9,2,15.9z M1.8,16.2L1.8,16.2L1.8,16H1.8V16.2z M1.8,19.3L1.8,19.3L1.8,19H1.8V19.3z M1.8,29.7L1.8,29.7L1.8,29.7
		L1.8,29.7L1.8,29.7z M2,29.3c0,0,0-0.1-0.1-0.2c0,0,0,0.1,0,0.2H2z M1.9,23.7L1.9,23.7L1.9,23.7L1.9,23.7L1.9,23.7z M2.3,39.6
		c-0.1,0-0.2,0-0.3,0c0,0,0,0,0,0.1L2.3,39.6z M2,23.5L2,23.5l0-0.2h0V23.5z M2.3,25.7h0.2c0-0.1,0.1-0.3,0.2-0.5h0.1
		c0,0,0-0.1,0.1-0.2l0,0.1v-1.4c0,0,0,0-0.1,0c0,0.2,0,0.4,0,0.6c-0.1,0.2-0.2,0.5-0.3,0.8H2.3c-0.1,0.4-0.2,0.9-0.3,1.6
		C2.2,26.5,2.3,26.2,2.3,25.7z M2.2,28.6v-0.3H2.1c0,0.1,0,0.3,0,0.3H2.2z M2.2,22.9L2.2,22.9c-0.1,0,0,0,0,0.2V22.9z M2.2,30.7
		c0,0,0-0.1,0-0.1C2.1,30.6,2.1,30.6,2.2,30.7L2.2,30.7z M2.1,32.3L2.1,32.3l0.1-0.1H2.1V32.3z M2.8,18.7c0-0.2,0-0.6-0.1-1.1H2.6
		c-0.2,0.9-0.4,0.6-0.5,0.9c0,0,0.1-0.1,0.3-0.2C2.4,18.4,2.5,18.5,2.8,18.7L2.8,18.7z M2.2,16.9h0.1v-0.3H2.2V16.9z M2.7,29.4
		L2.7,29.4c0.1-0.2,0.1-0.3,0.2-0.3C3,28.8,3,28.3,3,27.7c0,0-0.1,0-0.1,0.1c0,0.4-0.5,1.6-0.5,2.1H2.3c0,0-0.1,0.2-0.1,0.4
		c0,0,0,0.1,0.1,0.2C2.4,30.2,2.5,29.9,2.7,29.4z M2.3,28.1C2.3,28.1,2.3,28,2.3,28.1c-0.1,0-0.1,0.1-0.1,0.1
		C2.2,28.2,2.2,28.1,2.3,28.1z M2.2,32.2l0.2-0.4H2.3L2.2,32.2z M2.3,27.7L2.3,27.7L2.3,27.7L2.3,27.7L2.3,27.7z M2.5,22.4
		c0-0.2,0.1-0.4,0.2-0.7h0.1c0-0.4,0-0.8,0-1H2.7c0,0.2-0.1,0.4-0.1,0.9c-0.1,0.2-0.2,0.5-0.2,0.9H2.5z M2.7,30.9L2.7,30.9
		c0.1-0.2,0.2-0.6,0.5-1c0,0,0-0.1,0-0.2c-0.1,0.1-0.3,0.7-0.7,1.8c0,0,0,0.1,0,0.1C2.5,31.6,2.6,31.4,2.7,30.9z M2.7,15.6
		c-0.1,0.1-0.2,0.3-0.3,0.4c0,0,0,0.1,0.1,0.2C2.6,16,2.7,15.8,2.7,15.6z M2.5,19.6c0,0,0-0.1,0.1-0.2c0,0,0.1,0,0.2,0.1
		c0-0.4,0-0.6,0-0.8c-0.1,0.2-0.2,0.4-0.2,0.6V19.6z M2.7,17.7L2.7,17.7L2.7,17.7L2.7,17.7L2.7,17.7z M3.3,34.3c0,0-0.1,0-0.2,0
		c-0.1,0.3-0.2,0.8-0.4,1.4c0.1,0,0.2-0.1,0.4-0.1c0.2,0.1,0.3,0.2,0.3,0.4L3.3,34.3z M2.9,23.5L2.9,23.5l0-0.2h0V23.5z M2.9,25.1
		L2.9,25.1L2.9,25.1L2.9,25.1L2.9,25.1z M3,39.4c0,0.2,0.1,0,0.1-0.8c0,0-0.1,0-0.2,0C2.9,38.8,2.9,39.1,3,39.4L3,39.4z M3.4,37.9
		l0.1-1.9c0,0-0.1,0.3-0.2,0.8c-0.1,0.5-0.1,0.8-0.1,0.9c0,0,0,0.2,0,0.3C3.2,37.9,3.3,37.9,3.4,37.9z M6.9,25.8
		c0.3,0,0.7,0,1.2-0.1v-0.2c0.7,0,1.1-0.1,1.1-0.3c0.2-0.1,0.5-0.2,0.8-0.4v-0.2c0.4-0.2,0.7-0.5,0.9-0.9c0.1-0.1,0.5-0.5,1.1-1.3
		c0-0.4,0.1-1,0.1-1.7c0-0.2-0.1-0.5-0.2-0.9h-0.1c-0.2-0.3-0.5-0.4-1-0.5v-0.4c-0.1,0-0.3-0.2-0.5-0.3c0,0,0,0-0.1,0
		c0-0.1-0.5-0.2-0.5-0.4c-0.2,0-0.3-0.1-0.3-0.3H9.5c0,0,0,0,0-0.1c-0.1,0-0.2-0.1-0.4-0.2c-0.2,0-0.3,0-0.3-0.1l-0.8-0.1l-0.4-0.3
		V17c0,0-0.1,0-0.1,0.1C7.2,17,6.1,17,5.8,16.8c0,0,0,0-0.1,0.1c0,0-0.1,0-0.4-0.1c-0.3,0-0.5,0-0.6,0c-0.2,0-0.3,0-0.3,0.1
		c-0.4-0.1-0.7-0.1-0.9-0.1c0,0-0.1,0.2-0.2,0.3c0,0.7-0.1,1.2-0.1,1.4c0,0.7,0,1.7,0.1,3c0.2,0.8,0.2,1.3,0.1,1.4
		c0,0.5,0,1.4,0.1,2.7c0.2,0,0.5,0,0.9,0c0,0,0-0.1,0-0.1c0,0,0,0.1,0.1,0.3C5.1,25.8,5.9,25.8,6.9,25.8z M3.7,27.1
		c0,0,0.2,0,0.4-0.1c0,0,0.1,0,0.2,0c0,0,0-0.1,0-0.1L4.5,27l0.1-0.1V27C4.8,27,4.9,26.9,5,26.9c0.3,0,0.6,0,0.8,0
		c0.1-0.1,0.2-0.1,0.4-0.1c0,0,0,0.1,0.1,0.3h0.6v-0.2c0,0,0.1,0,0.2,0c0,0,0,0,0-0.1c0.4,0,0.6-0.1,0.6-0.3c-0.1,0-0.4,0-0.6,0H6.5
		c0,0-0.2,0-0.6,0c-0.3,0-0.5,0-0.5,0c-0.5,0-0.9,0-1,0c0,0-0.1,0.1-0.1,0.1c-0.2-0.2-0.4-0.3-0.5-0.3c0,0,0,0,0,0.1
		c0,0-0.1,0-0.2-0.1v0.2H3.5c0,0.2,0,0.4,0,0.5L3.7,27.1L3.7,27.1z M4.9,37.8c0.2-0.2,0.5-0.3,0.8-0.3L6,37.9h1.3c0,0,0-0.1,0-0.1h1
		c0,0,0-0.1,0-0.1c0.3,0,1-0.2,1.4-0.2v-0.2c0.5,0.1,1-0.4,1.7-1.5c0.4-0.4,0.6-0.9,0.8-1.4c0-0.7,0-1,0.1-1c0-0.2,0-0.4,0-0.6
		c0,0-0.1,0-0.1,0v-1.3h-0.1c-0.2-0.7-0.4-1.2-0.5-1.5L10.8,29c-0.6-0.3-0.9-0.4-0.9-0.4c-0.2,0-0.3-0.1-0.4-0.1
		c0,0-0.9-0.1-0.9-0.3c-0.2,0-0.5-0.1-0.8-0.3c-0.4,0-0.7,0-0.9,0v-0.1c-0.1,0-0.2,0-0.4,0c-0.3-0.1-0.6-0.1-1-0.1H4.6
		c-0.2,0-0.4,0-0.5,0.1c-0.4,0.6-0.6,1.7-0.6,3.4c0,0.1,0.1,1.3,0.3,3.7c0,0.5,0.1,1.2,0.1,2.2c0,0,0.1,0.1,0.3,0.2
		c0,0-0.1,0.2-0.1,0.4c0,0.2,0,0.3,0.1,0.3C4.5,37.9,4.7,37.9,4.9,37.8z M5.1,16.2c0-0.3,0-0.6,0-1H5.1c0,0.2-0.3,0.4-0.7,0.5
		c0-0.1,0-0.4,0-0.8c0.1,0,0.2,0,0.2,0c0-0.1-0.1-0.2-0.2-0.3c0,0,0,0,0,0.1c-0.2,0-0.3,0-0.4-0.1v0.9H4c0,0.1-0.1,0.4-0.1,0.6h0.9
		C4.8,16.1,4.9,16.2,5.1,16.2L5.1,16.2z M4.4,39.7c0.1-0.3,0.1-0.5,0.2-0.5c0-0.1,0.1-0.3,0.3-0.4H5c0,0,0-0.1,0.1-0.3
		c0,0-0.2,0-0.6,0.3c-0.2,0.4-0.4,0.8-0.4,1C4.2,39.7,4.3,39.7,4.4,39.7z M6.1,38.7c0,0,0,0,0.1,0c0,0,0-0.1,0-0.2
		c-0.2,0-0.4-0.1-0.4-0.1c0,0.1-0.1,0.4-0.2,0.6C5.7,38.9,5.9,38.8,6.1,38.7z M6,15.7v-0.3c0,0.1,0.1,0.2,0.1,0.2
		c0.2-0.8,0.3-1,0.3-0.9l-0.1,0.1c-0.2,0-0.3,0-0.4,0c0,0.2,0,0.5-0.1,0.9C5.8,15.7,5.9,15.7,6,15.7z M6.2,39.6c0,0,0.1,0,0.1,0
		c0-0.1,0-0.2,0-0.3L6.2,39.6z M6.5,16.2c0-0.1,0-0.3,0-0.3H6.4c0,0,0,0.2-0.1,0.3H6.5z M6.9,16.4L6.9,16.4L6.9,16.4L6.9,16.4
		L6.9,16.4z M7.8,16.2v-0.8c0,0.1-0.2,0.3-0.3,0.6H7.4c0,0.1,0,0.2,0,0.3l-0.2-0.2c0,0.1,0,0.2,0.1,0.2c0.4,0.1,0.2,0.1,0.7,0.2
		C7.9,16.4,7.9,16.2,7.8,16.2z M7.2,15.3c0.1,0,0.2,0,0.3,0V15c0,0-0.1,0-0.3,0V15.3z M7.2,17L7.2,17L7.2,17L7.2,17L7.2,17z
		 M7.6,38.5c0,0,0.1,0,0.1-0.1L7.6,38.5L7.6,38.5z M8.3,39.2c0,0,0-0.2,0.2-0.5c0,0-0.1,0-0.2,0c-0.1,0.1-0.2,0.2-0.2,0.3
		c-0.3,0.2-0.4,0.3-0.4,0.4C7.8,39.3,8,39.3,8.3,39.2z M9,15.9c0.1-0.2,0.2-0.3,0.3-0.3v-0.3c-0.2,0-0.4,0-0.5,0.1
		c0-0.3,0-0.1-0.2-0.3c-0.1,0-0.1,0.4-0.1,1.2C8.8,16.1,8.8,15.9,9,15.9z M9.7,15.8c-0.1,0.1-0.3,0.4-0.6,0.6v0.2c0,0-0.1,0-0.2,0
		c0,0.1,0,0.2,0,0.3c0.1,0,0.3,0,0.6,0.2C9.7,17,9.7,16.5,9.7,15.8z M9.4,38.7v-0.2h0.2c0-0.1,0.1-0.2,0.2-0.2v-0.3H9.7
		C9.4,38.3,9.3,38.6,9.4,38.7L9.4,38.7z M9.5,27.5c0-0.1,0.2-0.2,0.4-0.3c-0.2,0-0.3,0.1-0.4,0.1V27.5z M9.7,25.9c0,0,0,0.1-0.1,0.2
		C9.7,26,9.7,25.9,9.7,25.9z M10,25.5c-0.2,0-0.3,0.2-0.1,0.5C9.9,25.9,10,25.9,10,25.5z M10,37.9L10,37.9L10,37.9L10,37.9L10,37.9z
		 M10.3,38.9c0-0.2,0-0.4,0.1-0.4c-0.2,0-0.4,0.2-0.5,0.5L10.3,38.9z M11.3,27.1c-0.2,0-0.5,0.1-0.7,0.3c-0.3,0.3-0.5,0.4-0.6,0.4
		V28c0.1,0,0.2,0,0.5,0c0,0,0,0.1,0.1,0.2c0,0,0.1,0,0.2,0c0,0-0.1,0,0.4,0.4c0,0,0.1,0,0.2,0C11.4,27.7,11.4,27.2,11.3,27.1z
		 M10.2,18.4h0.1v-0.1L10.2,18.4z M10.6,16.7v-0.2c0,0,0.1,0,0.2,0.1c0-0.1,0.2-0.2,0.4-0.2c0-0.1-0.1-0.2-0.3-0.4
		c0,0-0.1,0.1-0.1,0.1c-0.1-0.1-0.2-0.2-0.4-0.4c0,0.4,0,0.8,0,1.1C10.4,16.7,10.4,16.7,10.6,16.7z M11.4,17.5c0-0.3,0-0.6,0.1-0.8
		c0,0-0.2,0.1-0.4,0.2c0,0-0.1,0-0.3,0.2c-0.3,0.1-0.4,0.4-0.4,0.8c0.2,0,0.7,0.4,0.7,0.4C11.1,18.3,11.2,17.5,11.4,17.5z
		 M10.4,38.4L10.4,38.4L10.4,38.4L10.4,38.4L10.4,38.4z M11.1,25.6v-0.2h-0.1c0,0,0,0.1,0,0.2H11.1z M11.2,25.4
		c-0.1,0-0.1,0-0.1,0.1C11.1,25.5,11.2,25.4,11.2,25.4z M12.3,36.3h0.1c0-0.3,0-0.6,0-0.8h-0.2c0,0.3-0.5,0.6-0.5,0.9
		c-0.3,0.3-0.3,0.6-0.2,0.8c-0.1,0.3-0.1,0.4-0.2,0.4c0,0.2,0,0.4-0.1,0.4c0,0.1,0,0.2,0,0.4C12,37.8,12.3,37.1,12.3,36.3z
		 M12.2,17.9L12.2,17.9L12.2,17.9l0.3-0.1v-0.1c0,0,0.1-0.1,0.3-0.2c0,0,0.1,0,0.1,0.1c0-0.1-0.1-0.3-0.2-0.4
		c-0.1,0-0.1,0.1-0.2,0.1c0,0,0-0.1,0-0.3h-0.1c0-0.2,0-0.3,0-0.3c0,0.1-0.1,0.4-0.2,0.8c-0.1,0.2-0.2,0.4-0.2,0.6
		C11.9,18.1,12,18,12.2,17.9z M12.3,28v-0.4h-0.1c0,0.3-0.1,0.6-0.1,0.8C12.1,28.1,12.2,28,12.3,28z M12.7,19.8
		c0-0.4,0.1-0.7,0.3-0.9c0-0.2,0-0.5,0.1-0.9c-0.4,0.1-0.8,0.5-0.9,0.5c0,0.2-0.1,0.3-0.2,0.3c0,0.4,0.1,0.6,0.3,0.6
		c0,0.3,0,0.4,0.1,0.5C12.6,19.8,12.7,19.8,12.7,19.8z M12.9,31.2v-0.3c0.1-0.4,0.2-0.9,0.2-1.7h0.1v-0.6c0,0-0.1-0.1-0.2-0.3h-0.1
		v-0.1h-0.1v0.1c0,0-0.1,0-0.1,0c-0.1,0.3-0.3,0.7-0.5,1.1c0,0.1,0.1,0.2,0.1,0.3h0.1c0,0.1,0,0.4,0.1,0.7h0.1c0,0.2,0,0.4,0,0.4
		h0.1v0.1c0,0,0,0,0.1,0c0,0,0,0.1,0,0.3H12.9z M12.4,23.1c0.2-0.1,0.4-0.3,0.4-0.5c0,0,0.1-0.1,0.2-0.4c0,0-0.1,0-0.1,0
		c-0.2,0.4-0.4,0.7-0.4,0.8h-0.1V23.1z M12.4,24.1L12.4,24.1L12.4,24.1L12.4,24.1L12.4,24.1z M12.4,35.5L12.4,35.5L12.4,35.5
		L12.4,35.5L12.4,35.5z M12.9,24.3c0.4-1,0.6-1.5,0.6-1.7c-0.2,0.2-0.3,0.4-0.3,0.6c-0.1,0-0.2,0.1-0.2,0.2
		c-0.3,0.1-0.4,0.3-0.4,0.7h0.1C12.7,24.2,12.7,24.2,12.9,24.3C12.8,24.3,12.8,24.3,12.9,24.3z M12.9,34.5c0.2-0.4,0.6-1,1.2-1.8
		l0.1-0.4c0-0.1,0-0.3,0-0.5c0,0,0,0,0,0.1c0-0.1,0.1-0.4,0.2-0.7v-0.8c-0.2,0-0.6,0.4-1,1.2c0,0,0,0,0,0.1c0,0.1-0.3,0.9-0.5,0.9
		c-0.1,0.1-0.1,0.4,0,0.7l-0.1,0.5c-0.1,0-0.2-0.2-0.2,0.7L12.9,34.5z M13.3,20.9c0,0,0.1,0,0.2,0l0.1,0.1c0.1-0.4,0.2-0.7,0.2-0.9
		h0.1c0-0.1,0-0.2,0-0.2c-0.1,0.1-0.3,0.4-0.5,0.7c0,0-0.1,0-0.1-0.1c-0.2,0.2-0.3,0.5-0.4,0.8C13.1,21.2,13.2,21.1,13.3,20.9z
		 M13.3,21.9c0,0,0-0.1,0-0.1C13.2,21.8,13.2,21.8,13.3,21.9L13.3,21.9z M13.8,19.2c0-0.1-0.1-0.2-0.2-0.3c0,0,0-0.1,0.1-0.2
		c-0.3,0-0.4,0.3-0.4,0.9C13.6,19.4,13.8,19.3,13.8,19.2z M13.5,22.4L13.5,22.4l0.1-0.1h-0.1V22.4z M13.8,30.1l0.2-0.4h0.2
		c-0.1,0-0.2-0.2-0.4-0.6C13.7,29.4,13.7,29.7,13.8,30.1L13.8,30.1z M14.1,36.1v-0.2c0,0-0.1,0.1-0.1,0.2H14.1z M14.2,35.9l0.3-0.9
		h-0.2C14.2,35.2,14.1,35.5,14.2,35.9L14.2,35.9z M14.6,34.8c0,0,0-0.3,0.1-0.9c0-0.4,0-0.7,0-0.8c-0.2,0.2-0.4,0.6-0.4,1.1
		c0.1,0,0.2,0,0.3,0c0,0.2-0.1,0.4-0.1,0.5H14.6z M14.8,32.3c0,0,0,0.1,0,0.1h0.2c0-0.2-0.1-0.4-0.2-0.8c-0.1,0.4-0.1,0.6-0.1,0.9
		C14.8,32.4,14.8,32.3,14.8,32.3z"/>
	<path d="M30.8,40.5c-0.5-0.1-1.3-0.2-2.3-0.4V40c0,0-0.1,0-0.1,0c-0.1,0-0.2,0-0.3,0v-0.1c0,0-0.1,0-0.3,0c0,0-0.2-0.1-0.5-0.1
		c-0.5-0.2-0.8-0.4-1-0.4c-0.4-0.1-0.8-0.4-1.3-0.8c-0.2,0-0.3-0.1-0.4-0.1v-0.1l-0.4-0.1c-0.1-0.3-1.2-0.6-1.4-0.9
		c0.1,0-0.1-0.1-0.5-0.4c-0.2-0.1-0.4-0.3-0.5-0.3v-0.1c-0.1,0-0.2,0-0.3-0.1c0,0,0-0.1,0-0.2c0,0,0,0-0.1,0c0-0.1-0.2-0.2-0.3-0.4
		c-0.2,0-0.3-0.2-0.4-0.5c-0.1,0-0.2-0.1-0.2-0.3c-0.1,0-0.3-0.4-0.4-0.4c-0.2-0.3-0.5-0.8-0.8-1.5c-0.2-0.9-0.5-2.2-0.9-4V26
		l-0.1-0.3h0.1c0,0,0-0.3,0.1-0.8h-0.1v-0.2h0.1c0-0.3,0.1-0.8,0.1-1.4H19v-0.2c0.2,0,0.1,0,0.2-0.5c0-0.2,0.1-0.2,0.2-0.2l0.1-0.8
		h0.1v-0.2h0.1c0,0,0.2-0.5,0.5-1.3h0.1c0,0,0-0.1,0.1-0.3h0.2v-0.2h0.1c0-0.1,0.1-0.3,0.1-0.5h0.1c0-0.2,0.1-0.4,0.2-0.5
		c0,0,0.1,0,0.2,0c0,0,0-0.1,0-0.1h0.1c0-0.3,0.1-0.4,0.3-0.2c0-0.1,0.1-0.1,0.3-0.1v-0.1c0.1,0,0.2-0.1,0.3-0.1v-0.1h0.1v-0.1h0.1
		c0-0.1,0-0.2,0.1-0.4H23v-0.2c0.1,0,0.2,0,0.3,0V17h0.2c0-0.2,0.1-0.4,0.3-0.4v-0.1H24v-0.1c0,0,0.1-0.1,0.2-0.4h0.2
		c0-0.1,0.2-0.2,0.5-0.3v-0.1c0.3-0.1,0.6-0.2,0.9-0.2v-0.1h0.1v-0.1c0.4-0.2,1-0.4,1.9-0.7c0-0.2,0.2-0.3,0.7-0.2v-0.1
		c0.2-0.1,0.6-0.2,1-0.3c0.2-0.1,0.7-0.2,1.4-0.1c0,0,0,0,0-0.1c0,0,0.1,0.1,0.2,0.1c0.4-0.1,0.7-0.1,0.9-0.1l1.6,0.1
		c0,0-0.1,0,1.2,0.4c0.5,0.1,0.9,0.2,1.1,0.1c0,0,0,0.1,0,0.1c0.1,0,0.3,0,0.4,0.1v0.1c0.1,0,0.4,0.1,0.8,0.3
		c0.8,0.4,0.6,0.4,0.9,0.5v0.1c0.4,0,1,0.8,1.3,0.8c0.2,0.1,0.4,0.4,0.7,0.8h0.1c0,0.1,0.1,0.2,0.1,0.3h0.1c0,0,0,0.2,0.1,0.3h0.1
		c0.1,0.2,0.2,0.2,0.4,0.5H41v0.2h0.1c0,0.1,0.1,0.2,0.2,0.4h0.1c0,0,0,0.1,0,0c0,0.1,0.2,0.3,0.4,0.4c0.1,0.2,0.2,0.5,0.5,0.9
		c0,0,0.1,0,0.2,0v0.2h0.1c0,0,0.1,0.2,0.1,0.3c0.2,0,0.4,0.3,0.6,0.9c0,0,0.4,0.9,0.4,1c0,0.4,0.2,1,0.4,1.7c0,0.3,0.1,0.8,0.3,1.4
		h0.1c0,0.1-0.1,0.2-0.1,0.3h0.1c0,0,0,0.1,0,0.1c0,0.2,0,0.6,0.1,1c0.3,1,0.2,2.2-0.2,3.5c-0.2,0.6-0.5,1.4-0.9,2.6h-0.1
		c0,0.2-0.1,0.4-0.4,0.7c-0.3,0.4-0.5,0.6-0.5,0.8h-0.1c-0.1,0.2-0.3,0.4-0.5,0.9h-0.1c-0.2,0.4-0.3,0.5-0.3,0.4h-0.1v0.1
		c-0.1,0-0.2,0.1-0.3,0.2v0.2H41v0.1c0,0-0.1,0-0.2,0.1v0.1h-0.1c-0.2,0.1-0.4,0.4-0.6,0.7c-0.2,0-1,0.6-1,0.7
		c-0.2,0-0.4,0.1-0.6,0.4h-0.1c-0.3,0.2-1.3,0.8-1.4,0.8v0.1h-0.2v0.1c-0.3,0-0.5,0.1-0.8,0.2c-0.4,0-0.6,0.1-0.9,0.2
		c0,0-0.1,0.1-0.4,0.2c-0.3,0-0.5,0-0.5,0.1c-0.7,0-1.3,0-1.7,0.1c0,0,0,0.1,0,0.1c0,0-0.1-0.1-0.2-0.1c-0.8,0-1.3,0-1.6,0.1V40.5z
		 M19.4,28.4L19.4,28.4c-0.1,0.5,0,0.8,0,0.9V28.4z M19.4,28.3L19.4,28.3l0.1-0.1h-0.1V28.3z M19.9,26.6L19.9,26.6
		c0-0.3,0-0.4,0-0.6V26.6z M19.9,26.6c0,0.2,0,0.4,0,0.5C19.9,27,19.9,26.8,19.9,26.6z M20.1,29.2c0-0.2,0-0.6-0.1-1
		C19.9,28.3,19.9,28.7,20.1,29.2C20,29.2,20,29.2,20.1,29.2z M20,25.3c-0.1,0-0.1,0.2-0.1,0.6C20,25.6,20,25.4,20,25.3z M19.9,28
		v-0.7V28z M20.2,24.2c0.2-0.2,0.3-0.4,0.3-0.7c0,0,0,0,0.1,0c0-0.2,0-0.3,0-0.4l0.1,0.1c0.4-0.9,0.6-1.5,0.8-1.9
		c0.3-0.8,0.4-1.2,0.5-1.2l0.1-0.4c-0.4,0.7-0.6,1.2-0.8,1.6c-0.1,0-0.2,0.1-0.3,0.2l-0.1-0.1h-0.2c0-0.1-0.1-0.2-0.2-0.3l-0.1,0.1
		c0,0,0,0.2,0,0.4c0,0.2-0.1,0.4-0.2,0.8c0,0.5-0.3,2.1-0.3,2.8C20.1,24.9,20.2,24.6,20.2,24.2z M20.8,34c0-0.3,0-0.7,0-1.3
		c0-0.2,0-0.4-0.1-0.7h-0.1c-0.1-0.5-0.2-0.9-0.2-1.1h-0.1c0-0.1-0.1-0.3-0.1-0.5H20l0.3,2.2c0,0.2,0.2,0.7,0.4,1.4H20.8z
		 M20.6,27.4L20.6,27.4L20.6,27.4L20.6,27.4L20.6,27.4z M33,37.9c0.5,0.1,0.7,0.1,0.7,0h0.5c0,0,0-0.1,0-0.1
		c0.4,0.1,0.5,0.1,0.5-0.1c0.1,0.1,0.3,0.1,0.6,0c0.3-0.1,0.5-0.2,0.5-0.4H36c0-0.1,0.1-0.2,0.2-0.2v-0.1l0.5-0.2l0.4-0.4
		c0.2,0,0.5-0.3,0.7-0.3v-0.1c0.3-0.2,0.7-0.5,1.1-0.8c0.3-0.5,0.5-0.8,0.8-0.8v-0.1c0.5-0.4,0.8-0.9,0.9-1.6c0,0,0.1-0.1,0.1-0.3
		h0.1v-0.2c0.1,0,0.1-0.1,0.2-0.1v-0.1h0.1c0-0.3,0.3-1.2,0.4-1.2c0.1-0.8,0.3-1.3,0.4-1.8c0-0.3,0-0.9,0-1.5
		c-0.1-0.8-0.2-1.4-0.2-1.8h-0.1c-0.4-0.9-0.5-1.4-0.5-1.7c0,0,0,0-0.1,0c-0.2-0.4-0.5-1-0.8-1.9c-0.1-0.3-0.4-0.7-0.6-1.2
		c0-0.3-0.4-0.8-1-1.5h-0.1c0-0.1-0.1-0.2-0.2-0.3c-0.7-0.4-1.2-0.7-1.3-1c-0.1-0.1-0.3-0.2-0.5-0.3c-0.2-0.3-0.5-0.5-0.7-0.5
		c0-0.1-0.4-0.2-1.1-0.3c-0.6-0.1-1-0.1-1.3-0.1l-0.1-0.1c0,0-0.3,0-0.8-0.1c-0.4,0-0.6,0-0.8,0c-0.1-0.1-0.5-0.2-1.2-0.2
		c0,0-0.1,0.1-0.2,0.2h-0.1v0.1c-0.2,0-0.3-0.2-0.3-0.4c-0.7,0-1.2,0-1.4,0.1c-0.1-0.2-0.4,0-0.6,0.4c-0.1,0-0.3,0-0.3,0l-0.1-0.2
		c-0.1,0-0.2,0-0.2,0.2c-0.1,0-0.1,0-0.1-0.1c0,0-0.9,0.2-1.3,0.4v0.1c0,0-0.2,0-0.5,0.2v0.1h-0.2c0,0.1-0.1,0.2-0.2,0.3
		c-0.1,0-0.2,0.1-0.2,0.2c-0.2,0-0.4,0-0.5,0l-0.1,0.2c0,0-0.1,0-0.2,0c0,0-0.1,0.2-0.1,0.3c0,0-0.3,0.2-0.7,0.7
		c-0.4,0.8-1,2-1.7,3.5h-0.1c-0.2,0.5-0.5,1.3-0.7,2.3c-0.1,0.6-0.1,1.1-0.2,1.5c0,0.7,0.1,1.7,0.3,3h0c0.1,0.6,0.4,1.3,0.7,2.1h0.1
		c0.4,0.9,0.7,1.3,1,1.5c0.1,0.2,0.2,0.3,0.3,0.4c0,0,0.1,0,0.1,0v0.2c0.3,0.1,0.5,0.3,0.5,0.5l0.1-0.1c0.4,0.2,0.9,0.6,1.4,1.1
		c1,0.4,1.5,0.7,1.4,0.7v0.1l0.7,0.2l0.1,0.2c0.2,0,0.4,0.1,0.5,0.1v0.1c0.2,0,0.4,0,0.4,0.1c0.4,0.1,0.9,0.4,1.6,0.6
		c0.3,0.1,0.9,0.3,2.2,0.6C32.3,38.1,32.7,38.1,33,37.9z M20.6,21v-0.2V21z M21.9,34.4c0-0.1,0.1-0.4,0.3-0.6c0-0.2-0.6-0.9-0.6-1.1
		h-0.1v0.4c0,0,0.1,0,0.2,0L21.9,34.4z M23,36.6c0-0.1-0.1-0.3-0.1-0.7c0,0-0.1,0-0.1,0c0-0.5,0-0.9,0-1.1c0-0.1-0.1-0.2-0.1-0.3
		c0,0,0,0.1-0.1,0.2h-0.1c0,0.4-0.1,0.7-0.1,0.9c0,0.2,0.1,0.4,0.3,0.7v0.1C22.7,36.4,22.8,36.4,23,36.6L23,36.6z M24.1,37.3
		c-0.1-0.4-0.2-1-0.4-1.8h-0.1c0,0.5,0,0.9,0,1.2c0,0-0.1,0-0.3,0C23.4,36.7,23.4,36.9,24.1,37.3L24.1,37.3z M24.9,16.9L24.9,16.9
		l0.1-0.2c0,0,0,0-0.1,0V16.9z M25.1,37.8c0-0.1-0.1-0.4-0.2-0.7C24.9,37.5,24.9,37.8,25.1,37.8C25,37.8,25,37.8,25.1,37.8z
		 M25.8,36.7c0-0.2-0.1-0.4-0.4-0.4c0,0.4,0.1,0.7,0.2,0.9C25.8,37.1,25.8,36.9,25.8,36.7z M26.6,38.5c-0.1-0.5-0.2-0.9-0.3-1.2
		h-0.1c0,0.2,0,0.4-0.1,0.8h0.1l-0.1,0.3h0.2c0,0,0,0.1,0,0.1H26.6z M27.2,37.3L27.2,37.3c0,0-0.2-0.1-0.4-0.3
		c0.1,0.3,0.2,0.5,0.2,0.7L27.2,37.3z M27.1,16h0.1C27.2,16,27.1,16,27.1,16L27.1,16z M27.3,15.9C27.2,15.8,27.2,15.8,27.3,15.9
		C27.2,15.8,27.2,15.8,27.3,15.9L27.3,15.9z M27.3,15.9c0.1,0,0.3,0,0.5-0.1c0,0,0-0.1,0-0.2l-0.4,0.1V15.9z M28.2,39.3v-0.4
		c0,0-0.1,0-0.1,0v-0.3c0,0-0.1,0-0.2-0.1c0,0,0-0.1,0-0.3c0-0.1-0.1-0.2-0.2-0.2l-0.3,1c0,0,0.2,0.1,0.7,0.3H28.2z M28.4,15.4
		c0,0,0.1-0.1,0.2-0.3c0.2,0,0.6-0.5,1-0.4c0-0.1,0-0.2,0-0.2l-0.8,0.4c0,0,0,0,0-0.1h-0.2V15h-0.2L28.4,15.4z M28.8,37.9
		c0,0-0.2-0.1-0.3-0.2c0,0.2,0,0.4,0.2,0.7C28.7,38.3,28.7,38.1,28.8,37.9z M29.1,15.7c0,0,0.3,0,0.8,0c0-0.1,0-0.3,0.1-0.5
		C29.6,15.2,29.3,15.3,29.1,15.7L29.1,15.7z M29.8,39.7c-0.1-0.4-0.2-0.9-0.3-1.6c-0.1,0-0.2,0.2-0.3,0.6c0,0.4,0,0.6,0,0.8
		c0,0,0.2,0,0.3,0.1H29.8z M29.7,14.6c0,0,0.1,0,0.1-0.2h-0.1V14.6z M29.9,14.6h0.2C30.1,14.5,30.1,14.5,29.9,14.6l0.1-0.2h-0.2
		L29.9,14.6L29.9,14.6L29.9,14.6z M29.9,15.4L29.9,15.4L29.9,15.4L29.9,15.4L29.9,15.4z M30.2,38.6h0.1v-0.2h-0.1V38.6z M30.8,39.9
		c0,0,0-0.1,0.1-0.2h0.1v0.1c0,0,0.1,0,0.1,0v-0.1c0.2,0.1,0.3,0.1,0.3,0.1v-0.2h-0.2c0-0.1,0-0.2,0.1-0.2v-0.1h-0.1
		c0-0.1,0-0.2,0-0.4c0,0-0.1-0.2-0.1-0.3C30.8,38.8,30.7,39.2,30.8,39.9L30.8,39.9z M30.9,15.7c0.1,0,0.3,0.1,0.5,0.2
		c0-0.4,0.1-0.8,0.4-0.9l-0.1-0.3l-0.1,0.1c-0.4,0-0.6,0.1-0.6,0.4h-0.1c0,0.2-0.1,0.3-0.1,0.3c0,0,0,0.2,0.1,0.4
		C30.9,15.8,30.9,15.7,30.9,15.7z M31.8,39L31.8,39l0.1-0.3h-0.1V39z M32.5,39.8L32.5,39.8c0-0.1,0.1-0.1,0.2,0v-0.1h0.6v-0.3
		c-0.1,0-0.2,0-0.2,0.1c0,0,0,0,0-0.1c0,0-0.1,0-0.4,0.1c-0.1,0-0.2,0-0.2,0h-0.2c0,0,0,0.2,0.1,0.3H32.5z M32.7,16h0.4l0.3-1.2
		h-0.1V15h-0.1c0,0,0-0.1,0-0.1c-0.2,0-0.4-0.1-0.5-0.1c0,0,0,0,0.1,0.1c0,0,0,0.1-0.1,0.1c0,0.1-0.1,0.3-0.1,0.4
		c0,0.2-0.1,0.4-0.1,0.5L32.7,16L32.7,16z M34.3,16.3c0.1,0,0.1-0.5,0.2-0.6c0.1-0.4,0.1-0.6,0.1-0.6c0,0-0.1,0-0.1,0v-0.1
		c0,0-0.1,0-0.2,0v0.1h-0.1c0,0.4,0,0.7-0.2,0.7v0.3C34.1,16.2,34.2,16.2,34.3,16.3L34.3,16.3z M34.1,15.1c0,0,0,0.1,0,0.1
		C34.1,15.1,34.1,15.1,34.1,15.1z M34.6,39.6l0.2,0.1c0,0,0,0,0-0.1l0.5-0.2c0-0.2-0.1-0.4-0.1-0.8c-0.3,0-0.5,0.3-0.8,0.8
		C34.5,39.5,34.5,39.6,34.6,39.6C34.6,39.7,34.6,39.7,34.6,39.6z M35.5,15.3h0.1l-0.1-0.1V15.3z M36,38.4c0,0-0.1,0-0.2,0
		c0,0,0,0.1,0.1,0.2L36,38.4z M36.8,39v-0.1c0,0,0.1,0,0.1,0.1c0.2-0.1,0.4-0.3,0.5-0.4c0,0-0.1,0-0.1,0l-0.1-0.5
		c-0.4,0.4-0.6,0.8-0.7,1.1C36.5,39,36.6,39,36.8,39z M37.8,16.2c-0.2,0-0.4-0.1-0.5-0.4c0,0,0,0.1,0,0.2h0.1c0,0.1,0,0.2,0,0.3
		c0,0,0.1,0,0.1-0.1c0,0,0.1,0.1,0.2,0.3C37.8,16.4,37.8,16.3,37.8,16.2z M37.9,36.8c0,0-0.1,0-0.2,0c0,0,0,0.1,0,0.1
		C37.8,36.9,37.9,36.9,37.9,36.8z M38.1,16.3h-0.1c0,0,0,0.1,0.1,0.2C38,16.5,38,16.4,38.1,16.3z M38.2,36.6c0,0,0-0.1,0.1-0.1h-0.1
		V36.6z M38.3,16.5L38.3,16.5c-0.1,0,0,0.1,0,0.2V16.5z M39.1,37.5c0-0.1-0.1-0.4-0.2-0.6l-0.3,0.3c-0.1,0.2-0.1,0.3-0.2,0.4
		c0,0.3,0,0.4-0.1,0.4C38.5,37.9,38.9,37.5,39.1,37.5z M38.6,16.6h-0.1c0,0,0,0.1,0,0.1C38.5,16.7,38.5,16.7,38.6,16.6z M38.6,16.9
		L38.6,16.9c0-0.1,0-0.1,0-0.1V16.9z M39.1,17.3L39.1,17.3L39.1,17.3L39.1,17.3L39.1,17.3z M39.4,35.7h0.1c0,0,0-0.1,0-0.2h-0.2
		V35.7z M39.7,35.3c0,0,0,0.1-0.1,0.2C39.6,35.5,39.7,35.4,39.7,35.3z M39.8,35.3L39.8,35.3l0-0.1h0V35.3z M40.1,36.6l0.1-0.1h-0.1
		V36.6z M41,35.6c0-0.1,0.1-0.2,0.2-0.4c0,0-0.1,0-0.1,0v0.2c-0.4,0.3-0.7,0.6-0.9,1C40.4,36.2,40.6,35.9,41,35.6z M41.5,23.4
		c-0.5-1.2-0.9-2.2-1.2-2.7c0,0,0,0.4,0.2,0.9c0.2,0.5,0.4,0.8,0.5,0.8C41,22.6,41.2,23,41.5,23.4L41.5,23.4z M41.5,23.6
		c0,0,0-0.1,0.1-0.1h-0.1V23.6z M41.5,34L41.5,34l0-0.1h0V34z M41.6,23.7c0,0.1,0,0.4,0.1,0.6C41.7,24.2,41.7,24,41.6,23.7z
		 M41.6,33.8L41.6,33.8L41.6,33.8L41.6,33.8L41.6,33.8z M41.9,33.4H42c0,0,0.1-0.2,0.2-0.4c0.1,0,0.3-0.2,0.4-0.5h0.1l-0.1-1.3
		c-0.1,0-0.2,0.2-0.2,0.7c-0.2,0.2-0.2,0.3-0.4,0.8H42c-0.2,0.8-0.3,1.1-0.3,1C41.8,33.6,41.8,33.4,41.9,33.4z M42.4,25.8
		c0-0.1-0.2-0.5-0.5-1.3h0c0,0.5,0.6,2,0.6,2.4C42.5,26.7,42.4,26.3,42.4,25.8z M42.5,22.5L42.5,22.5L42.5,22.5L42.5,22.5L42.5,22.5
		z M43.1,23.8h0.1c-0.1-0.3-0.3-0.7-0.5-1.3c0,0.1-0.1,0.3-0.1,0.4h0.1c0,0.1,0.1,0.4,0.3,0.7V23.8z M43.6,26.6l-0.1-1.3
		c-0.2-0.5-0.3-0.7-0.3-0.6h-0.1c0,0.2,0,0.4,0,0.8c0,0,0.1,0.2,0.2,0.3c0,0,0,0-0.1,0V26c0,0,0.1,0,0.1,0v0.5h0.1
		C43.4,26.5,43.5,26.6,43.6,26.6C43.5,26.6,43.6,26.6,43.6,26.6z M43.5,31.4c0.2-0.8,0.5-1.8,0.7-3.2c0,0-0.1,0-0.1,0l-0.5,1.9
		c-0.3,0.6-0.3,1.1-0.2,1.6C43.4,31.7,43.4,31.5,43.5,31.4z M43.3,25.3L43.3,25.3L43.3,25.3L43.3,25.3L43.3,25.3z M43.4,28.7V28
		C43.4,28.1,43.3,28.3,43.4,28.7L43.4,28.7z M43.3,33.2L43.3,33.2L43.3,33.2L43.3,33.2L43.3,33.2z M44,23.5L44,23.5L44,23.5L44,23.5
		L44,23.5z M45.5,25.9L45.5,25.9L45.5,25.9L45.5,25.9L45.5,25.9z M45.9,26.5c-0.2-0.4-0.3-0.6-0.2-0.8
		C45.7,25.7,45.9,25.9,45.9,26.5L45.9,26.5z"/>
	<path d="M47.4,40.4c0-0.6-0.1-1.5-0.2-2.6c0-4,0-6.5,0-7.7c0-1.1-0.1-2.7-0.1-4.9c0.1-1,0.2-2.6,0.4-4.7v-2.8c0-0.9,0-2.1,0-3.5
		c0,0,0.1,0,0.2,0c0-0.2,0.1-0.4,0.2-0.6c0,0,0.5-0.5,0.5-0.5h0.6c0.1,0.5,0.3,0.7,0.5,0.6c0,0,0.3,0,0.7-0.2
		c0.2,0.1,0.4,0.2,0.5,0.3c0,0.2-0.1,0.4-0.3,0.5c-0.2,1.2-0.4,2.6-0.4,4.1c0,0.9,0,2.2,0.1,3.7c0.1,1.7,0.2,3,0.2,3.7
		c0,1.5,0,3.5,0,6.1c0,3-0.1,5-0.1,6.1c0.5,0,0.9,0,0.9-0.1c0,0.1,0.5,0.1,0.5,0.1c0.1-0.1,0.2-0.1,0.3-0.1v0.1c0.1,0,0.3,0,0.6-0.1
		v0.1c0.2,0,0.5,0,0.8-0.1c0.1,0.1,0.4,0.1,0.9,0c0.5-0.1,0.9-0.1,0.9,0c0.1,0,1-0.1,2.7-0.1c0-0.2,0.3-0.2,0.8,0
		c0.1-0.1,0.4-0.1,0.9,0l0.2-0.1c0.1,0.3,0.3,0.4,0.5,0.4v0.2h-0.1c-0.1,0.1-0.1,0.3-0.2,0.4c0,0.1,0,0.3,0.1,0.6c0,0,0.1,0,0.2,0
		v0.4c-0.1,0-0.2,0.1-0.2,0.2c-0.2,0-0.5,0-0.6,0.1c-0.1,0-0.5-0.1-1-0.1c0,0-0.1,0-0.1,0c-0.1,0-0.4,0-0.6,0c-0.6,0-1.3,0-2.2,0
		c-0.7-0.2-1.6-0.2-2.7-0.1c-0.1-0.1-0.5-0.1-1.1,0.1v-0.1c-0.2,0-0.5,0.1-0.9,0.3c0-0.1,0-0.1-0.2-0.1c-0.3,0-1.3,0.3-1.3,0.3v0.1
		c0,0-0.1,0-0.1,0c-0.1,0-0.3,0-0.4,0.1v0.1h-0.1c0,0,0-0.1,0-0.1c-0.1,0-0.3,0.1-0.3,0.1l-0.3-0.3c-0.2,0.1-0.4,0.2-0.5,0.3
		C47.5,40.5,47.4,40.4,47.4,40.4z M48,17.6c0-1.8,0.1-2.7,0.5-2.6c0,0,0-0.1,0.1-0.3c-0.1,0-0.2,0-0.3,0c0-0.1-0.2-0.1-0.2-0.3H48
		c0,0.1,0.1,0.3,0.1,0.4c-0.2,0.2-0.3,1.1-0.3,2.7L48,17.6z M48.3,38.9c0,0,0.1,0,0.2,0h0.1c0,0,0-0.1,0-0.1h0.5c0-0.1,0-0.2,0-0.2
		c0,0-0.1,0-0.2,0c-0.1-0.3-0.2-0.5-0.3-0.5v-0.2c0,0-0.1,0-0.1,0.1c0,0-0.2-0.1-0.3-0.2v-1c-0.4,0.8-0.4,1.5,0,2.2
		C48.2,39,48.3,39,48.3,38.9z M48,14.1c0,0.1,0,0.3,0,0.4C48,14.4,48,14.2,48,14.1z M48.2,23.6c0-0.4-0.1-0.9-0.1-1.7
		C48,21.9,48.1,22.5,48.2,23.6L48.2,23.6z M48.2,23.7L48.2,23.7L48.2,23.7z M48.2,24L48.2,24l0.1-0.2h-0.1V24z M48.2,34.9L48.2,34.9
		l0.1-0.1h-0.1V34.9z M48.3,34.2c0.1-0.1,0.2-0.5,0.2-1.2c0.2-0.1,0.3-0.8,0.3-1.9h-0.1v-0.2c0,0,0,0.1,0.1,0.1c0-1.8,0-3.2,0-4.1
		c0,0-0.1-0.1-0.1-0.2c0,2.1-0.1,3.2-0.3,3.4c0,0,0,0-0.1,0V34.2z M48.7,26.5l0.1-0.2h-0.1V26.5z M48.8,36c0-0.5,0.1-0.9,0.1-1.2
		l0.1-0.4h-0.1L48.8,36z M49.1,19.3L49.1,19.3l0.2-0.2c0,0,0.1,0,0.1,0.1h0.1l0.2-4.3h-0.1c0,0.1-0.1,0.4-0.1,0.7
		c-0.2,0.1-0.4,1.2-0.4,3.3h0.1c0,0,0,0-0.1,0c0,0.1-0.1,0.2-0.1,0.4H49.1z M49.7,31.5c0-0.5,0-1.8,0.1-3.9c0-0.6,0-1,0-1.3
		c0-0.2,0-0.3,0.1-0.4c0-0.2-0.1-0.8-0.1-1.9h-0.1l-0.2-3.6c0,0.3-0.1,0.7-0.2,1.2c0,2.6-0.1,3.9-0.1,3.9c0,0.7,0.1,2.2,0.3,4.5v0.6
		h0.1C49.6,31.1,49.6,31.4,49.7,31.5C49.7,31.5,49.7,31.5,49.7,31.5z M49.4,18.8v-0.2h0L49.4,18.8L49.4,18.8z M49.4,29.4L49.4,29.4
		L49.4,29.4L49.4,29.4L49.4,29.4z M49.4,37.5h0.2c0-0.5,0-0.9,0-1.2h-0.1c0,0.4,0,0.7,0,0.9h-0.1V37.5z M49.7,32c0-0.1,0-0.2,0-0.4
		l-0.1,0.1C49.6,31.9,49.6,32,49.7,32C49.7,32.1,49.7,32,49.7,32z M49.8,32.6c0-0.2-0.1-0.3-0.1-0.4h-0.1c0,0.1,0,0.3,0,0.4H49.8z
		 M49.7,34L49.7,34c-0.1,0.2-0.1,0.4,0,0.5C49.7,34.5,49.7,34.3,49.7,34z M49.6,36.2L49.6,36.2c0.1-0.1,0-0.3,0-0.5V36.2z
		 M49.8,14.3c-0.1,0-0.1,0.1-0.1,0.2c0,0,0,0,0.1,0.1V14.3z M49.6,14.9C49.7,14.8,49.7,14.8,49.6,14.9v-0.1V14.9z M49.6,27.9
		L49.6,27.9L49.6,27.9L49.6,27.9L49.6,27.9z M49.8,32.7L49.8,32.7c-0.1,0.1-0.1,0.2-0.1,0.4C49.7,32.9,49.7,32.8,49.8,32.7z
		 M49.7,25.4C49.7,25.4,49.7,25.4,49.7,25.4C49.7,25.4,49.7,25.4,49.7,25.4z M49.7,33.5L49.7,33.5l0.1-0.2h-0.1V33.5z M51.6,38.8
		L51.6,38.8c0.1,0,0.2,0,0.3,0c0,0,0.5-0.1,0.5-0.1c0,0,0,0,0.1,0.1c0,0,0.1-0.1,0.2-0.1c0.1,0.1,0.6,0.1,1.4-0.1c0,0,0,0,0-0.1
		c0,0-0.1,0-0.1,0c-0.3-0.2-0.5-0.3-0.5,0c-1,0-1.5,0-1.5,0.2c-0.2-0.1-0.4-0.1-0.4,0c-0.3,0-0.5,0-0.5-0.1c0,0,0,0,0,0.1l-0.1-0.1
		c0,0.1-0.1,0.1-0.1,0.2l-0.1-0.1v0.2h0.3c0,0,0,0.1,0,0.1c0.1,0,0.2-0.1,0.2-0.1c0,0,0.1,0.1,0.3,0.2
		C51.5,38.9,51.6,38.9,51.6,38.8z M54.2,38.7l0.1-0.2h-0.1V38.7z M54.4,38.7C54.4,38.7,54.4,38.7,54.4,38.7l0.1-0.3l-0.1,0.1V38.7z
		 M54.6,39.2c0,0,0,0.1,0,0.1C54.6,39.2,54.6,39.2,54.6,39.2z M55.1,39.2c0,0-0.1,0-0.3,0c0,0.2,0.1,0.3,0.2,0.3
		C55.1,39.4,55.1,39.3,55.1,39.2z M55.9,39.4c0-0.1-0.1-0.2-0.1-0.3h-0.6c0,0,0,0.1,0,0.2c0,0,0.2,0,0.5,0.1H55.9z M57.3,39.4v-0.2
		c0,0-0.1,0-0.2,0.1C57.1,39.3,57.2,39.3,57.3,39.4L57.3,39.4z M57.1,39.4L57.1,39.4L57.1,39.4L57.1,39.4L57.1,39.4z M58.3,39.4
		c0,0,0-0.1,0.1-0.1h0.1v-0.1c0,0,0,0.2,0.3,0.2c0-0.2,0.1-0.4,0.2-0.6c-0.2,0.1-0.3,0.2-0.4,0.3c-0.2-0.1-0.4-0.1-0.5,0
		c0,0-0.1,0-0.1,0v0.1h-0.4c0,0,0,0.1,0,0.3C58.1,39.2,58.3,39.2,58.3,39.4z"/>
	<path d="M66.3,40.6h-0.2c0-0.1-0.1-0.2-0.2-0.4h-0.1v-0.3c0,0,0.1,0,0.1,0.1c0-0.7,0-1,0-1v-2c0,0,0-0.4-0.1-1.1
		c0-0.1,0-0.3-0.1-0.3c0-0.6,0-1.6-0.1-2.8c0-1.3,0-2.2,0-2.8l-0.1-0.3c-0.1,0-0.2-0.5-0.2-1.7l-0.2-0.2c0-0.2,0.1-0.4,0.2-0.7
		c0-3.9,0-6,0-6.2c0-0.4-0.1-0.7-0.1-0.8c0-0.9,0.1-1.8,0.2-2.8c0-0.2-0.1-0.6-0.1-1.1h-0.2c0,0,0-0.1,0-0.2
		c0.1-0.1,0.1-0.3,0.1-0.6c0-0.5-0.1-0.8-0.1-0.7c0-0.3,0-0.4,0-0.6c0.3,0,0.6-0.2,0.9-0.5h0.1c0.1,0.3,0.8,0.1,1,0.3
		c0,0,0.4-0.1,1-0.1l0.1-0.1c0,0,0.1,0.1,0.3,0.1c0-0.1,0.2-0.1,0.6-0.1c0,0,0,0.1,0,0.1h0.1c0-0.1,0.1-0.2,0.4-0.2
		c0.3,0,0.5,0,0.5,0c0,0,0.2-0.1,0.3-0.1v0.1h0.1v-0.1c0.1,0,0.2,0,0.4,0.1c0.1,0,0.3,0,0.6-0.1c0,0,0,0,0.1,0.1
		c0.1,0,0.3,0,0.3,0.1c0.9,0.1,2.4,0.4,4.4,0.6c0.2,0,0.5,0.1,0.8,0.2c0.2,0.4,0.9,0.6,1.9,0.8c0.3,0.1,0.6,0.2,0.7,0.3l0.2,0.2
		c0,0.1,0.1,0.2,0.2,0.3v0.1c0,0,0.2,0.1,0.6,0.4c0.3,0.2,0.6,0.3,0.7,0.3c0.2,0.4,1.1,1.3,1.5,1.5c0,0.1,0.2,0.3,0.3,0.4
		c0,0.4,0.3,0.8,0.8,1c0,0,0.2,0.4,0.6,1.1c0.2,0.6,0.5,1.4,0.9,2.4c0.1,0.7,0.1,1.7,0,3.1c-0.3,1.7-0.5,2.8-0.6,3.4
		c-0.3,1.2-0.6,2.2-1,3.2c0,0.1-0.1,0.2-0.1,0.3c-0.1,0.2-0.3,0.4-0.5,0.8c0,0.1-0.1,0.4-0.3,0.8h-0.1c-0.4,0.8-0.8,1.3-1.2,1.6v0.1
		H82c0,0.1-0.3,0.4-0.9,0.7c-0.5,0.3-0.8,0.5-0.9,0.5V38c-0.1,0-0.1,0-0.2,0c0,0-0.4,0.2-0.4,0.4c-0.2,0-0.5,0.1-0.8,0.4l-0.1-0.1
		c-0.1,0.1-0.2,0.1-0.2,0c-0.4,0.3-0.7,0.4-0.9,0.4c0,0,0,0.1,0,0.1c-0.4,0-0.7,0.1-0.9,0.3c-0.9,0-1.4,0.1-1.6,0.3l-0.1-0.1
		C75,39.8,75,39.9,75,39.9c0,0,0-0.1-0.1-0.1c-0.1,0-0.2,0.1-0.3,0.2c0,0,0-0.1,0-0.1c0,0,0,0.1-0.1,0.1c-0.6,0-2.2,0.3-2.8,0.3
		c0,0,0,0-0.1,0c-0.1,0-0.2,0-0.4,0.1h-4.1c0,0.1,0,0.3-0.1,0.5c-0.1,0-0.2,0.1-0.3,0.2C66.6,41,66.4,40.9,66.3,40.6z M65.7,26
		L65.7,26l0.1-0.1h-0.1V26z M65.7,26.3L65.7,26.3L65.7,26.3L65.7,26.3L65.7,26.3z M65.8,35.2L65.8,35.2L65.8,35.2L65.8,35.2
		L65.8,35.2z M66.3,17.9c0,0,0-0.2,0-0.3C66.3,17.8,66.3,17.9,66.3,17.9L66.3,17.9z M66.4,15.2c0,0,0-0.1,0-0.2h-0.1
		c0,0.1,0,0.1,0,0.2H66.4z M66.3,16.8c0,0,0-0.1,0.1-0.1h-0.1V16.8z M66.4,15.9C66.5,15.9,66.5,15.8,66.4,15.9c0-0.1,0-0.2,0-0.2
		V15.9z M66.7,24.8c-0.1,0-0.2,0.1-0.2,0.3C66.5,25,66.6,24.9,66.7,24.8z M66.6,27L66.6,27L66.6,27L66.6,27L66.6,27z M66.9,15.7
		h-0.2v0.2h0.1L66.9,15.7c-0.1,0.1,0,0.2,0,0.3V15.7z M66.7,26.9L66.7,26.9l0-0.1h0V26.9z M66.8,25.8c0,0,0.1,0,0.5-0.5
		c0.1-0.1,0.3-0.2,0.5-0.2c0-0.4,0-0.9,0-1.6c0,0-0.2,0.5-0.3,0.5c0,0.1-0.1,0.4-0.1,0.6c-0.1,0.1-0.2,0.4-0.3,0.7h-0.1L66.8,25.8z
		 M67.2,17.2c0-0.4,0-0.6,0-0.8c0,0-0.1,0-0.1,0c0,0.2,0,0.5,0,0.9L67.2,17.2z M67.7,22.7c0-0.4-0.1-0.9-0.1-1.6
		c0-0.1,0-0.3,0.1-0.5c0,0-0.1,0-0.2,0v0.1c-0.1,0-0.3,0-0.5,0.1l0.1,1.8c0.1-0.1,0.3,0,0.5,0.1H67.7z M67,20.6L67,20.6L67,20.6
		L67,20.6L67,20.6z M67.1,20.2c0.3-0.1,0.4-0.9,0.3-2.2c-0.2,0.4-0.3,0.8-0.1,1.1c-0.1,0-0.1,0-0.1,0.1V20.2z M67.2,23.3
		c-0.1,0-0.1,0.1-0.1,0.1c0,0,0,0.1,0,0.2C67.2,23.5,67.2,23.4,67.2,23.3z M67.3,37.5c0-0.3-0.1-0.8-0.1-1.5h-0.1
		c0,0.3,0,0.9,0.1,1.6L67.3,37.5z M67.5,39.7v-0.1c0.1,0,0.3,0,0.5,0.1c0,0,0.1-0.2,0.1-0.4c-0.2,0-0.1,0-0.8-0.3
		C67.1,39.2,67.1,39.4,67.5,39.7L67.5,39.7z M67.7,27.3v-1h-0.1c-0.3,0.5-0.4,0.8-0.4,0.9h0.2v-0.1h0.1c0,0,0,0.1,0.1,0.2H67.7z
		 M67.6,28.7c0,0,0.1,0,0.1,0.1L67.7,28h-0.1v0.3h-0.1c0,0.1-0.1,0.3-0.2,0.5c0,0,0,0.2,0.1,0.3C67.3,29,67.5,28.8,67.6,28.7z
		 M67.4,38.5c0,0.1,0,0.3,0,0.3C67.6,38.7,67.5,38.5,67.4,38.5z M67.5,30.9c0,0,0.1-0.1,0.1-0.2h0.1c0-0.5,0-0.8-0.1-0.8v0.4h-0.2
		V30.9z M67.8,32.7h0.1c0,0,0,0,0,0.1c0-0.4,0-0.8-0.1-0.9c0,0.3-0.1,0.7-0.2,1.3C67.7,32.9,67.7,32.8,67.8,32.7z M67.7,23.5
		c0-0.1,0-0.3,0.1-0.3h-0.1V23.5z M70,37.9L70,37.9c0.2,0,0.5,0,0.8,0.1v-0.1c0.9,0,1.4,0,1.5-0.1c0.2,0,0.4,0,0.4-0.1l0.1,0.1
		c0.2-0.2,0.9-0.1,1.1-0.2c0.3,0,0.8,0,1.4-0.3c0,0,0.1,0,0.2,0c0,0,0-0.1,0-0.1c0.1,0,0.3,0,0.3-0.1c0.2,0.1,0.8-0.1,1.7-0.6
		c0,0,0,0,0,0.1c0.2-0.2,0.5-0.4,1-0.5c0.3-0.1,0.6-0.3,0.9-0.5v-0.1c0.1-0.1,0.4-0.3,0.6-0.6c0.1-0.1,0.4-0.4,0.7-0.9
		c0.4-0.5,0.6-0.9,0.6-1h0.1c0-0.2,0.2-0.4,0.2-0.6h0.1c0-0.1,0-0.3,0-0.3H82v-0.3h0.1c0.2-0.6,0.5-1.4,0.9-2.5
		c0-0.3,0.1-0.7,0.2-1.2h0.1v-0.4c0,0-0.1,0-0.1,0c0,0,0.1,0,0.1-0.1v-1.1c0,0-0.1-0.1-0.2-0.1v-2c0,0-0.2-0.4-0.3-1.2
		c-0.1-0.8-0.3-1.1-0.4-1.1c0-0.1-0.1-0.4-0.3-0.8C82,20.9,82,20.6,82,20.4h-0.1c0,0-0.1-0.2-0.2-0.3h-0.2v-0.2
		c-0.3-0.1-0.5-0.3-0.6-0.6c-0.1-0.1-0.3-0.2-0.5-0.4l-0.1,0.1c-0.1-0.2-1.1-0.7-1.1-0.9c-0.1,0-0.3-0.1-0.5-0.2c0,0,0,0-0.1,0.1
		v-0.1h-0.1c0-0.1-0.1-0.2-0.2-0.3c0,0-0.1,0-0.1,0c0,0,0-0.1-0.1-0.1c0,0-0.1,0-0.1,0.1v-0.1c-0.1,0-0.4-0.1-0.6-0.2l-0.1,0.1
		c-0.1,0-0.3-0.1-0.5-0.2c-0.1,0.1-0.1,0.1-0.1,0c-0.4-0.1-0.7-0.2-0.9-0.3c0,0,0,0,0,0.1c-0.1-0.1-0.4-0.2-0.9-0.3
		c-0.5-0.1-0.7-0.2-0.7-0.3h-0.4c0-0.1-0.3-0.1-0.7-0.1c0,0,0-0.1,0-0.1h-0.2v-0.1c-0.1,0-0.3,0-0.3,0v0.1v-0.1h-0.8v0.1
		c-0.1,0-0.2,0-0.2-0.1c0,0-0.1,0.1-0.1,0.2h-0.1v-0.1l-0.1,0.1c0,0-0.1-0.1-0.3,0c-0.1,0-0.2,0.1-0.2,0.2c-0.2-0.2-0.5-0.2-0.7,0
		c-0.2,0-0.3-0.1-0.3-0.2l-0.3,0.1c-0.1,0-0.2,0-0.3-0.1c0,0,0,0.1,0,0.1c-0.4-0.2-0.9-0.1-1.3,0.1c0-0.1,0,0.2,0.1,1
		c0,0.5,0,0.8-0.1,0.9c0,0,0,0,0.1,0.1c0-0.2,0.1,0.9,0.1,3.3c0,0.1,0,0.2,0,0.4c0,1.5,0,3.8,0.2,6.7c0,0,0,1.2,0.2,3.5
		c0,0,0,0.1,0.1,0.1c0,0.6,0,1.4,0,2.6v3c0.2,0,0.5,0,0.9,0C69.6,37.9,69.7,37.9,70,37.9z M68.1,34.5c0,0.3-0.1,0.9-0.1,1.5
		C68.1,36,68.1,35.4,68.1,34.5z M68.3,14.4c0,0,0.1,0,0.3-0.1c0,0,0-0.1,0-0.1c-0.1,0-0.2,0-0.2,0V14.4z M68.7,39.5l-0.1,0.2
		c0,0,0.1,0,0.1,0C68.7,39.7,68.7,39.6,68.7,39.5z M68.7,15.6L68.7,15.6l0-0.2h0V15.6z M69.1,39.6c0.3,0,0.5,0,0.7,0.1v-0.1
		c-0.2,0-0.5-0.4-1-0.4c-0.1,0.2-0.1,0.4,0,0.5L69.1,39.6z M68.8,14.4C68.8,14.4,68.8,14.4,68.8,14.4l0.1-0.2c0,0,0,0-0.1,0V14.4z
		 M69.2,14.4v-0.2H69C69,14.2,69.1,14.3,69.2,14.4L69.2,14.4z M69.6,14.3C69.6,14.3,69.6,14.3,69.6,14.3c0.1,0,0.2,0,0.4-0.2h-0.6
		c0,0.1,0,0.3,0.1,0.3C69.4,14.4,69.5,14.3,69.6,14.3z M71.2,39.8c0,0,0.1-0.1,0.2-0.1c0,0,0.1,0,0.3,0.1c0.2,0,0.4,0,0.7-0.1
		c0,0-0.1-0.1-0.2-0.2c0-0.1,0-0.2,0.1-0.3c0,0-0.1,0-0.2,0.1c-0.5,0-0.8,0-0.8,0.2c0,0-0.2,0-0.3,0.2c0-0.1-0.1-0.1-0.1-0.2
		c-0.4,0-0.9,0-0.9,0.4c0.2,0,0.5,0,0.9-0.1c0,0,0,0.1,0.1,0.1H71.2z M81.3,18.6c0-0.1,0-0.2,0-0.2c-0.3-0.3-0.7-0.8-1.2-1.5
		c0,0,0,0-0.1,0c0-0.1,0-0.1-0.1-0.1c-0.2-0.1-0.5-0.2-0.8-0.2c0,0,0,0-0.1,0.1l-0.4-0.2c-0.3,0-0.5-0.1-0.6-0.2
		c-0.2,0.2-0.5,0.2-0.7-0.1c0,0-0.1,0-0.2,0.1c-0.2-0.1-0.4-0.2-0.5-0.1c0,0-0.1-0.1-0.1-0.3c0,0-0.1,0-0.1,0.1c0,0-0.1,0-0.1-0.1
		c-0.2,0-0.5-0.1-0.8-0.1v-0.1c-0.5,0-0.7,0-0.6,0c0,0-0.1-0.1-0.2-0.1c-0.3,0-0.5,0-0.5-0.2L74,15.5c-0.2-0.1-0.3-0.1-0.4-0.2
		c-0.4,0-0.6,0-0.6-0.1c0,0-0.2,0-0.6-0.1c-0.3,0-0.5,0-0.5,0c0,0-0.1-0.1-0.3-0.1c0,0,0,0,0,0c-0.2,0-0.6,0.1-1.1,0.2
		c0,0-0.1,0.1-0.1,0.1c0,0-0.1-0.1-0.2-0.1c0,0.1,0,0.3,0,0.3c0.7,0,1.1,0,1.2-0.1c0,0,0.1,0,0.2,0.1c0,0,0-0.1,0.1-0.1
		c0.4,0,0.7,0,0.9,0c0,0,0,0,0.1,0.1c0.1-0.2,0.3-0.2,0.5,0c0,0,0.1,0,0.1,0c0,0,0,0.1,0.1,0.1c0.2,0,0.5,0.1,1,0.1
		c0,0,0.1,0.1,0.2,0.2c0,0,0-0.1,0-0.1l0.1,0.2c0,0,0.1-0.1,0.2-0.2c0,0.1,0,0.3,0,0.3c0.3,0,0.4,0,0.4,0c0.3,0,0.5,0.1,0.5,0.3
		l0.9,0.2c0.1,0,0.2,0,0.4,0c0.1,0.1,0.6,0.3,0.8,0.4c0.3-0.1,0.4,0,0.4,0.2c0.2-0.1,0.4,0,0.6,0.4c0.1,0,0.5,0.1,1.2,0.4
		c0,0,0,0,0.1,0.2c0,0,0.1,0,0.1-0.1c0,0,0,0.1,0,0.2h0.1v0.1h0.3v0.1c0.2,0,0.4,0.1,0.4,0.3C81.2,18.7,81.3,18.6,81.3,18.6z
		 M70.1,14v0.2h0.2C70.3,14.2,70.2,14,70.1,14z M72.2,14.2L72.2,14.2C71.9,14,71.3,14,70.5,14v0.2c0,0,0.1-0.1,0.2-0.1h0.7
		c0,0,0.1,0,0.4,0.2C71.8,14.2,71.9,14.2,72.2,14.2z M73.3,39.6c0-0.1,0-0.1,0-0.2c0.6,0,0.9,0,0.9-0.2h0.5v-0.1h0.4V39
		C75,39,75,38.8,75,38.7h0.1c0-0.1,0-0.3,0.1-0.5c0.1-0.1,0.3-0.2,0.4-0.2c0,0-0.1,0-0.1-0.1c-0.1,0-0.3,0.2-0.5,0.4
		c0,0-0.2,0.1-0.5,0.3v0.1c-0.1,0-0.2,0-0.2-0.1c-0.1,0-0.2,0.1-0.3,0.3c0,0-0.3,0.2-0.9,0.5v0.2C73.1,39.6,73.2,39.6,73.3,39.6
		L73.3,39.6z M75.9,15.6c0.1-0.1,0-0.2-0.1-0.2C75.8,15.4,75.8,15.5,75.9,15.6L75.9,15.6z M77.2,38.7v-0.2
		C77.2,38.5,77.2,38.6,77.2,38.7c0.2-0.2,0.5-0.3,0.9-0.4v-0.1c0,0,0.2,0,0.5-0.2v-0.2h0.1c0,0,0,0,0,0.1c0.1-0.1,0.3-0.2,0.5-0.2
		c0-0.1,0-0.2,0-0.2h-0.2v0.1c-0.6-0.1-0.6-0.1-0.6-0.7c0,0,0,0,0.1,0c0-0.1,0.1-0.2,0.1-0.3c-0.1,0-0.5,0.2-1,0.5l-0.3,0.5
		c-0.3,0.2-0.6,0.5-1,1c-0.1,0-0.3,0.1-0.4,0.3C76.6,38.7,76.7,38.7,77.2,38.7z M77.1,15.7c0,0,0.1,0,0.2,0.1c0,0,0-0.1-0.1-0.2
		c-0.1,0-0.3,0-0.3,0.1v-0.2c-0.1,0-0.2,0-0.2,0.1c-0.2,0-0.4,0-0.5-0.1c0,0,0.1,0.1,0.5,0.3c0.1,0,0.2,0,0.3,0.2
		C77,15.9,77,15.8,77.1,15.7z M78.6,16.1v-0.3h-0.2c0-0.1-0.3-0.2-0.7-0.4c-0.2,0.1-0.4,0.2-0.5,0.3c0,0,0.1,0.1,0.2,0.2
		c0,0,0.2,0,0.4,0.1C78.2,15.9,78.4,16,78.6,16.1C78.6,16.1,78.6,16.1,78.6,16.1z M77.5,16.4L77.5,16.4L77.5,16.4L77.5,16.4
		L77.5,16.4z M78.8,16L78.8,16l0.1-0.2h-0.1V16z M79.6,37.5L79.6,37.5l0-0.2h0V37.5z M80.1,37.3v-0.1c-0.2,0-0.3,0-0.3,0.3
		C79.8,37.4,79.9,37.3,80.1,37.3z M80,37.2L80,37.2L80,37.2L80,37.2L80,37.2z M80.4,37.1V37c0,0,0.1,0,0.2,0v-0.1
		c0.1-0.1,0.3-0.2,0.4-0.4h0.1V36h-0.1c0,0-0.1-0.1-0.2-0.3c0,0-0.2,0-0.3,0.1c0,0.1,0,0.3,0.1,0.5c-0.1,0.1-0.3,0.4-0.5,0.8
		C80.2,37.1,80.3,37.1,80.4,37.1z M81.1,34.8c0,0,0-0.1,0-0.2C81,34.7,81,34.8,81.1,34.8C81.1,34.8,81.1,34.8,81.1,34.8z M81.4,17.6
		c0-0.1,0.1-0.1,0.1-0.2h-0.1V17.6z M81.4,34.4L81.4,34.4L81.4,34.4L81.4,34.4L81.4,34.4z M81.5,19L81.5,19l0.1-0.1h-0.1V19z
		 M81.9,33.8h0.2v-0.2c0.1,0,0.2-0.1,0.4-0.1c0,0,0-0.1,0-0.2c0.4-0.4,0.5-0.9,0.3-1.6c0,0.1-0.1,0.4-0.2,0.7h-0.2v0.4h-0.2
		c-0.1,0.3-0.3,0.7-0.5,1.3C81.7,34,81.8,34,81.9,33.8z M81.8,35.3c0.1,0,0.2-0.1,0.4-0.3H82c0,0-0.1,0.1-0.2,0.2V35.3z M82.3,21.9
		L82.3,21.9L82.3,21.9L82.3,21.9L82.3,21.9z M82.9,19.1c-0.1-0.2-0.2-0.4-0.2-0.4h-0.1c0,0.1,0.2,0.4,0.5,0.9
		C83.1,19.2,83,19.1,82.9,19.1z M83.5,19.9c-0.1-0.2-0.2-0.3-0.3-0.4c0,0.2,0,0.4,0,0.4C83.3,19.9,83.4,19.9,83.5,19.9z M83.4,30.7
		L83.4,30.7L83.4,30.7L83.4,30.7L83.4,30.7z M83.8,31.9c0.3-0.2,0.5-0.7,0.6-1.7c0.2-0.2,0.3-0.6,0.3-1.2c0,0,0.1,0,0.1,0v-0.2h-0.1
		c0-0.1,0.1-0.2,0.1-0.3c0-0.5,0-0.9,0-0.9c0,0,0.1,0,0.2-0.1c0-0.7,0-1,0.1-1c0-0.1,0-0.3,0-0.4h-0.1c0,0,0-0.1,0-0.2h0.2
		c-0.1-0.2-0.1-0.6-0.1-1.1c0-0.8,0.1-1.2,0.1-1.1c-0.1-0.3-0.3-1-0.7-2.1c-0.2,0.9-0.2,1.6-0.1,2.3h0.1v0.1h0.1
		c-0.1,0.8-0.1,1.2-0.1,1.3c0,0,0,0.2,0,0.5c0,0.3,0,0.4-0.2,0.4c0,0.4,0.1,0.9,0.3,1.5c0,0,0,0,0,0.1c-0.1-0.1-0.1,0-0.1,0.3
		c-0.3,0.3-0.5,0.5-0.5,0.9H84v-0.1L83.9,29c0,0.1,0,0.2,0,0.3c-0.3,0.1-0.5,0.5-0.5,1.2h0.1c0.1-0.3,0.4-0.4,0.7-0.2
		c0,0.2,0,0.5-0.2,0.9c-0.4,0.2-0.5,0.8-0.5,1.7C83.8,32.5,83.8,32.2,83.8,31.9z M84.3,21.2c0-0.1-0.1-0.3-0.1-0.6H84
		c-0.1-0.4-0.3-0.6-0.4-0.6c0,0.1,0.2,0.5,0.5,1.3C84.2,21.2,84.2,21.2,84.3,21.2z M83.8,20.9L83.8,20.9L83.8,20.9L83.8,20.9
		L83.8,20.9z M84.3,30.8C84.3,30.8,84.3,30.8,84.3,30.8C84.3,30.8,84.3,30.8,84.3,30.8z M85.8,24.5L85.8,24.5L85.8,24.5L85.8,24.5
		L85.8,24.5z"/>
</g>
<g>
	<path d="M2.2,6.5c-1,0-1.6-0.2-2.2-0.8l0.5-0.5c0.5,0.5,1,0.7,1.7,0.7c0.9,0,1.5-0.4,1.5-1.2c0-0.3-0.1-0.6-0.3-0.8
		C3.2,3.7,3,3.7,2.6,3.6L1.8,3.5C1.3,3.4,0.9,3.2,0.7,3C0.3,2.7,0.2,2.3,0.2,1.8C0.2,0.7,1,0,2.2,0C3,0,3.6,0.2,4.1,0.7L3.7,1.1
		C3.3,0.8,2.9,0.6,2.2,0.6c-0.9,0-1.3,0.5-1.3,1.2c0,0.3,0.1,0.6,0.3,0.7C1.3,2.7,1.7,2.8,2,2.8L2.7,3C3.3,3,3.6,3.2,3.9,3.4
		c0.3,0.3,0.5,0.7,0.5,1.3C4.4,5.8,3.5,6.5,2.2,6.5z"/>
	<path d="M8.1,0.7v5.7H7.4V0.7H5.5V0.1h4.4v0.6H8.1z"/>
	<path d="M13.6,6.5c-1.3,0-2.2-0.9-2.2-2.2V0.1h0.7v4.2c0,1,0.6,1.6,1.5,1.6c0.9,0,1.6-0.6,1.6-1.6V0.1h0.7v4.3
		C15.8,5.6,14.9,6.5,13.6,6.5z"/>
	<path d="M21.8,5.8c-0.4,0.4-1,0.6-1.6,0.6H18V0.1h2.2c0.7,0,1.2,0.2,1.6,0.6c0.7,0.7,0.6,1.6,0.6,2.5C22.4,4,22.4,5.2,21.8,5.8z
		 M21.3,1.1C21,0.8,20.5,0.7,20,0.7h-1.4v5.1H20c0.5,0,0.9-0.1,1.3-0.5c0.4-0.5,0.4-1.4,0.4-2.2C21.7,2.4,21.7,1.6,21.3,1.1z"/>
	<path d="M24.4,6.4V0.1H25v6.4H24.4z"/>
	<path d="M27.2,6.4V0.1h4v0.6h-3.3v2.2h2.8v0.6h-2.8v2.3h3.3v0.6H27.2z"/>
	<path d="M34.8,6.4h-0.6l-2.1-6.4h0.7l1.7,5.1l1.7-5.1h0.7L34.8,6.4z"/>
	<path d="M38.2,6.4V0.1h4v0.6h-3.3v2.2h2.8v0.6h-2.8v2.3h3.3v0.6H38.2z"/>
	<path d="M47.7,6.4l-1.5-2.8h-1.5v2.8H44V0.1h2.5c1.1,0,1.9,0.7,1.9,1.8c0,0.9-0.6,1.5-1.4,1.7l1.5,2.9H47.7z M46.4,0.7h-1.7V3h1.7
		c0.7,0,1.3-0.4,1.3-1.2C47.7,1.1,47.1,0.7,46.4,0.7z"/>
	<path d="M50.2,6.4V0.1h4v0.6h-3.3v2.2h2.8v0.6h-2.8v2.3h3.3v0.6H50.2z"/>
	<path d="M60.1,6.4l-3.4-5.1v5.1H56V0.1h0.6L60,5.1V0.1h0.7v6.4H60.1z"/>
	<path d="M62.9,6.4V0.1h0.7v6.4H62.9z"/>
	<path d="M69.5,5.7c-0.4,0.5-1,0.7-1.7,0.7c-0.6,0-1.2-0.2-1.6-0.7c-0.6-0.6-0.6-1.2-0.6-2.6c0-1.3,0-2,0.6-2.6
		c0.4-0.4,1-0.7,1.6-0.7c0.8,0,1.3,0.3,1.9,0.9l-0.5,0.5c-0.4-0.4-0.8-0.7-1.5-0.7c-0.4,0-0.8,0.2-1.1,0.5c-0.4,0.4-0.4,0.8-0.4,2.2
		c0,1.3,0,1.8,0.4,2.2c0.3,0.3,0.7,0.4,1.1,0.4c0.5,0,0.9-0.2,1.2-0.5c0.3-0.3,0.3-0.7,0.3-1.2V3.7h-1.6V3.1H70v1
		C70,4.8,69.9,5.3,69.5,5.7z"/>
	<path d="M72,6.4V0.1h0.7v6.4H72z"/>
	<path d="M78.9,6.4l-3.4-5.1v5.1h-0.7V0.1h0.6l3.4,5.1V0.1h0.7v6.4H78.9z"/>
	<path d="M85.5,5.7c-0.4,0.5-1,0.7-1.7,0.7c-0.6,0-1.2-0.2-1.6-0.7c-0.6-0.6-0.6-1.2-0.6-2.6c0-1.3,0-2,0.6-2.6
		c0.4-0.4,1-0.7,1.6-0.7c0.8,0,1.3,0.3,1.9,0.9l-0.5,0.5c-0.4-0.4-0.8-0.7-1.5-0.7c-0.4,0-0.8,0.2-1.1,0.5c-0.4,0.4-0.4,0.8-0.4,2.2
		c0,1.3,0,1.8,0.4,2.2c0.3,0.3,0.7,0.4,1.1,0.4c0.5,0,0.9-0.2,1.2-0.5c0.3-0.3,0.3-0.7,0.3-1.2V3.7h-1.6V3.1H86v1
		C86,4.8,85.8,5.3,85.5,5.7z"/>
</g>
<g>
	<path d="M37.9,48.5L37.9,48.5c-0.2,0-0.2,0-0.3,0.1c-0.1,0.1-0.2,0.1-0.3,0.2c-0.4,0.5-0.8,1.1-1,1.8c-0.3,0.7-0.4,1.3-0.4,1.7
		c0,0.3,0,0.5,0.1,0.6c0.1,0.1,0.2,0.2,0.4,0.2c0.3,0,0.6-0.1,1-0.3c0.3-0.2,0.7-0.6,1.1-1.1c0.2-0.2,0.4-0.5,0.5-0.8
		c0.2-0.3,0.3-0.4,0.3-0.4c0.1,0,0.1,0,0.2,0.1c0.1,0.1,0.1,0.1,0.1,0.2c0,0.1-0.1,0.2-0.2,0.5c-0.1,0.2-0.2,0.5-0.4,0.7
		c-0.4,0.5-0.7,0.9-1.2,1.2c-0.4,0.3-0.9,0.4-1.3,0.4c-0.5,0-0.9-0.1-1.2-0.4C35.1,53,35,52.6,35,52.1c0-0.6,0.2-1.4,0.5-2.2
		c0.4-0.8,0.8-1.5,1.2-1.9c0.1-0.1,0.2-0.2,0.4-0.2c0.1,0,0.3-0.1,0.5-0.1c0.1,0,0.2,0,0.4,0.1c0.1,0,0.2,0.1,0.4,0.2
		c0.2,0,0.3,0.1,0.5,0.3c0.1,0.2,0.2,0.4,0.2,0.6c0,0.4-0.1,0.8-0.3,1.2c-0.2,0.4-0.4,0.6-0.6,0.6c-0.1,0-0.2,0-0.3-0.1
		c-0.1-0.1-0.2-0.2-0.2-0.3c0-0.2,0.1-0.5,0.2-0.8C37.8,49,37.9,48.7,37.9,48.5z"/>
	<path d="M43.5,52.6c-0.1-0.1-0.2-0.2-0.2-0.3c0-0.1-0.1-0.2-0.1-0.3c0-0.3,0.2-1,0.7-2.3l0.1-0.1c-0.3,0.5-0.6,1.1-1,1.9
		c-0.6,1.1-1,1.7-1.3,1.7c-0.2,0-0.3,0-0.4-0.1C41,52.9,41,52.8,41,52.6c0-0.2,0.1-0.7,0.3-1.7c0-0.2,0.1-0.4,0.1-0.5
		c-0.4,0.5-0.7,1.2-1.1,2c-0.4,0.7-0.6,1.1-0.9,1.1c-0.3,0-0.5-0.1-0.6-0.2c-0.1-0.1-0.2-0.3-0.2-0.6c0-0.2,0.1-0.7,0.4-1.6
		c0.2-0.7,0.4-1.2,0.5-1.6c0.1-0.4,0.2-0.7,0.3-0.8c0.1-0.1,0.2-0.2,0.3-0.2c0.2,0,0.3,0.1,0.5,0.2c0.1,0.1,0.2,0.3,0.2,0.5
		c0,0.1-0.1,0.2-0.2,0.4c-0.1,0.1-0.2,0.3-0.3,0.4c-0.1,0.1-0.2,0.5-0.4,1c-0.2,0.5-0.3,1.1-0.5,1.8c0.8-1.5,1.4-2.5,1.8-3
		c0.4-0.6,0.7-0.9,0.9-0.9c0.1,0,0.2,0,0.3,0.1c0.1,0.1,0.1,0.2,0.1,0.4l-0.1,0.3c-0.1,0.4-0.3,0.8-0.4,1.2
		c-0.1,0.4-0.2,0.9-0.3,1.4c0.7-1.4,1.3-2.4,1.8-3.1c0.5-0.7,0.8-1,1-1c0.1,0,0.1,0,0.2,0.1c0.1,0.1,0.1,0.2,0.2,0.3
		c0.1,0.1,0.1,0.1,0.2,0.2c0,0.1,0.1,0.1,0.1,0.2c0,0.1,0,0.1-0.1,0.2c0,0.1-0.1,0.2-0.2,0.4c-0.3,0.4-0.5,0.9-0.7,1.4
		c-0.2,0.5-0.3,0.9-0.3,1.2c0,0.1,0,0.2,0.1,0.3c0,0.1,0.1,0.1,0.2,0.1c0.1,0,0.3-0.1,0.4-0.2c0.1-0.2,0.4-0.5,0.7-1
		c0.1-0.2,0.2-0.3,0.3-0.5c0.1-0.2,0.2-0.3,0.2-0.3c0.1,0,0.2,0.1,0.3,0.2c0.1,0.1,0.2,0.2,0.2,0.3c0,0.1-0.1,0.3-0.2,0.5
		c-0.1,0.2-0.3,0.5-0.5,0.8c-0.3,0.4-0.5,0.7-0.7,0.9c-0.2,0.2-0.4,0.3-0.6,0.3c-0.1,0-0.2,0-0.4-0.1C43.7,52.9,43.6,52.8,43.5,52.6
		z"/>
	<path d="M47.6,52.3c-0.3,0.5-0.5,0.9-0.8,1.3C46.5,53.8,46.2,54,46,54c-0.3,0-0.5-0.1-0.7-0.4c-0.2-0.3-0.3-0.6-0.3-1.1
		c0-0.6,0.2-1.2,0.5-1.8c0.3-0.7,0.7-1.3,1.3-1.8c0.1-0.1,0.3-0.2,0.4-0.3c0.1-0.1,0.2-0.1,0.3-0.1c0.1,0,0.3,0,0.4,0.1
		c0.2,0.1,0.3,0.2,0.5,0.4c0.2-0.6,0.5-1.3,0.8-2.2c0.6-1.7,1-2.5,1.2-2.5c0.2,0,0.3,0,0.5,0.1c0.1,0.1,0.2,0.2,0.2,0.3
		c0,0.1-0.1,0.4-0.3,0.8c-0.2,0.3-0.3,0.6-0.4,0.8c-0.6,1.3-1,2.5-1.3,3.6c-0.3,1.1-0.5,1.9-0.5,2.4c0,0.1,0,0.2,0,0.3
		c0,0.1,0.1,0.1,0.1,0.1c0.1,0,0.2-0.1,0.4-0.2c0.1-0.2,0.4-0.4,0.6-0.9c0.1-0.1,0.1-0.2,0.2-0.3c0.1-0.2,0.2-0.3,0.2-0.3
		c0,0,0.1,0,0.1,0c0,0,0.1,0.1,0.1,0.1c0,0.1,0,0.2-0.1,0.3c-0.1,0.2-0.2,0.4-0.3,0.6c-0.3,0.5-0.5,0.8-0.7,1.1
		c-0.2,0.2-0.5,0.3-0.7,0.3c-0.2,0-0.4-0.1-0.6-0.3C47.7,52.9,47.7,52.6,47.6,52.3z M48.2,49.4c-0.1-0.1-0.1-0.1-0.2-0.2
		c-0.1,0-0.1-0.1-0.2-0.1c-0.1,0-0.3,0.1-0.5,0.3c-0.2,0.2-0.4,0.5-0.7,0.9c-0.3,0.4-0.5,0.9-0.7,1.4c-0.2,0.5-0.2,0.9-0.2,1.2
		c0,0.1,0,0.2,0.1,0.3c0.1,0.1,0.1,0.1,0.2,0.1c0.2,0,0.6-0.4,1-1.1C47.5,51.4,47.9,50.5,48.2,49.4z"/>
</g>
<g>
</g>
<g>
</g>
<g>
</g>
<g>
</g>
<g>
</g>
<g>
</g>
<g>
</g>
<g>
</g>
<g>
</g>
<g>
</g>
<g>
</g>
<g>
</g>
<g>
</g>
<g>
</g>
<g>
</g>
</svg>
