<?xml version="1.0" encoding="utf-8"?>
<!DOCTYPE svg PUBLIC "-//W3C//DTD SVG 1.1//EN" "http://www.w3.org/Graphics/SVG/1.1/DTD/svg11.dtd">
<svg version="1.1" xmlns="http://www.w3.org/2000/svg" xmlns:xlink="http://www.w3.org/1999/xlink" x="0px" y="0px"
	 viewBox="-360 238.3 120 120" enable-background="new -360 238.3 120 120" xml:space="preserve">
<g id="Layer_1">
	<rect x="-360" y="238.3" fill="#FFFFFF" width="120" height="120"/>
	<g>
		<path d="M-300,250.3c-26.5,0-48,21.5-48,48s21.5,48,48,48s48-21.5,48-48S-273.5,250.3-300,250.3z M-278,288.1
			c-3.3,1.6-3.3,2.5-3.7,3.2c-0.4,0.7-0.7,0.2-0.5-0.4c0.3-0.6,0.7-1.9,3.6-3.2c0,0,2.6-1.1,0.5-1.3l0.9-0.9
			C-277.2,285.5-274.7,286.5-278,288.1z M-275.9,284l-12.5,12.3l7,20.5c0.1,0.3,0.1,0.7-0.1,1c-0.2,0.3-0.4,0.5-0.8,0.6l-20.8,6.3
			c-0.1,0-0.2,0.1-0.4,0.1c-0.5,0-0.9-0.3-1.2-0.7l-19.5-42.5c-0.2-0.4-0.1-0.9,0.1-1.3c0.3-0.4,0.7-0.6,1.2-0.5l29.4,4.6
			c0.5,0.1,0.9,0.4,1,0.8l2.8,8.2c5.2-5.2,11.3-11.3,11.4-11.4c0.1-0.1,0.3,0,0.3,0s1.7,1.7,1.9,1.8
			C-275.8,283.9-275.9,284-275.9,284z"/>
		<path d="M-294.9,302.6l-3.6,1.8c-0.2,0.1-0.6,0.2-0.3-0.3c0.3-0.6,2-3.5,2-3.5s2.3-2.3,5.4-5.4l-2.9-8.6l-26.3-4.1l18.1,39.3
			l18.4-5.6l-6.2-18.1L-294.9,302.6z"/>
	</g>
</g>
</svg>